mtllib model_7.mtl
o model_7
v -17.1825008392334 0.297691285610199 4.937553882598877 
v -17.1825008392334 0.09494210034608841 4.937553882598877 
v -13.772181510925293 0.297691285610199 4.937553882598877 
v -13.772181510925293 0.09494210034608841 4.937553882598877 
v -13.772181510925293 0.09494210034608841 3.4410998821258545 
v -17.1825008392334 0.09494210034608841 3.4410998821258545 
v -13.772181510925293 0.297691285610199 3.4410998821258545 
v -17.1825008392334 0.297691285610199 3.4410998821258545 
v -13.772181510925293 0.297691285610199 4.937553882598877 
v -17.1825008392334 0.738670825958252 4.183435440063477 
v -17.1825008392334 0.297691285610199 4.937553882598877 
v -13.772181510925293 0.297691285610199 4.937553882598877 
v -13.772181510925293 0.738670825958252 4.183435440063477 
v -17.1825008392334 0.738670825958252 4.183435440063477 
v -13.772181510925293 0.738670825958252 4.183435440063477 
v -17.1825008392334 0.297691285610199 3.4410998821258545 
v -17.1825008392334 0.738670825958252 4.183435440063477 
v -13.772181510925293 0.738670825958252 4.183435440063477 
v -13.772181510925293 0.297691285610199 3.4410998821258545 
v -17.1825008392334 0.297691285610199 3.4410998821258545 
v -0.44009140133857727 0.400752991437912 -12.285400390625 
v -0.44009140133857727 2.4348037242889404 -12.285400390625 
v 0.5795312523841858 0.400752991437912 -12.285400390625 
v 0.5795312523841858 2.4348037242889404 -12.285400390625 
v -0.4581912159919739 2.4348037242889404 -12.285400390625 
v -0.4581912159919739 0.400752991437912 -12.285400390625 
v -1.4697694778442383 2.4348037242889404 -12.285400390625 
v -1.4697694778442383 0.400752991437912 -12.285400390625 
v -2.4994475841522217 0.400752991437912 -12.285400390625 
v -2.517547369003296 0.400752991437912 -12.285400390625 
v -2.4994475841522217 2.4348037242889404 -12.285400390625 
v -2.517547369003296 2.4348037242889404 -12.285400390625 
v -1.4697694778442383 0.400752991437912 -12.285400390625 
v -1.4878692626953125 0.400752991437912 -12.285400390625 
v -1.4697694778442383 2.4348037242889404 -12.285400390625 
v -1.4878692626953125 2.4348037242889404 -12.285400390625 
v -0.44009140133857727 0.400752991437912 -12.285400390625 
v -0.4581912159919739 0.400752991437912 -12.285400390625 
v -0.44009140133857727 2.4348037242889404 -12.285400390625 
v -0.4581912159919739 2.4348037242889404 -12.285400390625 
v -2.517547369003296 0.400752991437912 -12.285400390625 
v -3.537169933319092 0.400752991437912 -12.285400390625 
v -2.517547369003296 2.4348037242889404 -12.285400390625 
v -3.537169933319092 2.4348037242889404 -12.285400390625 
v -2.4994475841522217 0.400752991437912 -12.285400390625 
v -2.4994475841522217 2.4348037242889404 -12.285400390625 
v -1.4878692626953125 0.400752991437912 -12.285400390625 
v -1.4878692626953125 2.4348037242889404 -12.285400390625 
v 0.5795312523841858 2.4348037242889404 -12.248900413513184 
v -0.44009140133857727 2.4348037242889404 -12.248900413513184 
v 0.5795312523841858 0.400752991437912 -12.248900413513184 
v -0.44009140133857727 0.400752991437912 -12.248900413513184 
v -1.4697694778442383 0.400752991437912 -12.248900413513184 
v -0.4581912159919739 0.400752991437912 -12.248900413513184 
v -1.4697694778442383 2.4348037242889404 -12.248900413513184 
v -0.4581912159919739 2.4348037242889404 -12.248900413513184 
v -2.517547369003296 2.4348037242889404 -12.248900413513184 
v -2.517547369003296 0.400752991437912 -12.248900413513184 
v -2.4994475841522217 2.4348037242889404 -12.248900413513184 
v -2.4994475841522217 0.400752991437912 -12.248900413513184 
v -1.4878692626953125 2.4348037242889404 -12.248900413513184 
v -1.4878692626953125 0.400752991437912 -12.248900413513184 
v -1.4697694778442383 2.4348037242889404 -12.248900413513184 
v -1.4697694778442383 0.400752991437912 -12.248900413513184 
v -0.4581912159919739 2.4348037242889404 -12.248900413513184 
v -0.4581912159919739 0.400752991437912 -12.248900413513184 
v -0.44009140133857727 2.4348037242889404 -12.248900413513184 
v -0.44009140133857727 0.400752991437912 -12.248900413513184 
v -3.537169933319092 2.4348037242889404 -12.248900413513184 
v -3.537169933319092 0.400752991437912 -12.248900413513184 
v -2.517547369003296 2.4348037242889404 -12.248900413513184 
v -2.517547369003296 0.400752991437912 -12.248900413513184 
v -1.4878692626953125 2.4348037242889404 -12.248900413513184 
v -2.4994475841522217 2.4348037242889404 -12.248900413513184 
v -1.4878692626953125 0.400752991437912 -12.248900413513184 
v -2.4994475841522217 0.400752991437912 -12.248900413513184 
vn 0 0 1 
vn 0 0 1 
vn 0 0 1 
vn 0 0 1 
vn -2.0682311115474694e-13 0 -1 
vn -2.0682311115474694e-13 0 -1 
vn -2.0682311115474694e-13 0 -1 
vn -2.0682311115474694e-13 0 -1 
vn -8.913949764953466e-14 0.8601409196853638 0.5100564956665039 
vn -8.913949764953466e-14 0.8601409196853638 0.5100564956665039 
vn -8.913949764953466e-14 0.8601409196853638 0.5100564956665039 
vn -8.913949764953466e-14 0.8601409196853638 0.5100564956665039 
vn -8.913949764953466e-14 0.8601409196853638 0.5100564956665039 
vn -8.913949764953466e-14 0.8601409196853638 0.5100564956665039 
vn -0.001889657462015748 0.8601388335227966 -0.5100564956665039 
vn -0.001889657462015748 0.8601388335227966 -0.5100564956665039 
vn -0.001889657462015748 0.8601388335227966 -0.5100564956665039 
vn -0.001889657462015748 0.8601388335227966 -0.5100564956665039 
vn -0.001889657462015748 0.8601388335227966 -0.5100564956665039 
vn -0.001889657462015748 0.8601388335227966 -0.5100564956665039 
vn -2.0682311115474694e-13 0 -1 
vn -2.0682311115474694e-13 0 -1 
vn -2.0682311115474694e-13 0 -1 
vn -2.0682311115474694e-13 0 -1 
vn -2.0682311115474694e-13 0 -1 
vn -2.0682311115474694e-13 0 -1 
vn -2.0682311115474694e-13 0 -1 
vn -2.0682311115474694e-13 0 -1 
vn -2.0682311115474694e-13 0 -1 
vn -2.0682311115474694e-13 0 -1 
vn -2.0682311115474694e-13 0 -1 
vn -2.0682311115474694e-13 0 -1 
vn -2.0682311115474694e-13 0 -1 
vn -2.0682311115474694e-13 0 -1 
vn -2.0682311115474694e-13 0 -1 
vn -2.0682311115474694e-13 0 -1 
vn -2.0682311115474694e-13 0 -1 
vn -2.0682311115474694e-13 0 -1 
vn -2.0682311115474694e-13 0 -1 
vn -2.0682311115474694e-13 0 -1 
vn -2.0682311115474694e-13 0 -1 
vn -2.0682311115474694e-13 0 -1 
vn -2.0682311115474694e-13 0 -1 
vn -2.0682311115474694e-13 0 -1 
vn -2.0682311115474694e-13 0 -1 
vn -2.0682311115474694e-13 0 -1 
vn -2.0682311115474694e-13 0 -1 
vn -2.0682311115474694e-13 0 -1 
vn 0 0 1 
vn 0 0 1 
vn 0 0 1 
vn 0 0 1 
vn 0 0 1 
vn 0 0 1 
vn 0 0 1 
vn 0 0 1 
vn 0 0 1 
vn 0 0 1 
vn 0 0 1 
vn 0 0 1 
vn 0 0 1 
vn 0 0 1 
vn 0 0 1 
vn 0 0 1 
vn 0 0 1 
vn 0 0 1 
vn 0 0 1 
vn 0 0 1 
vn 0 0 1 
vn 0 0 1 
vn 0 0 1 
vn 0 0 1 
vn 0 0 1 
vn 0 0 1 
vn 0 0 1 
vn 0 0 1 
vt 0.7282519936561584 0.03770862892270088 
vt 0.7282519936561584 0.007239350117743015 
vt 0.8255627751350403 0.03770862892270088 
vt 0.8255627751350403 0.007239350117743015 
vt 0.8255627751350403 0.007239350117743015 
vt 0.7282519936561584 0.007239350117743015 
vt 0.8255627751350403 0.03770862892270088 
vt 0.7282519936561584 0.03770862892270088 
vt 0.8255627751350403 0.03770862892270088 
vt 0.7282519936561584 0.10455061495304108 
vt 0.7282519936561584 0.03770862892270088 
vt 0.8255627751350403 0.03770862892270088 
vt 0.8255627751350403 0.10455061495304108 
vt 0.7282519936561584 0.10455061495304108 
vt 0.8255627751350403 0.10455061495304108 
vt 0.7282519936561584 0.03770862892270088 
vt 0.7282519936561584 0.10455061495304108 
vt 0.8255627751350403 0.10455061495304108 
vt 0.8255627751350403 0.03770862892270088 
vt 0.7282519936561584 0.03770862892270088 
vt 0.6096571087837219 0.0011342200450599194 
vt 0.6096571087837219 0.109333336353302 
vt 0.5014365911483765 0.0011342200450599194 
vt 0.5014365911483765 0.109333336353302 
vt 0.6115256547927856 0.109333336353302 
vt 0.6115256547927856 0.0011342200450599194 
vt 0.7197461724281311 0.109333336353302 
vt 0.7197461724281311 0.0011342200450599194 
vt 0.08202359825372696 0.27207857370376587 
vt 0.08202359825372696 0.27207857370376587 
vt 0.08202359825372696 0.27207857370376587 
vt 0.08202359825372696 0.27207857370376587 
vt 0.08202359825372696 0.27207857370376587 
vt 0.08202359825372696 0.27207857370376587 
vt 0.08202359825372696 0.27207857370376587 
vt 0.08202359825372696 0.27207857370376587 
vt 0.08202359825372696 0.27207857370376587 
vt 0.08202359825372696 0.27207857370376587 
vt 0.08202359825372696 0.27207857370376587 
vt 0.08202359825372696 0.27207857370376587 
vt 0.6115256547927856 0.0011342200450599194 
vt 0.7197461724281311 0.0011342200450599194 
vt 0.6115256547927856 0.109333336353302 
vt 0.7197461724281311 0.109333336353302 
vt 0.6096571087837219 0.0011342200450599194 
vt 0.6096571087837219 0.109333336353302 
vt 0.5014365911483765 0.0011342200450599194 
vt 0.5014365911483765 0.109333336353302 
vt 0.6096571087837219 0.109333336353302 
vt 0.5014365911483765 0.109333336353302 
vt 0.6096571087837219 0.0011342200450599194 
vt 0.5014365911483765 0.0011342200450599194 
vt 0.6115256547927856 0.0011342200450599194 
vt 0.7197461724281311 0.0011342200450599194 
vt 0.6115256547927856 0.109333336353302 
vt 0.7197461724281311 0.109333336353302 
vt 0.08202359825372696 0.27207857370376587 
vt 0.08202359825372696 0.27207857370376587 
vt 0.08202359825372696 0.27207857370376587 
vt 0.08202359825372696 0.27207857370376587 
vt 0.08202359825372696 0.27207857370376587 
vt 0.08202359825372696 0.27207857370376587 
vt 0.08202359825372696 0.27207857370376587 
vt 0.08202359825372696 0.27207857370376587 
vt 0.08202359825372696 0.27207857370376587 
vt 0.08202359825372696 0.27207857370376587 
vt 0.08202359825372696 0.27207857370376587 
vt 0.08202359825372696 0.27207857370376587 
vt 0.6115256547927856 0.109333336353302 
vt 0.6115256547927856 0.0011342200450599194 
vt 0.7197461724281311 0.109333336353302 
vt 0.7197461724281311 0.0011342200450599194 
vt 0.6096571087837219 0.109333336353302 
vt 0.5014365911483765 0.109333336353302 
vt 0.6096571087837219 0.0011342200450599194 
vt 0.5014365911483765 0.0011342200450599194 
s on 
f 1/1/1 2/2/2 3/3/3 
f 2/2/2 4/4/4 3/3/3 
f 3/3/3 4/4/4 4/4/4 
f 4/4/4 5/5/5 4/4/4 
f 4/4/4 5/5/5 5/5/5 
f 5/5/5 6/6/6 5/5/5 
f 5/5/5 6/6/6 7/7/7 
f 6/6/6 8/8/8 7/7/7 
f 7/7/7 8/8/8 21/21/21 
f 8/8/8 22/22/22 21/21/21 
f 21/21/21 22/22/22 23/23/23 
f 22/22/22 24/24/24 23/23/23 
f 23/23/23 24/24/24 24/24/24 
f 24/24/24 25/25/25 24/24/24 
f 24/24/24 25/25/25 25/25/25 
f 25/25/25 26/26/26 25/25/25 
f 25/25/25 26/26/26 27/27/27 
f 26/26/26 28/28/28 27/27/27 
f 27/27/27 28/28/28 28/28/28 
f 28/28/28 29/29/29 28/28/28 
f 28/28/28 29/29/29 29/29/29 
f 29/29/29 30/30/30 29/29/29 
f 29/29/29 30/30/30 31/31/31 
f 30/30/30 32/32/32 31/31/31 
f 31/31/31 32/32/32 32/32/32 
f 32/32/32 33/33/33 32/32/32 
f 32/32/32 33/33/33 33/33/33 
f 33/33/33 34/34/34 33/33/33 
f 33/33/33 34/34/34 35/35/35 
f 34/34/34 36/36/36 35/35/35 
f 35/35/35 36/36/36 36/36/36 
f 36/36/36 37/37/37 36/36/36 
f 36/36/36 37/37/37 37/37/37 
f 37/37/37 38/38/38 37/37/37 
f 37/37/37 38/38/38 39/39/39 
f 38/38/38 40/40/40 39/39/39 
f 39/39/39 40/40/40 40/40/40 
f 40/40/40 41/41/41 40/40/40 
f 40/40/40 41/41/41 41/41/41 
f 41/41/41 42/42/42 41/41/41 
f 41/41/41 42/42/42 43/43/43 
f 42/42/42 44/44/44 43/43/43 
f 43/43/43 44/44/44 44/44/44 
f 44/44/44 45/45/45 44/44/44 
f 44/44/44 45/45/45 45/45/45 
f 45/45/45 46/46/46 45/45/45 
f 45/45/45 46/46/46 47/47/47 
f 46/46/46 48/48/48 47/47/47 
f 47/47/47 48/48/48 49/49/49 
f 48/48/48 50/50/50 49/49/49 
f 49/49/49 50/50/50 51/51/51 
f 50/50/50 52/52/52 51/51/51 
f 51/51/51 52/52/52 52/52/52 
f 52/52/52 53/53/53 52/52/52 
f 52/52/52 53/53/53 53/53/53 
f 53/53/53 54/54/54 53/53/53 
f 53/53/53 54/54/54 55/55/55 
f 54/54/54 56/56/56 55/55/55 
f 55/55/55 56/56/56 56/56/56 
f 56/56/56 57/57/57 56/56/56 
f 56/56/56 57/57/57 57/57/57 
f 57/57/57 58/58/58 57/57/57 
f 57/57/57 58/58/58 59/59/59 
f 58/58/58 60/60/60 59/59/59 
f 59/59/59 60/60/60 60/60/60 
f 60/60/60 61/61/61 60/60/60 
f 60/60/60 61/61/61 61/61/61 
f 61/61/61 62/62/62 61/61/61 
f 61/61/61 62/62/62 63/63/63 
f 62/62/62 64/64/64 63/63/63 
f 63/63/63 64/64/64 64/64/64 
f 64/64/64 65/65/65 64/64/64 
f 64/64/64 65/65/65 65/65/65 
f 65/65/65 66/66/66 65/65/65 
f 65/65/65 66/66/66 67/67/67 
f 66/66/66 68/68/68 67/67/67 
f 67/67/67 68/68/68 68/68/68 
f 68/68/68 69/69/69 68/68/68 
f 68/68/68 69/69/69 69/69/69 
f 69/69/69 70/70/70 69/69/69 
f 69/69/69 70/70/70 71/71/71 
f 70/70/70 72/72/72 71/71/71 
f 71/71/71 72/72/72 72/72/72 
f 72/72/72 73/73/73 72/72/72 
f 72/72/72 73/73/73 73/73/73 
f 73/73/73 74/74/74 73/73/73 
f 73/73/73 74/74/74 75/75/75 
f 74/74/74 76/76/76 75/75/75 
f 9/9/9 10/10/10 11/11/11 
f 12/12/12 13/13/13 14/14/14 
f 15/15/15 16/16/16 17/17/17 
f 18/18/18 19/19/19 20/20/20 

