mtllib model_13.mtl
o model_13
v 15.695361137390137 82.67864227294922 36.71307373046875 
v 9.30268383026123 81.88285064697266 21.43158721923828 
v 0.004244000185281038 82.6853256225586 39.00141906738281 
v 0.004244000185281038 81.94010162353516 23.836288452148438 
v -15.958078384399414 82.6748275756836 36.48036193847656 
v -9.797861099243164 81.92674255371094 22.16851234436035 
v 0.004244000185281038 80.73210144042969 -0.7149335145950317 
v -15.958078384399414 82.6748275756836 36.48036193847656 
v -9.797861099243164 81.92674255371094 22.16851234436035 
v -27.30992317199707 82.1500244140625 26.822771072387695 
v -16.30677032470703 81.57942199707031 15.730118751525879 
v -37.18951416015625 81.69869232177734 15.264692306518555 
v -22.970651626586914 81.32942199707031 9.175369262695312 
v 0.004244000185281038 80.73210144042969 -0.7149335145950317 
v -37.18951416015625 81.69869232177734 15.264692306518555 
v -22.970651626586914 81.32942199707031 9.175369262695312 
v -39.66910171508789 81.65861511230469 -0.7149335145950317 
v -23.164369583129883 81.27312469482422 -0.7149335145950317 
v -37.38323211669922 81.69583129882812 -16.46184730529785 
v -23.35808563232422 81.33419036865234 -10.527665138244629 
v 0.004244000185281038 80.73210144042969 -0.7149335145950317 
v -37.38323211669922 81.69583129882812 -16.46184730529785 
v -23.35808563232422 81.33419036865234 -10.527665138244629 
v -27.658615112304688 82.13380432128906 -27.864784240722656 
v -16.849178314208984 81.58609771728516 -17.23755645751953 
v -15.686873435974121 82.67864227294922 -38.142940521240234 
v -9.914092063903809 81.96014404296875 -24.335302352905273 
v 0.004244000185281038 80.73210144042969 -0.7149335145950317 
v -15.686873435974121 82.67864227294922 -38.142940521240234 
v -9.914092063903809 81.96014404296875 -24.335302352905273 
v 0.004244000185281038 82.6853256225586 -40.39250183105469 
v 0.004244000185281038 81.87330627441406 -23.908662796020508 
v 15.92782211303711 82.6748275756836 -37.87144088745117 
v 9.728862762451172 81.91911315917969 -23.404451370239258 
v 0.004244000185281038 80.73210144042969 -0.7149335145950317 
v 15.92782211303711 82.6748275756836 -37.87144088745117 
v 9.728862762451172 81.91911315917969 -23.404451370239258 
v 27.00846290588379 82.16433715820312 -28.524137496948242 
v 15.579131126403809 81.5565185546875 -16.73334503173828 
v 37.12051773071289 81.69964599609375 -16.69455909729004 
v 21.429399490356445 81.29029846191406 -9.945882797241211 
v 0.004244000185281038 80.73210144042969 -0.7149335145950317 
v 37.12051773071289 81.69964599609375 -16.69455909729004 
v 21.429399490356445 81.29029846191406 -9.945882797241211 
v 39.63884353637695 81.65861511230469 -0.7149335145950317 
v 21.468143463134766 81.23400115966797 -0.7149335145950317 
v 37.35297775268555 81.69583129882812 15.070764541625977 
v 21.545629501342773 81.28743743896484 8.399659156799316 
v 0.004244000185281038 80.73210144042969 -0.7149335145950317 
v 37.35297775268555 81.69583129882812 15.070764541625977 
v 21.545629501342773 81.28743743896484 8.399659156799316 
v 27.550872802734375 82.1404800415039 26.628843307495117 
v 15.540387153625488 81.52789306640625 14.721695899963379 
v 15.695361137390137 82.67864227294922 36.71307373046875 
v 9.30268383026123 81.88285064697266 21.43158721923828 
v 0.004244000185281038 80.73210144042969 -0.7149335145950317 
vn -0.001887861406430602 0.9987360239028931 -0.05022686347365379 
vn -0.001887861406430602 0.9987360239028931 -0.05022686347365379 
vn -0.001887861406430602 0.9987360239028931 -0.05022686347365379 
vn -0.001887861406430602 0.9987360239028931 -0.05022686347365379 
vn 0.005663556978106499 0.9987217783927917 -0.05022686347365379 
vn 0.005663556978106499 0.9987217783927917 -0.05022686347365379 
vn -1.0341130485562108e-13 0.999997615814209 0.002184694167226553 
vn 0.005663556978106499 0.9987217783927917 -0.05022686347365379 
vn 0.005663556978106499 0.9987217783927917 -0.05022686347365379 
vn 0.005663556978106499 0.9987217783927917 -0.05022686347365379 
vn 0.005663556978106499 0.9987217783927917 -0.05022686347365379 
vn 0.015098875388503075 0.9995972514152527 -0.024029340595006943 
vn 0.015098875388503075 0.9995972514152527 -0.024029340595006943 
vn -1.0341130485562108e-13 0.999997615814209 0.002184694167226553 
vn 0.015098875388503075 0.9995972514152527 -0.024029340595006943 
vn 0.015098875388503075 0.9995972514152527 -0.024029340595006943 
vn 0.022653724998235703 0.9997409582138062 -0.002184694167226553 
vn 0.022653724998235703 0.9997409582138062 -0.002184694167226553 
vn 0.015098875388503075 0.9995972514152527 0.024029340595006943 
vn 0.015098875388503075 0.9995972514152527 0.024029340595006943 
vn -1.0341130485562108e-13 0.999997615814209 0.002184694167226553 
vn 0.015098875388503075 0.9995972514152527 0.024029340595006943 
vn 0.015098875388503075 0.9995972514152527 0.024029340595006943 
vn 0.005663556978106499 0.9987217783927917 0.05022686347365379 
vn 0.005663556978106499 0.9987217783927917 0.05022686347365379 
vn 0.005663556978106499 0.9987217783927917 0.05022686347365379 
vn 0.005663556978106499 0.9987217783927917 0.05022686347365379 
vn -1.0341130485562108e-13 0.999997615814209 0.002184694167226553 
vn 0.005663556978106499 0.9987217783927917 0.05022686347365379 
vn 0.005663556978106499 0.9987217783927917 0.05022686347365379 
vn -0.001887861406430602 0.9987360239028931 0.05022686347365379 
vn -0.001887861406430602 0.9987360239028931 0.05022686347365379 
vn -0.001887861406430602 0.9987360239028931 0.05022686347365379 
vn -0.001887861406430602 0.9987360239028931 0.05022686347365379 
vn -1.0341130485562108e-13 0.999997615814209 0.002184694167226553 
vn -0.001887861406430602 0.9987360239028931 0.05022686347365379 
vn -0.001887861406430602 0.9987360239028931 0.05022686347365379 
vn -0.001887861406430602 0.9987360239028931 0.05022686347365379 
vn -0.001887861406430602 0.9987360239028931 0.05022686347365379 
vn -0.015098875388503075 0.9995972514152527 0.024029340595006943 
vn -0.015098875388503075 0.9995972514152527 0.024029340595006943 
vn -1.0341130485562108e-13 0.999997615814209 0.002184694167226553 
vn -0.015098875388503075 0.9995972514152527 0.024029340595006943 
vn -0.015098875388503075 0.9995972514152527 0.024029340595006943 
vn -0.022653724998235703 0.9997409582138062 0.002184694167226553 
vn -0.022653724998235703 0.9997409582138062 0.002184694167226553 
vn -0.015098875388503075 0.9995972514152527 -0.024029340595006943 
vn -0.015098875388503075 0.9995972514152527 -0.024029340595006943 
vn -1.0341130485562108e-13 0.999997615814209 0.002184694167226553 
vn -0.015098875388503075 0.9995972514152527 -0.024029340595006943 
vn -0.015098875388503075 0.9995972514152527 -0.024029340595006943 
vn -0.001887861406430602 0.9987360239028931 -0.05022686347365379 
vn -0.001887861406430602 0.9987360239028931 -0.05022686347365379 
vn -0.001887861406430602 0.9987360239028931 -0.05022686347365379 
vn -0.001887861406430602 0.9987360239028931 -0.05022686347365379 
vn -1.0341130485562108e-13 0.999997615814209 0.002184694167226553 
vt 0.5785973072052002 0.38335752487182617 
vt 0.5843417048454285 0.2813054621219635 
vt 0.5930144190788269 0.38335752487182617 
vt 0.59287428855896 0.28813332319259644 
vt 0.6069130897521973 0.38335752487182617 
vt 0.6014208793640137 0.2872798442840576 
vt 0.5926361083984375 0.133774995803833 
vt 0.5841175317764282 0.38335752487182617 
vt 0.5875081419944763 0.2872798442840576 
vt 0.5930144190788269 0.38335752487182617 
vt 0.5929723381996155 0.2828904986381531 
vt 0.60206538438797 0.38335752487182617 
vt 0.5985766649246216 0.2880114018917084 
vt 0.5929163098335266 0.133774995803833 
vt 0.578233003616333 0.38335752487182617 
vt 0.58368319272995 0.2880114018917084 
vt 0.5924819707870483 0.38335752487182617 
vt 0.5924959778785706 0.27959850430488586 
vt 0.6065908670425415 0.38335752487182617 
vt 0.601294755935669 0.28959643840789795 
vt 0.5924959778785706 0.133774995803833 
vt 0.5844117403030396 0.38335752487182617 
vt 0.5877183079719543 0.28959643840789795 
vt 0.593294620513916 0.38335752487182617 
vt 0.5932666063308716 0.2858167290687561 
vt 0.6026538014411926 0.38335752487182617 
vt 0.599165141582489 0.2913033962249756 
vt 0.5931965112686157 0.133774995803833 
vt 0.578443169593811 0.38335752487182617 
vt 0.5836131572723389 0.2913033962249756 
vt 0.5931825041770935 0.38335752487182617 
vt 0.5928882956504822 0.27959850430488586 
vt 0.6067450046539307 0.38335752487182617 
vt 0.6011967062950134 0.28630441427230835 
vt 0.5924819707870483 0.133774995803833 
vt 0.5838793516159058 0.38335752487182617 
vt 0.5875081419944763 0.28630441427230835 
vt 0.592523992061615 0.38335752487182617 
vt 0.5928182601928711 0.27752575278282166 
vt 0.6017851829528809 0.38335752487182617 
vt 0.5981563329696655 0.2778915464878082 
vt 0.5931965112686157 0.133774995803833 
vt 0.5785132050514221 0.38335752487182617 
vt 0.5845518708229065 0.2778915464878082 
vt 0.592734158039093 0.38335752487182617 
vt 0.5927621722221375 0.2689909338951111 
vt 0.606899082660675 0.38335752487182617 
vt 0.6009305119514465 0.2776476740837097 
vt 0.5928182601928711 0.133774995803833 
vt 0.5839353799819946 0.38335752487182617 
vt 0.5877743363380432 0.2776476740837097 
vt 0.5929303169250488 0.38335752487182617 
vt 0.5929723381996155 0.2747214436531067 
vt 0.6021774411201477 0.38335752487182617 
vt 0.5984225869178772 0.2813054621219635 
vt 0.5930004119873047 0.133774995803833 
s on 
f 1/1/1 2/2/2 3/3/3 
f 2/2/2 4/4/4 3/3/3 
f 3/3/3 4/4/4 5/5/5 
f 4/4/4 4/4/4 5/5/5 
f 5/5/5 4/4/4 6/6/6 
f 4/4/4 4/4/4 6/6/6 
f 6/6/6 4/4/4 7/7/7 
f 4/4/4 2/2/2 7/7/7 
f 7/7/7 2/2/2 2/2/2 
f 2/2/2 8/8/8 2/2/2 
f 2/2/2 8/8/8 8/8/8 
f 8/8/8 9/9/9 8/8/8 
f 8/8/8 9/9/9 10/10/10 
f 9/9/9 11/11/11 10/10/10 
f 10/10/10 11/11/11 12/12/12 
f 11/11/11 11/11/11 12/12/12 
f 12/12/12 11/11/11 13/13/13 
f 11/11/11 11/11/11 13/13/13 
f 13/13/13 11/11/11 14/14/14 
f 11/11/11 9/9/9 14/14/14 
f 14/14/14 9/9/9 9/9/9 
f 9/9/9 15/15/15 9/9/9 
f 9/9/9 15/15/15 15/15/15 
f 15/15/15 16/16/16 15/15/15 
f 15/15/15 16/16/16 17/17/17 
f 16/16/16 18/18/18 17/17/17 
f 17/17/17 18/18/18 19/19/19 
f 18/18/18 18/18/18 19/19/19 
f 19/19/19 18/18/18 20/20/20 
f 18/18/18 18/18/18 20/20/20 
f 20/20/20 18/18/18 21/21/21 
f 18/18/18 16/16/16 21/21/21 
f 21/21/21 16/16/16 16/16/16 
f 16/16/16 22/22/22 16/16/16 
f 16/16/16 22/22/22 22/22/22 
f 22/22/22 23/23/23 22/22/22 
f 22/22/22 23/23/23 24/24/24 
f 23/23/23 25/25/25 24/24/24 
f 24/24/24 25/25/25 26/26/26 
f 25/25/25 25/25/25 26/26/26 
f 26/26/26 25/25/25 27/27/27 
f 25/25/25 25/25/25 27/27/27 
f 27/27/27 25/25/25 28/28/28 
f 25/25/25 23/23/23 28/28/28 
f 28/28/28 23/23/23 23/23/23 
f 23/23/23 29/29/29 23/23/23 
f 23/23/23 29/29/29 29/29/29 
f 29/29/29 30/30/30 29/29/29 
f 29/29/29 30/30/30 31/31/31 
f 30/30/30 32/32/32 31/31/31 
f 31/31/31 32/32/32 33/33/33 
f 32/32/32 32/32/32 33/33/33 
f 33/33/33 32/32/32 34/34/34 
f 32/32/32 32/32/32 34/34/34 
f 34/34/34 32/32/32 35/35/35 
f 32/32/32 30/30/30 35/35/35 
f 35/35/35 30/30/30 30/30/30 
f 30/30/30 36/36/36 30/30/30 
f 30/30/30 36/36/36 36/36/36 
f 36/36/36 37/37/37 36/36/36 
f 36/36/36 37/37/37 38/38/38 
f 37/37/37 39/39/39 38/38/38 
f 38/38/38 39/39/39 40/40/40 
f 39/39/39 39/39/39 40/40/40 
f 40/40/40 39/39/39 41/41/41 
f 39/39/39 39/39/39 41/41/41 
f 41/41/41 39/39/39 42/42/42 
f 39/39/39 37/37/37 42/42/42 
f 42/42/42 37/37/37 37/37/37 
f 37/37/37 43/43/43 37/37/37 
f 37/37/37 43/43/43 43/43/43 
f 43/43/43 44/44/44 43/43/43 
f 43/43/43 44/44/44 45/45/45 
f 44/44/44 46/46/46 45/45/45 
f 45/45/45 46/46/46 47/47/47 
f 46/46/46 46/46/46 47/47/47 
f 47/47/47 46/46/46 48/48/48 
f 46/46/46 46/46/46 48/48/48 
f 48/48/48 46/46/46 49/49/49 
f 46/46/46 44/44/44 49/49/49 
f 49/49/49 44/44/44 44/44/44 
f 44/44/44 50/50/50 44/44/44 
f 44/44/44 50/50/50 50/50/50 
f 50/50/50 51/51/51 50/50/50 
f 50/50/50 51/51/51 52/52/52 
f 51/51/51 53/53/53 52/52/52 
f 52/52/52 53/53/53 54/54/54 
f 53/53/53 53/53/53 54/54/54 
f 54/54/54 53/53/53 55/55/55 
f 53/53/53 53/53/53 55/55/55 
f 55/55/55 53/53/53 56/56/56 
f 53/53/53 51/51/51 56/56/56 

