mtllib model_25.mtl
o model_25
v -17.916248321533203 69.82717895507812 -12.003291130065918 
v -20.003173828125 69.82717895507812 0.17044399678707123 
v -5.742513179779053 94.6797103881836 0.17044399678707123 
v -17.916248321533203 69.82717895507812 11.996357917785645 
v -19.655353546142578 61.735652923583984 13.73546314239502 
v -22.090099334716797 61.735652923583984 0.17044399678707123 
v -22.090099334716797 7.406847953796387 0.17044399678707123 
v -19.655353546142578 7.406847953796387 -13.742396354675293 
v -17.916248321533203 0.47125598788261414 0.17044399678707123 
v -15.82932186126709 0.47125598788261414 -10.264185905456543 
v -19.655353546142578 61.735652923583984 -13.742396354675293 
v -19.655353546142578 7.406847953796387 13.73546314239502 
v -15.82932186126709 0.47125598788261414 10.25725269317627 
v -12.003291130065918 69.82717895507812 17.90931510925293 
v 0.17044399678707123 69.82717895507812 19.996240615844727 
v 0.17044399678707123 94.6797103881836 5.735579967498779 
v 11.996357917785645 69.82717895507812 17.90931510925293 
v 13.73546314239502 61.735652923583984 19.648420333862305 
v 0.17044399678707123 61.735652923583984 22.083166122436523 
v 0.17044399678707123 7.406847953796387 22.083166122436523 
v -13.742396354675293 7.406847953796387 19.648420333862305 
v 0.17044399678707123 0.47125598788261414 17.90931510925293 
v -9.916364669799805 0.47125598788261414 15.822388648986816 
v -13.742396354675293 61.735652923583984 19.648420333862305 
v 13.73546314239502 7.406847953796387 19.648420333862305 
v 9.909432411193848 0.47125598788261414 15.822388648986816 
v 17.90931510925293 69.82717895507812 11.996357917785645 
v 19.996240615844727 69.82717895507812 0.17044399678707123 
v 5.735579967498779 94.6797103881836 0.17044399678707123 
v 17.90931510925293 69.82717895507812 -12.003291130065918 
v 19.648420333862305 61.735652923583984 -13.742396354675293 
v 22.083166122436523 61.735652923583984 0.17044399678707123 
v 22.083166122436523 7.406847953796387 0.17044399678707123 
v 19.648420333862305 7.406847953796387 13.73546314239502 
v 17.90931510925293 0.47125598788261414 0.17044399678707123 
v 15.822388648986816 0.47125598788261414 10.25725269317627 
v 19.648420333862305 61.735652923583984 13.73546314239502 
v 19.648420333862305 7.406847953796387 -13.742396354675293 
v 15.822388648986816 0.47125598788261414 -10.264185905456543 
v 11.996357917785645 69.82717895507812 -17.916248321533203 
v 0.17044399678707123 69.82717895507812 -20.003173828125 
v 0.17044399678707123 94.6797103881836 -5.742513179779053 
v -12.003291130065918 69.82717895507812 -17.916248321533203 
v -13.742396354675293 61.735652923583984 -19.655353546142578 
v 0.17044399678707123 61.735652923583984 -22.090099334716797 
v 0.17044399678707123 7.406847953796387 -22.090099334716797 
v 13.73546314239502 7.406847953796387 -19.655353546142578 
v 0.17044399678707123 0.47125598788261414 -17.916248321533203 
v 9.909432411193848 0.47125598788261414 -15.82932186126709 
v 13.73546314239502 61.735652923583984 -19.655353546142578 
v -13.742396354675293 7.406847953796387 -19.655353546142578 
v -9.916364669799805 0.47125598788261414 -15.82932186126709 
v -9.916364669799805 0.47125598788261414 -15.82932186126709 
v -15.82932186126709 0.47125598788261414 -10.264185905456543 
v -13.742396354675293 7.406847953796387 -19.655353546142578 
v -19.655353546142578 7.406847953796387 -13.742396354675293 
v -19.655353546142578 61.735652923583984 -13.742396354675293 
v -13.742396354675293 61.735652923583984 -19.655353546142578 
v -12.003291130065918 69.82717895507812 -17.916248321533203 
v -17.916248321533203 69.82717895507812 -12.003291130065918 
v -5.742513179779053 94.6797103881836 0.17044399678707123 
v 0.17044399678707123 94.6797103881836 -5.742513179779053 
v 0.17044399678707123 94.6797103881836 5.735579967498779 
v -17.916248321533203 69.82717895507812 11.996357917785645 
v -12.003291130065918 69.82717895507812 17.90931510925293 
v -13.742396354675293 61.735652923583984 19.648420333862305 
v -19.655353546142578 61.735652923583984 13.73546314239502 
v -19.655353546142578 7.406847953796387 13.73546314239502 
v -13.742396354675293 7.406847953796387 19.648420333862305 
v -9.916364669799805 0.47125598788261414 15.822388648986816 
v -15.82932186126709 0.47125598788261414 10.25725269317627 
v -5.742513179779053 94.6797103881836 0.17044399678707123 
v 0.17044399678707123 94.6797103881836 5.735579967498779 
v 0.17044399678707123 94.6797103881836 -5.742513179779053 
v 5.735579967498779 94.6797103881836 0.17044399678707123 
v 15.822388648986816 0.47125598788261414 -10.264185905456543 
v 9.909432411193848 0.47125598788261414 -15.82932186126709 
v 19.648420333862305 7.406847953796387 -13.742396354675293 
v 13.73546314239502 7.406847953796387 -19.655353546142578 
v 13.73546314239502 61.735652923583984 -19.655353546142578 
v 19.648420333862305 61.735652923583984 -13.742396354675293 
v 17.90931510925293 69.82717895507812 -12.003291130065918 
v 11.996357917785645 69.82717895507812 -17.916248321533203 
v 0.17044399678707123 94.6797103881836 -5.742513179779053 
v 5.735579967498779 94.6797103881836 0.17044399678707123 
v 0.17044399678707123 94.6797103881836 5.735579967498779 
v 11.996357917785645 69.82717895507812 17.90931510925293 
v 17.90931510925293 69.82717895507812 11.996357917785645 
v 19.648420333862305 61.735652923583984 13.73546314239502 
v 13.73546314239502 61.735652923583984 19.648420333862305 
v 13.73546314239502 7.406847953796387 19.648420333862305 
v 19.648420333862305 7.406847953796387 13.73546314239502 
v 15.822388648986816 0.47125598788261414 10.25725269317627 
v 9.909432411193848 0.47125598788261414 15.822388648986816 
v 0.17044399678707123 0.47125598788261414 -17.916248321533203 
v 9.909432411193848 0.47125598788261414 -15.82932186126709 
v -9.916364669799805 0.47125598788261414 -15.82932186126709 
v 15.822388648986816 0.47125598788261414 -10.264185905456543 
v -15.82932186126709 0.47125598788261414 -10.264185905456543 
v 17.90931510925293 0.47125598788261414 0.17044399678707123 
v -17.916248321533203 0.47125598788261414 0.17044399678707123 
v 15.822388648986816 0.47125598788261414 10.25725269317627 
v -15.82932186126709 0.47125598788261414 10.25725269317627 
v 9.909432411193848 0.47125598788261414 15.822388648986816 
v -9.916364669799805 0.47125598788261414 15.822388648986816 
v 0.17044399678707123 0.47125598788261414 17.90931510925293 
vn -0.7749021649360657 0.46411430835723877 -0.42909738421440125 
vn -0.9149710536003113 0.4035136103630066 -0.002184694167226553 
vn -0.6909050345420837 0.7229422330856323 -0.002184694167226553 
vn -0.7732916474342346 0.4667927324771881 0.42909738421440125 
vn -0.9169268012046814 0.03772559016942978 0.3972681760787964 
vn -0.9995414018630981 0.0302029550075531 -0.002184694167226553 
vn -0.998173177242279 -0.06037835404276848 -0.002184694167226553 
vn -0.9134369492530823 -0.06791164726018906 -0.401274174451828 
vn -0.0904986634850502 -0.995894193649292 -0.002184694167226553 
vn -0.08293090015649796 -0.9960165619850159 -0.03276457265019417 
vn -0.9170725345611572 0.033999331295490265 -0.3972681760787964 
vn -0.9137150645256042 -0.06406120955944061 0.401274174451828 
vn -0.08293090015649796 -0.9960165619850159 0.03276457265019417 
vn -0.42438390851020813 0.46569156646728516 0.7765498161315918 
vn 0.0018797018565237522 0.4032699465751648 0.9150791168212891 
vn -0.001883754855953157 0.7231374382972717 0.6907016038894653 
vn 0.4305749833583832 0.4691930115222931 0.7710143327713013 
vn 0.40152326226234436 0.03753974661231041 0.9150791168212891 
vn -0.0017781255301088095 0.030529234558343887 0.9995322823524475 
vn 0.0018196178134530783 -0.056742385029792786 0.9983872175216675 
vn -0.394148051738739 -0.06376173347234726 0.916832447052002 
vn 0.0018864526646211743 -0.9955888986587524 0.09380380809307098 
vn -0.0339476615190506 -0.9961564540863037 0.08074574917554855 
vn -0.3897833526134491 0.03378719463944435 0.9202865362167358 
vn 0.4056790769100189 -0.06749487668275833 0.9115201234817505 
vn 0.03395935520529747 -0.9964995384216309 0.0763898640871048 
vn 0.7732916474342346 0.4667927324771881 0.42909738421440125 
vn 0.9149710536003113 0.4035136103630066 0.002184694167226553 
vn 0.6909050345420837 0.7229422330856323 0.002184694167226553 
vn 0.7729538679122925 0.4673518240451813 -0.42909738421440125 
vn 0.917204737663269 0.03022308088839054 -0.3972681760787964 
vn 0.9995414018630981 0.0302029550075531 0.002184694167226553 
vn 0.998173177242279 -0.06037835404276848 0.002184694167226553 
vn 0.9134435653686523 -0.06782280653715134 0.401274174451828 
vn 0.0904986634850502 -0.995894193649292 0.002184694167226553 
vn 0.08293090015649796 -0.9960165619850159 0.03276457265019417 
vn 0.9169268012046814 0.03772559016942978 0.3972681760787964 
vn 0.9134369492530823 -0.06791164726018906 -0.401274174451828 
vn 0.08293090015649796 -0.9960165619850159 -0.03276457265019417 
vn 0.43466198444366455 0.4654093384742737 -0.7710143327713013 
vn -0.0018909238278865814 0.40326988697052 -0.9150791168212891 
vn 0.0018900235882028937 0.723137378692627 -0.6907016038894653 
vn -0.4264325797557831 0.4638163447380066 -0.7765498161315918 
vn -0.38976532220840454 0.03399459272623062 -0.9202865362167358 
vn 0.001920195179991424 0.03052062913775444 -0.9995322823524475 
vn -0.0018970201490446925 -0.05673984810709953 -0.9983872175216675 
vn 0.40564650297164917 -0.06769043207168579 -0.9115201234817505 
vn 0.0018864526646211743 -0.9955888986587524 -0.09380380809307098 
vn 0.03395935520529747 -0.9964995384216309 -0.0763898640871048 
vn 0.4015023112297058 0.03776320815086365 -0.9150791168212891 
vn -0.3934943974018097 -0.06767860054969788 -0.916832447052002 
vn -0.03587605804204941 -0.9960888624191284 -0.08074574917554855 
vn -0.03587605804204941 -0.9960888624191284 -0.08074574917554855 
vn -0.08293090015649796 -0.9960165619850159 -0.03276457265019417 
vn -0.3934943974018097 -0.06767860054969788 -0.916832447052002 
vn -0.9134369492530823 -0.06791164726018906 -0.401274174451828 
vn -0.9170725345611572 0.033999331295490265 -0.3972681760787964 
vn -0.38976532220840454 0.03399459272623062 -0.9202865362167358 
vn -0.4264325797557831 0.4638163447380066 -0.7765498161315918 
vn -0.7749021649360657 0.46411430835723877 -0.42909738421440125 
vn -0.6909050345420837 0.7229422330856323 -0.002184694167226553 
vn 0.0018900235882028937 0.723137378692627 -0.6907016038894653 
vn -0.001883754855953157 0.7231374382972717 0.6907016038894653 
vn -0.7732916474342346 0.4667927324771881 0.42909738421440125 
vn -0.42438390851020813 0.46569156646728516 0.7765498161315918 
vn -0.3897833526134491 0.03378719463944435 0.9202865362167358 
vn -0.9169268012046814 0.03772559016942978 0.3972681760787964 
vn -0.9137150645256042 -0.06406120955944061 0.401274174451828 
vn -0.394148051738739 -0.06376173347234726 0.916832447052002 
vn -0.0339476615190506 -0.9961564540863037 0.08074574917554855 
vn -0.08293090015649796 -0.9960165619850159 0.03276457265019417 
vn -0.6909050345420837 0.7229422330856323 -0.002184694167226553 
vn -0.001883754855953157 0.7231374382972717 0.6907016038894653 
vn 0.0018900235882028937 0.723137378692627 -0.6907016038894653 
vn 0.6909050345420837 0.7229422330856323 0.002184694167226553 
vn 0.08293090015649796 -0.9960165619850159 -0.03276457265019417 
vn 0.03395935520529747 -0.9964995384216309 -0.0763898640871048 
vn 0.9134369492530823 -0.06791164726018906 -0.401274174451828 
vn 0.40564650297164917 -0.06769043207168579 -0.9115201234817505 
vn 0.4015023112297058 0.03776320815086365 -0.9150791168212891 
vn 0.917204737663269 0.03022308088839054 -0.3972681760787964 
vn 0.7729538679122925 0.4673518240451813 -0.42909738421440125 
vn 0.43466198444366455 0.4654093384742737 -0.7710143327713013 
vn 0.0018900235882028937 0.723137378692627 -0.6907016038894653 
vn 0.6909050345420837 0.7229422330856323 0.002184694167226553 
vn -0.001883754855953157 0.7231374382972717 0.6907016038894653 
vn 0.4305749833583832 0.4691930115222931 0.7710143327713013 
vn 0.7732916474342346 0.4667927324771881 0.42909738421440125 
vn 0.9169268012046814 0.03772559016942978 0.3972681760787964 
vn 0.40152326226234436 0.03753974661231041 0.9150791168212891 
vn 0.4056790769100189 -0.06749487668275833 0.9115201234817505 
vn 0.9134435653686523 -0.06782280653715134 0.401274174451828 
vn 0.08293090015649796 -0.9960165619850159 0.03276457265019417 
vn 0.03395935520529747 -0.9964995384216309 0.0763898640871048 
vn 0.0018864526646211743 -0.9955888986587524 -0.09380380809307098 
vn 0.03395935520529747 -0.9964995384216309 -0.0763898640871048 
vn -0.03587605804204941 -0.9960888624191284 -0.08074574917554855 
vn 0.08293090015649796 -0.9960165619850159 -0.03276457265019417 
vn -0.08293090015649796 -0.9960165619850159 -0.03276457265019417 
vn 0.0904986634850502 -0.995894193649292 0.002184694167226553 
vn -0.0904986634850502 -0.995894193649292 -0.002184694167226553 
vn 0.08293090015649796 -0.9960165619850159 0.03276457265019417 
vn -0.08293090015649796 -0.9960165619850159 0.03276457265019417 
vn 0.03395935520529747 -0.9964995384216309 0.0763898640871048 
vn -0.0339476615190506 -0.9961564540863037 0.08074574917554855 
vn 0.0018864526646211743 -0.9955888986587524 0.09380380809307098 
vt 0.15600501000881195 0.30196431279182434 
vt 0.1591678410768509 0.30196431279182434 
vt 0.15913382172584534 0.4103315770626068 
vt 0.16234765946865082 0.30196431279182434 
vt 0.16272175312042236 0.27306637167930603 
vt 0.15918484330177307 0.27338048815727234 
vt 0.15918484330177307 0.2228090912103653 
vt 0.1555458903312683 0.2228090912103653 
vt 0.1591678410768509 0.19296883046627045 
vt 0.15648113191127777 0.19296883046627045 
vt 0.1555458903312683 0.27306637167930603 
vt 0.16272175312042236 0.2228090912103653 
vt 0.1617865115404129 0.19296883046627045 
vt 0.16469426453113556 0.30196431279182434 
vt 0.16780607402324677 0.30196431279182434 
vt 0.16784007847309113 0.4103315770626068 
vt 0.17103689908981323 0.30196431279182434 
vt 0.17142800986766815 0.27306637167930603 
vt 0.16778907179832458 0.27338048815727234 
vt 0.16778907179832458 0.2228090912103653 
vt 0.1642521470785141 0.2228090912103653 
vt 0.16780607402324677 0.19296883046627045 
vt 0.16527241468429565 0.19296883046627045 
vt 0.1642521470785141 0.27306637167930603 
vt 0.17142800986766815 0.2228090912103653 
vt 0.1704077422618866 0.19296883046627045 
vt 0.13859251141548157 0.30196431279182434 
vt 0.1418403536081314 0.30196431279182434 
vt 0.14173832535743713 0.4103315770626068 
vt 0.14495216310024261 0.30196431279182434 
vt 0.14532625675201416 0.27306637167930603 
vt 0.1418573558330536 0.27338048815727234 
vt 0.1418573558330536 0.2228090912103653 
vt 0.13813339173793793 0.2228090912103653 
vt 0.14182335138320923 0.19296883046627045 
vt 0.13908563554286957 0.19296883046627045 
vt 0.13813339173793793 0.27306637167930603 
vt 0.14532625675201416 0.2228090912103653 
vt 0.14437401294708252 0.19296883046627045 
vt 0.14729876816272736 0.30196431279182434 
vt 0.15044458210468292 0.30196431279182434 
vt 0.15042757987976074 0.4103315770626068 
vt 0.15364140272140503 0.30196431279182434 
vt 0.15403249859809875 0.27306637167930603 
vt 0.15044458210468292 0.27338048815727234 
vt 0.15044458210468292 0.2228090912103653 
vt 0.14683964848518372 0.2228090912103653 
vt 0.15044458210468292 0.19296883046627045 
vt 0.14785990118980408 0.19296883046627045 
vt 0.14683964848518372 0.27306637167930603 
vt 0.15403249859809875 0.2228090912103653 
vt 0.1530122458934784 0.19296883046627045 
vt 0.15496774017810822 0.23914270102977753 
vt 0.15648113191127777 0.23914270102977753 
vt 0.15403249859809875 0.26898297667503357 
vt 0.1555458903312683 0.26898297667503357 
vt 0.1555458903312683 0.3192402422428131 
vt 0.15403249859809875 0.3192402422428131 
vt 0.1544916182756424 0.34766700863838196 
vt 0.15600501000881195 0.34766700863838196 
vt 0.15913382172584534 0.4565054476261139 
vt 0.15767145156860352 0.4565054476261139 
vt 0.16059620678424835 0.4565054476261139 
vt 0.1622796356678009 0.34766700863838196 
vt 0.16377602517604828 0.34766700863838196 
vt 0.1642521470785141 0.3192402422428131 
vt 0.16272175312042236 0.3192402422428131 
vt 0.16272175312042236 0.26898297667503357 
vt 0.1642521470785141 0.26898297667503357 
vt 0.16329990327358246 0.23914270102977753 
vt 0.1617865115404129 0.23914270102977753 
vt 0.14054802060127258 0.49168553948402405 
vt 0.14054802060127258 0.4887015223503113 
vt 0.14262256026268005 0.49168553948402405 
vt 0.14262256026268005 0.4887015223503113 
vt 0.14437401294708252 0.23914270102977753 
vt 0.14588740468025208 0.23914270102977753 
vt 0.14532625675201416 0.26898297667503357 
vt 0.14683964848518372 0.26898297667503357 
vt 0.14683964848518372 0.3192402422428131 
vt 0.14532625675201416 0.3192402422428131 
vt 0.14486713707447052 0.34766700863838196 
vt 0.14638052880764008 0.34766700863838196 
vt 0.14320069551467896 0.4565054476261139 
vt 0.14173832535743713 0.4565054476261139 
vt 0.14025893807411194 0.4565054476261139 
vt 0.137079119682312 0.34766700863838196 
vt 0.13859251141548157 0.34766700863838196 
vt 0.13813339173793793 0.3192402422428131 
vt 0.13662000000476837 0.3192402422428131 
vt 0.13662000000476837 0.26898297667503357 
vt 0.13813339173793793 0.26898297667503357 
vt 0.13908563554286957 0.23914270102977753 
vt 0.1375722438097 0.23914270102977753 
vt 0.15848766267299652 0.1723947525024414 
vt 0.15848766267299652 0.1709812730550766 
vt 0.15848766267299652 0.17365118861198425 
vt 0.16000105440616608 0.17019599676132202 
vt 0.16000105440616608 0.1745935082435608 
vt 0.16255171597003937 0.17019599676132202 
vt 0.16267074644565582 0.1745935082435608 
vt 0.16528941690921783 0.17019599676132202 
vt 0.16528941690921783 0.1745935082435608 
vt 0.1668028086423874 0.1709812730550766 
vt 0.1668028086423874 0.17365118861198425 
vt 0.1668028086423874 0.1723947525024414 
s on 
f 1/1/1 2/2/2 3/3/3 
f 2/2/2 2/2/2 3/3/3 
f 3/3/3 2/2/2 4/4/4 
f 2/2/2 2/2/2 4/4/4 
f 4/4/4 2/2/2 5/5/5 
f 2/2/2 6/6/6 5/5/5 
f 5/5/5 6/6/6 7/7/7 
f 6/6/6 8/8/8 7/7/7 
f 7/7/7 8/8/8 9/9/9 
f 8/8/8 10/10/10 9/9/9 
f 9/9/9 10/10/10 10/10/10 
f 10/10/10 2/2/2 10/10/10 
f 10/10/10 2/2/2 2/2/2 
f 2/2/2 1/1/1 2/2/2 
f 2/2/2 1/1/1 6/6/6 
f 1/1/1 11/11/11 6/6/6 
f 6/6/6 11/11/11 8/8/8 
f 11/11/11 8/8/8 8/8/8 
f 8/8/8 8/8/8 5/5/5 
f 8/8/8 5/5/5 5/5/5 
f 5/5/5 5/5/5 12/12/12 
f 5/5/5 7/7/7 12/12/12 
f 12/12/12 7/7/7 13/13/13 
f 7/7/7 9/9/9 13/13/13 
f 13/13/13 9/9/9 9/9/9 
f 9/9/9 14/14/14 9/9/9 
f 9/9/9 14/14/14 14/14/14 
f 14/14/14 15/15/15 14/14/14 
f 14/14/14 15/15/15 16/16/16 
f 15/15/15 15/15/15 16/16/16 
f 16/16/16 15/15/15 17/17/17 
f 15/15/15 15/15/15 17/17/17 
f 17/17/17 15/15/15 18/18/18 
f 15/15/15 19/19/19 18/18/18 
f 18/18/18 19/19/19 20/20/20 
f 19/19/19 21/21/21 20/20/20 
f 20/20/20 21/21/21 22/22/22 
f 21/21/21 23/23/23 22/22/22 
f 22/22/22 23/23/23 23/23/23 
f 23/23/23 15/15/15 23/23/23 
f 23/23/23 15/15/15 15/15/15 
f 15/15/15 14/14/14 15/15/15 
f 15/15/15 14/14/14 19/19/19 
f 14/14/14 24/24/24 19/19/19 
f 19/19/19 24/24/24 21/21/21 
f 24/24/24 21/21/21 21/21/21 
f 21/21/21 21/21/21 18/18/18 
f 21/21/21 18/18/18 18/18/18 
f 18/18/18 18/18/18 25/25/25 
f 18/18/18 20/20/20 25/25/25 
f 25/25/25 20/20/20 26/26/26 
f 20/20/20 22/22/22 26/26/26 
f 26/26/26 22/22/22 22/22/22 
f 22/22/22 27/27/27 22/22/22 
f 22/22/22 27/27/27 27/27/27 
f 27/27/27 28/28/28 27/27/27 
f 27/27/27 28/28/28 29/29/29 
f 28/28/28 28/28/28 29/29/29 
f 29/29/29 28/28/28 30/30/30 
f 28/28/28 28/28/28 30/30/30 
f 30/30/30 28/28/28 31/31/31 
f 28/28/28 32/32/32 31/31/31 
f 31/31/31 32/32/32 33/33/33 
f 32/32/32 34/34/34 33/33/33 
f 33/33/33 34/34/34 35/35/35 
f 34/34/34 36/36/36 35/35/35 
f 35/35/35 36/36/36 36/36/36 
f 36/36/36 28/28/28 36/36/36 
f 36/36/36 28/28/28 28/28/28 
f 28/28/28 27/27/27 28/28/28 
f 28/28/28 27/27/27 32/32/32 
f 27/27/27 37/37/37 32/32/32 
f 32/32/32 37/37/37 34/34/34 
f 37/37/37 34/34/34 34/34/34 
f 34/34/34 34/34/34 31/31/31 
f 34/34/34 31/31/31 31/31/31 
f 31/31/31 31/31/31 38/38/38 
f 31/31/31 33/33/33 38/38/38 
f 38/38/38 33/33/33 39/39/39 
f 33/33/33 35/35/35 39/39/39 
f 39/39/39 35/35/35 35/35/35 
f 35/35/35 40/40/40 35/35/35 
f 35/35/35 40/40/40 40/40/40 
f 40/40/40 41/41/41 40/40/40 
f 40/40/40 41/41/41 42/42/42 
f 41/41/41 41/41/41 42/42/42 
f 42/42/42 41/41/41 43/43/43 
f 41/41/41 41/41/41 43/43/43 
f 43/43/43 41/41/41 44/44/44 
f 41/41/41 45/45/45 44/44/44 
f 44/44/44 45/45/45 46/46/46 
f 45/45/45 47/47/47 46/46/46 
f 46/46/46 47/47/47 48/48/48 
f 47/47/47 49/49/49 48/48/48 
f 48/48/48 49/49/49 49/49/49 
f 49/49/49 41/41/41 49/49/49 
f 49/49/49 41/41/41 41/41/41 
f 41/41/41 40/40/40 41/41/41 
f 41/41/41 40/40/40 45/45/45 
f 40/40/40 50/50/50 45/45/45 
f 45/45/45 50/50/50 47/47/47 
f 50/50/50 47/47/47 47/47/47 
f 47/47/47 47/47/47 44/44/44 
f 47/47/47 44/44/44 44/44/44 
f 44/44/44 44/44/44 51/51/51 
f 44/44/44 46/46/46 51/51/51 
f 51/51/51 46/46/46 52/52/52 
f 46/46/46 48/48/48 52/52/52 
f 52/52/52 48/48/48 48/48/48 
f 48/48/48 53/53/53 48/48/48 
f 48/48/48 53/53/53 53/53/53 
f 53/53/53 54/54/54 53/53/53 
f 53/53/53 54/54/54 55/55/55 
f 54/54/54 56/56/56 55/55/55 
f 55/55/55 56/56/56 55/55/55 
f 56/56/56 57/57/57 55/55/55 
f 55/55/55 57/57/57 58/58/58 
f 57/57/57 57/57/57 58/58/58 
f 58/58/58 57/57/57 59/59/59 
f 57/57/57 60/60/60 59/59/59 
f 59/59/59 60/60/60 59/59/59 
f 60/60/60 61/61/61 59/59/59 
f 59/59/59 61/61/61 62/62/62 
f 61/61/61 62/62/62 62/62/62 
f 62/62/62 62/62/62 61/61/61 
f 62/62/62 61/61/61 61/61/61 
f 61/61/61 61/61/61 63/63/63 
f 61/61/61 64/64/64 63/63/63 
f 63/63/63 64/64/64 65/65/65 
f 64/64/64 64/64/64 65/65/65 
f 65/65/65 64/64/64 66/66/66 
f 64/64/64 67/67/67 66/66/66 
f 66/66/66 67/67/67 66/66/66 
f 67/67/67 68/68/68 66/66/66 
f 66/66/66 68/68/68 69/69/69 
f 68/68/68 68/68/68 69/69/69 
f 69/69/69 68/68/68 70/70/70 
f 68/68/68 71/71/71 70/70/70 
f 70/70/70 71/71/71 71/71/71 
f 71/71/71 72/72/72 71/71/71 
f 71/71/71 72/72/72 72/72/72 
f 72/72/72 73/73/73 72/72/72 
f 72/72/72 73/73/73 74/74/74 
f 73/73/73 75/75/75 74/74/74 
f 74/74/74 75/75/75 75/75/75 
f 75/75/75 76/76/76 75/75/75 
f 75/75/75 76/76/76 76/76/76 
f 76/76/76 77/77/77 76/76/76 
f 76/76/76 77/77/77 78/78/78 
f 77/77/77 79/79/79 78/78/78 
f 78/78/78 79/79/79 78/78/78 
f 79/79/79 80/80/80 78/78/78 
f 78/78/78 80/80/80 81/81/81 
f 80/80/80 80/80/80 81/81/81 
f 81/81/81 80/80/80 82/82/82 
f 80/80/80 83/83/83 82/82/82 
f 82/82/82 83/83/83 82/82/82 
f 83/83/83 84/84/84 82/82/82 
f 82/82/82 84/84/84 85/85/85 
f 84/84/84 85/85/85 85/85/85 
f 85/85/85 85/85/85 86/86/86 
f 85/85/85 86/86/86 86/86/86 
f 86/86/86 86/86/86 85/85/85 
f 86/86/86 87/87/87 85/85/85 
f 85/85/85 87/87/87 88/88/88 
f 87/87/87 87/87/87 88/88/88 
f 88/88/88 87/87/87 89/89/89 
f 87/87/87 90/90/90 89/89/89 
f 89/89/89 90/90/90 89/89/89 
f 90/90/90 91/91/91 89/89/89 
f 89/89/89 91/91/91 92/92/92 
f 91/91/91 91/91/91 92/92/92 
f 92/92/92 91/91/91 93/93/93 
f 91/91/91 94/94/94 93/93/93 
f 93/93/93 94/94/94 94/94/94 
f 94/94/94 95/95/95 94/94/94 
f 94/94/94 95/95/95 95/95/95 
f 95/95/95 96/96/96 95/95/95 
f 95/95/95 96/96/96 97/97/97 
f 96/96/96 98/98/98 97/97/97 
f 97/97/97 98/98/98 99/99/99 
f 98/98/98 100/100/100 99/99/99 
f 99/99/99 100/100/100 101/101/101 
f 100/100/100 102/102/102 101/101/101 
f 101/101/101 102/102/102 103/103/103 
f 102/102/102 104/104/104 103/103/103 
f 103/103/103 104/104/104 105/105/105 
f 104/104/104 106/106/106 105/105/105 

