mtllib model_27.mtl
o model_27
v -29.327680587768555 45.410221099853516 15.075061798095703 
v -23.297677993774414 45.410221099853516 23.297792434692383 
v -15.623129844665527 38.231666564941406 16.17142677307129 
v -15.07494831085205 45.410221099853516 29.32779312133789 
v 15.075061798095703 45.410221099853516 29.32779312133789 
v 15.623244285583496 38.231666564941406 16.17142677307129 
v 23.297792434692383 45.410221099853516 23.297792434692383 
v 29.32779312133789 45.410221099853516 15.075061798095703 
v 29.32779312133789 45.410221099853516 -14.526765823364258 
v 15.623244285583496 38.231666564941406 -15.623129844665527 
v 23.297792434692383 45.410221099853516 -23.297677993774414 
v 15.075061798095703 45.410221099853516 -29.327680587768555 
v -15.07494831085205 45.410221099853516 -29.327680587768555 
v -15.623129844665527 38.231666564941406 -15.623129844665527 
v -23.297677993774414 45.410221099853516 -23.297677993774414 
v -29.327680587768555 45.410221099853516 -14.526765823364258 
v -15.07494831085205 39.700008392333984 34.80961227416992 
v -23.297677993774414 45.410221099853516 23.297792434692383 
v -26.03858757019043 39.700008392333984 26.0387020111084 
v -29.327680587768555 45.410221099853516 15.075061798095703 
v -34.80950164794922 39.700008392333984 15.075061798095703 
v -29.327680587768555 45.410221099853516 -14.526765823364258 
v -34.80950164794922 39.863155364990234 -14.526765823364258 
v -23.297677993774414 45.410221099853516 -23.297677993774414 
v -26.03858757019043 39.700008392333984 -26.03858757019043 
v -15.07494831085205 45.410221099853516 -29.327680587768555 
v -15.07494831085205 39.700008392333984 -34.80950164794922 
v 15.075061798095703 45.410221099853516 -29.327680587768555 
v 15.075061798095703 39.700008392333984 -34.80950164794922 
v -15.07494831085205 45.410221099853516 29.32779312133789 
v 15.075061798095703 39.700008392333984 34.80961227416992 
v 15.075061798095703 45.410221099853516 29.32779312133789 
v 15.075061798095703 39.700008392333984 34.80961227416992 
v 15.075061798095703 45.410221099853516 29.32779312133789 
v 26.0387020111084 39.700008392333984 26.0387020111084 
v 23.297792434692383 45.410221099853516 23.297792434692383 
v 34.80961227416992 39.700008392333984 15.075061798095703 
v 29.32779312133789 45.410221099853516 15.075061798095703 
v 34.80961227416992 39.700008392333984 -14.526765823364258 
v 29.32779312133789 45.410221099853516 -14.526765823364258 
v 26.0387020111084 39.700008392333984 -26.03858757019043 
v 23.297792434692383 45.410221099853516 -23.297677993774414 
v 15.075061798095703 39.700008392333984 -34.80950164794922 
v 15.075061798095703 45.410221099853516 -29.327680587768555 
v -15.07494831085205 24.69029998779297 34.80961227416992 
v -26.03858757019043 25.016597747802734 26.0387020111084 
v -15.07494831085205 39.700008392333984 34.80961227416992 
v -26.03858757019043 39.700008392333984 26.0387020111084 
v -34.80950164794922 39.700008392333984 15.075061798095703 
v -34.80950164794922 25.3428955078125 15.075061798095703 
v -34.80950164794922 25.3428955078125 -14.526765823364258 
v -34.80950164794922 39.863155364990234 -14.526765823364258 
v -26.03858757019043 25.016597747802734 -26.03858757019043 
v -26.03858757019043 39.700008392333984 -26.03858757019043 
v -15.07494831085205 39.700008392333984 -34.80950164794922 
v -15.07494831085205 24.69029998779297 -34.80950164794922 
v 15.075061798095703 24.69029998779297 -34.80950164794922 
v 15.075061798095703 39.700008392333984 -34.80950164794922 
v 15.075061798095703 24.69029998779297 -34.80950164794922 
v 15.075061798095703 39.700008392333984 -34.80950164794922 
v 26.0387020111084 25.016597747802734 -26.03858757019043 
v 26.0387020111084 39.700008392333984 -26.03858757019043 
v 34.80961227416992 25.3428955078125 -14.526765823364258 
v 34.80961227416992 39.700008392333984 -14.526765823364258 
v 34.80961227416992 39.700008392333984 15.075061798095703 
v 34.80961227416992 25.3428955078125 15.075061798095703 
v 26.0387020111084 25.016597747802734 26.0387020111084 
v 26.0387020111084 39.700008392333984 26.0387020111084 
v 15.075061798095703 24.69029998779297 34.80961227416992 
v 15.075061798095703 39.700008392333984 34.80961227416992 
v -15.07494831085205 24.69029998779297 34.80961227416992 
v -15.07494831085205 39.700008392333984 34.80961227416992 
v -15.07494831085205 24.69029998779297 -34.80950164794922 
v 15.075061798095703 24.69029998779297 -34.80950164794922 
v -26.03858757019043 25.016597747802734 -26.03858757019043 
v 26.0387020111084 25.016597747802734 -26.03858757019043 
v -34.80950164794922 25.3428955078125 -14.526765823364258 
v 34.80961227416992 25.3428955078125 -14.526765823364258 
v -34.80950164794922 25.3428955078125 15.075061798095703 
v 34.80961227416992 25.3428955078125 15.075061798095703 
v 26.0387020111084 25.016597747802734 26.0387020111084 
v -26.03858757019043 25.016597747802734 26.0387020111084 
v 15.075061798095703 24.69029998779297 34.80961227416992 
v -15.07494831085205 24.69029998779297 34.80961227416992 
vn 0.4578908383846283 0.8886836171150208 -0.024029340595006943 
vn 0.39790526032447815 0.8250154256820679 -0.401274174451828 
vn 0.12421294301748276 0.9844511151313782 -0.1242060661315918 
vn 0.02453703060746193 0.8853502869606018 -0.4642767012119293 
vn -0.028310758993029594 0.8852376341819763 -0.4642767012119293 
vn -0.12421294301748276 0.9844511151313782 -0.1242060661315918 
vn -0.39790526032447815 0.8250154256820679 -0.401274174451828 
vn -0.46458899974823 0.8852003812789917 -0.024029340595006943 
vn -0.46453574299812317 0.885098934173584 0.028397228568792343 
vn -0.12421294301748276 0.9844511151313782 0.1242060661315918 
vn -0.3974688947200775 0.8290773630142212 0.3932546079158783 
vn -0.020744606852531433 0.8894716501235962 0.456519216299057 
vn 0.028272759169340134 0.8912514448165894 0.45262736082077026 
vn 0.12421294301748276 0.9844511151313782 0.1242060661315918 
vn 0.3909027576446533 0.8377978205680847 0.3811691105365753 
vn 0.45783838629722595 0.8885818123817444 0.028397228568792343 
vn -0.10326769202947617 0.6845342516899109 0.7216291427612305 
vn -0.5636292695999146 0.6022982001304626 0.5652954578399658 
vn -0.5636292695999146 0.6022982001304626 0.5652954578399658 
vn -0.7141194343566895 0.6807534694671631 0.16312000155448914 
vn -0.7214816808700562 0.6841404438018799 0.10684575140476227 
vn -0.7126529812812805 0.6833050847053528 -0.15880759060382843 
vn -0.7182469964027405 0.6875356435775757 -0.10684575140476227 
vn -0.5694785118103027 0.6068745851516724 -0.5544344186782837 
vn -0.5694785118103027 0.6068745851516724 -0.5544344186782837 
vn -0.16279998421669006 0.6793242692947388 -0.715552031993866 
vn -0.10531195253133774 0.6842227578163147 -0.7216291427612305 
vn 0.15912437438964844 0.6801946759223938 -0.715552031993866 
vn 0.10531195253133774 0.6842227578163147 -0.7216291427612305 
vn -0.16069118678569794 0.6798262000083923 0.715552031993866 
vn 0.10699322819709778 0.6839618682861328 0.7216291427612305 
vn 0.16069118678569794 0.6798262000083923 0.715552031993866 
vn 0.10699322819709778 0.6839618682861328 0.7216291427612305 
vn 0.16069118678569794 0.6798262000083923 0.715552031993866 
vn 0.5608691573143005 0.6048693060874939 0.5652954578399658 
vn 0.5608691573143005 0.6048693060874939 0.5652954578399658 
vn 0.7214816808700562 0.6841404438018799 0.10684575140476227 
vn 0.7178551554679871 0.6778378486633301 0.15880759060382843 
vn 0.7208536267280579 0.6848021745681763 -0.10684575140476227 
vn 0.7167191505432129 0.6780158877372742 -0.16312000155448914 
vn 0.566380500793457 0.6064454317092896 -0.5580654144287109 
vn 0.5718792676925659 0.6012628674507141 -0.5580654144287109 
vn 0.10531195253133774 0.6842227578163147 -0.7216291427612305 
vn 0.15912437438964844 0.6801946759223938 -0.715552031993866 
vn -0.19960615038871765 0.003755420446395874 0.97986900806427 
vn -0.7047756910324097 0.0037719577085226774 0.7094202041625977 
vn -0.19960615038871765 0.003755420446395874 0.97986900806427 
vn -0.7047756910324097 0.0037719577085226774 0.7094202041625977 
vn -0.9785322546958923 0.00377198145724833 0.2060592919588089 
vn -0.9785322546958923 0.00377198145724833 0.2060592919588089 
vn -0.9776225090026855 0.0037777454126626253 -0.2103329300880432 
vn -0.9785395264625549 -2.0238457719597147e-13 -0.2060592919588089 
vn -0.7109482288360596 0.003779239719733596 -0.7032341957092285 
vn -0.7109482288360596 0.003779239719733596 -0.7032341957092285 
vn -0.2038857638835907 0.0037905313074588776 -0.9789873361587524 
vn -0.2038857638835907 0.0037905313074588776 -0.9789873361587524 
vn 0.20392099022865295 0 -0.9789873361587524 
vn 0.20392099022865295 0 -0.9789873361587524 
vn 0.20392099022865295 0 -0.9789873361587524 
vn 0.20392099022865295 0 -0.9789873361587524 
vn 0.7109582424163818 0 -0.7032341957092285 
vn 0.7109582424163818 0 -0.7032341957092285 
vn 0.9776298403739929 0 -0.2103329300880432 
vn 0.9785395264625549 0 -0.2060592919588089 
vn 0.9785395264625549 0 0.2060592919588089 
vn 0.9785395264625549 0 0.2060592919588089 
vn 0.7016792893409729 0 0.7124928832054138 
vn 0.7047857642173767 0 0.7094202041625977 
vn 0.19964148104190826 0 0.97986900806427 
vn 0.19964148104190826 0 0.97986900806427 
vn -0.19960615038871765 0.003755420446395874 0.97986900806427 
vn -0.19960615038871765 0.003755420446395874 0.97986900806427 
vn 3.097898456858039e-13 -0.999997615814209 -0.002184694167226553 
vn 3.097898456858039e-13 -0.999997615814209 -0.002184694167226553 
vn 3.097898456858039e-13 -0.999997615814209 -0.002184694167226553 
vn 3.097898456858039e-13 -0.999997615814209 -0.002184694167226553 
vn 3.097898456858039e-13 -0.999997615814209 -0.002184694167226553 
vn 3.097898456858039e-13 -0.999997615814209 -0.002184694167226553 
vn 3.097898456858039e-13 -0.999997615814209 -0.002184694167226553 
vn 3.097898456858039e-13 -0.999997615814209 -0.002184694167226553 
vn 3.097898456858039e-13 -0.999997615814209 -0.002184694167226553 
vn 3.097898456858039e-13 -0.999997615814209 -0.002184694167226553 
vn 3.097898456858039e-13 -0.999997615814209 -0.002184694167226553 
vn 3.097898456858039e-13 -0.999997615814209 -0.002184694167226553 
vt 0.7089512944221497 0.42343899607658386 
vt 0.7034223675727844 0.41792577505111694 
vt 0.7089512944221497 0.29329773783683777 
vt 0.6982900500297546 0.4127027094364166 
vt 0.6982900500297546 0.39848437905311584 
vt 0.7089512944221497 0.2789343297481537 
vt 0.7037023305892944 0.3929711580276489 
vt 0.7089512944221497 0.3877480924129486 
vt 0.7232517600059509 0.3877480924129486 
vt 0.7232517600059509 0.2789343297481537 
vt 0.728454053401947 0.3929711580276489 
vt 0.7339363098144531 0.39848437905311584 
vt 0.733913004398346 0.4127027094364166 
vt 0.7229951620101929 0.29329773783683777 
vt 0.7286406755447388 0.41807085275650024 
vt 0.7231817841529846 0.42343899607658386 
vt 0.7340996265411377 0.35220226645469666 
vt 0.7270309925079346 0.3876030147075653 
vt 0.728454053401947 0.35220226645469666 
vt 0.7223419547080994 0.3876030147075653 
vt 0.7223419547080994 0.35220226645469666 
vt 0.7102810144424438 0.3876030147075653 
vt 0.7102343440055847 0.35220226645469666 
vt 0.705661952495575 0.3876030147075653 
vt 0.7042621970176697 0.35220226645469666 
vt 0.7012061476707458 0.3876030147075653 
vt 0.6984533667564392 0.35220226645469666 
vt 0.7011828422546387 0.3876030147075653 
vt 0.6984533667564392 0.35220226645469666 
vt 0.7313701510429382 0.3876030147075653 
vt 0.7340996265411377 0.35220226645469666 
vt 0.7313701510429382 0.3876030147075653 
vt 0.6984533667564392 0.35220226645469666 
vt 0.7011828422546387 0.3876030147075653 
vt 0.7044255137443542 0.35220226645469666 
vt 0.7057785391807556 0.3876030147075653 
vt 0.7102110385894775 0.35220226645469666 
vt 0.7102110385894775 0.3876030147075653 
vt 0.7223185896873474 0.35220226645469666 
vt 0.7223185896873474 0.3876030147075653 
vt 0.7280575037002563 0.35220226645469666 
vt 0.7267277240753174 0.3876030147075653 
vt 0.7340996265411377 0.35220226645469666 
vt 0.7313701510429382 0.3876030147075653 
vt 0.7412848472595215 0.21045421063899994 
vt 0.7356392741203308 0.21045421063899994 
vt 0.7412848472595215 0.30693572759628296 
vt 0.7356392741203308 0.30693572759628296 
vt 0.7295271754264832 0.30693572759628296 
vt 0.7295271754264832 0.21045421063899994 
vt 0.7174195647239685 0.21045421063899994 
vt 0.7174195647239685 0.30693572759628296 
vt 0.7114241123199463 0.21045421063899994 
vt 0.7114241123199463 0.30693572759628296 
vt 0.705638587474823 0.30693572759628296 
vt 0.705638587474823 0.21045421063899994 
vt 0.6935309767723083 0.21045421063899994 
vt 0.6935309767723083 0.30693572759628296 
vt 0.7412848472595215 0.21045421063899994 
vt 0.7412848472595215 0.30693572759628296 
vt 0.7352427244186401 0.21045421063899994 
vt 0.7352427244186401 0.30693572759628296 
vt 0.729503870010376 0.21045421063899994 
vt 0.729503870010376 0.30693572759628296 
vt 0.7173962593078613 0.30693572759628296 
vt 0.7173962593078613 0.21045421063899994 
vt 0.711610734462738 0.21045421063899994 
vt 0.711610734462738 0.30693572759628296 
vt 0.705638587474823 0.21045421063899994 
vt 0.705638587474823 0.30693572759628296 
vt 0.6935309767723083 0.21045421063899994 
vt 0.6935309767723083 0.30693572759628296 
vt 0.710047721862793 0.12645000219345093 
vt 0.7221553325653076 0.12645000219345093 
vt 0.7042621970176697 0.13225339353084564 
vt 0.728197455406189 0.13254356384277344 
vt 0.6982900500297546 0.13820189237594604 
vt 0.7339363098144531 0.13820189237594604 
vt 0.6982900500297546 0.15038903057575226 
vt 0.7339363098144531 0.15038903057575226 
vt 0.7281507849693298 0.15604734420776367 
vt 0.7044021487236023 0.15648259222507477 
vt 0.7221553325653076 0.16214090585708618 
vt 0.710047721862793 0.16214090585708618 
s on 
f 1/1/1 2/2/2 3/3/3 
f 2/2/2 4/4/4 3/3/3 
f 3/3/3 4/4/4 3/3/3 
f 4/4/4 5/5/5 3/3/3 
f 3/3/3 5/5/5 6/6/6 
f 5/5/5 7/7/7 6/6/6 
f 6/6/6 7/7/7 6/6/6 
f 7/7/7 8/8/8 6/6/6 
f 6/6/6 8/8/8 6/6/6 
f 8/8/8 9/9/9 6/6/6 
f 6/6/6 9/9/9 10/10/10 
f 9/9/9 11/11/11 10/10/10 
f 10/10/10 11/11/11 10/10/10 
f 11/11/11 12/12/12 10/10/10 
f 10/10/10 12/12/12 10/10/10 
f 12/12/12 13/13/13 10/10/10 
f 10/10/10 13/13/13 14/14/14 
f 13/13/13 15/15/15 14/14/14 
f 14/14/14 15/15/15 14/14/14 
f 15/15/15 16/16/16 14/14/14 
f 14/14/14 16/16/16 14/14/14 
f 16/16/16 1/1/1 14/14/14 
f 14/14/14 1/1/1 14/14/14 
f 1/1/1 3/3/3 14/14/14 
f 14/14/14 3/3/3 10/10/10 
f 3/3/3 6/6/6 10/10/10 
f 10/10/10 6/6/6 6/6/6 
f 6/6/6 17/17/17 6/6/6 
f 6/6/6 17/17/17 17/17/17 
f 17/17/17 18/18/18 17/17/17 
f 17/17/17 18/18/18 19/19/19 
f 18/18/18 20/20/20 19/19/19 
f 19/19/19 20/20/20 21/21/21 
f 20/20/20 22/22/22 21/21/21 
f 21/21/21 22/22/22 23/23/23 
f 22/22/22 24/24/24 23/23/23 
f 23/23/23 24/24/24 25/25/25 
f 24/24/24 26/26/26 25/25/25 
f 25/25/25 26/26/26 27/27/27 
f 26/26/26 28/28/28 27/27/27 
f 27/27/27 28/28/28 29/29/29 
f 28/28/28 29/29/29 29/29/29 
f 29/29/29 29/29/29 18/18/18 
f 29/29/29 18/18/18 18/18/18 
f 18/18/18 18/18/18 30/30/30 
f 18/18/18 17/17/17 30/30/30 
f 30/30/30 17/17/17 30/30/30 
f 17/17/17 31/31/31 30/30/30 
f 30/30/30 31/31/31 32/32/32 
f 31/31/31 32/32/32 32/32/32 
f 32/32/32 32/32/32 33/33/33 
f 32/32/32 33/33/33 33/33/33 
f 33/33/33 33/33/33 34/34/34 
f 33/33/33 35/35/35 34/34/34 
f 34/34/34 35/35/35 36/36/36 
f 35/35/35 37/37/37 36/36/36 
f 36/36/36 37/37/37 38/38/38 
f 37/37/37 39/39/39 38/38/38 
f 38/38/38 39/39/39 40/40/40 
f 39/39/39 41/41/41 40/40/40 
f 40/40/40 41/41/41 42/42/42 
f 41/41/41 43/43/43 42/42/42 
f 42/42/42 43/43/43 44/44/44 
f 43/43/43 44/44/44 44/44/44 
f 44/44/44 44/44/44 45/45/45 
f 44/44/44 45/45/45 45/45/45 
f 45/45/45 45/45/45 46/46/46 
f 45/45/45 47/47/47 46/46/46 
f 46/46/46 47/47/47 46/46/46 
f 47/47/47 48/48/48 46/46/46 
f 46/46/46 48/48/48 46/46/46 
f 48/48/48 49/49/49 46/46/46 
f 46/46/46 49/49/49 50/50/50 
f 49/49/49 49/49/49 50/50/50 
f 50/50/50 49/49/49 51/51/51 
f 49/49/49 52/52/52 51/51/51 
f 51/51/51 52/52/52 53/53/53 
f 52/52/52 54/54/54 53/53/53 
f 53/53/53 54/54/54 53/53/53 
f 54/54/54 55/55/55 53/53/53 
f 53/53/53 55/55/55 56/56/56 
f 55/55/55 55/55/55 56/56/56 
f 56/56/56 55/55/55 57/57/57 
f 55/55/55 58/58/58 57/57/57 
f 57/57/57 58/58/58 58/58/58 
f 58/58/58 59/59/59 58/58/58 
f 58/58/58 59/59/59 59/59/59 
f 59/59/59 60/60/60 59/59/59 
f 59/59/59 60/60/60 61/61/61 
f 60/60/60 62/62/62 61/61/61 
f 61/61/61 62/62/62 63/63/63 
f 62/62/62 64/64/64 63/63/63 
f 63/63/63 64/64/64 63/63/63 
f 64/64/64 65/65/65 63/63/63 
f 63/63/63 65/65/65 66/66/66 
f 65/65/65 65/65/65 66/66/66 
f 66/66/66 65/65/65 67/67/67 
f 65/65/65 68/68/68 67/67/67 
f 67/67/67 68/68/68 69/69/69 
f 68/68/68 70/70/70 69/69/69 
f 69/69/69 70/70/70 71/71/71 
f 70/70/70 72/72/72 71/71/71 
f 71/71/71 72/72/72 72/72/72 
f 72/72/72 73/73/73 72/72/72 
f 72/72/72 73/73/73 73/73/73 
f 73/73/73 74/74/74 73/73/73 
f 73/73/73 74/74/74 75/75/75 
f 74/74/74 76/76/76 75/75/75 
f 75/75/75 76/76/76 77/77/77 
f 76/76/76 78/78/78 77/77/77 
f 77/77/77 78/78/78 79/79/79 
f 78/78/78 80/80/80 79/79/79 
f 79/79/79 80/80/80 79/79/79 
f 80/80/80 81/81/81 79/79/79 
f 79/79/79 81/81/81 82/82/82 
f 81/81/81 83/83/83 82/82/82 
f 82/82/82 83/83/83 84/84/84 

