mtllib model_33.mtl
o model_33
v -0.08085089921951294 0.0063332198187708855 -0.06300169974565506 
v -0.14423680305480957 -0.08890459686517715 0.004033700097352266 
v -0.08752310276031494 0.0063332198187708855 -0.1300370991230011 
v -0.15424509346485138 -0.08748313784599304 -0.14344418048858643 
v -0.07751479744911194 0.0063332198187708855 -0.2138313502073288 
v -0.14090070128440857 -0.08890459686517715 -0.28086674213409424 
v 0.08261799812316895 0.0063332198187708855 -0.2138313502073288 
v 0.13265949487686157 -0.08748313784599304 -0.2775149941444397 
v 0.09596239775419235 0.007754679769277573 -0.12668533623218536 
v 0.14934000372886658 -0.08606167882680893 -0.13338887691497803 
v 0.07928189635276794 0.010597599670290947 -0.06300169974565506 
v 0.13599559664726257 -0.0832187607884407 -0.01272515021264553 
v -0.08085089921951294 0.0063332198187708855 -0.06300169974565506 
v -0.14423680305480957 0.09019935876131058 0.004033700097352266 
v 0.07928189635276794 0.010597599670290947 -0.06300169974565506 
v 0.13933169841766357 0.08877789974212646 -0.009373379871249199 
v 0.1927092969417572 -0.0036170000676065683 -0.3512539267539978 
v 0.13599559664726257 0.09019935876131058 -0.28086674213409424 
v 0.2060537040233612 -0.005038459785282612 -0.14344418048858643 
v 0.15267610549926758 0.08877789974212646 -0.13338887691497803 
v 0.13933169841766357 0.08877789974212646 -0.009373379871249199 
v 0.1927092969417572 -0.0036170000676065683 0.04425494000315666 
v -0.14423680305480957 0.09019935876131058 0.004033700097352266 
v -0.2076227068901062 -0.0036170000676065683 0.06101379171013832 
v -0.2042866051197052 -0.005038459785282612 -0.3411986231803894 
v -0.14757290482521057 0.09019935876131058 -0.28086674213409424 
v -0.010792800225317478 -0.005038459785282612 -0.36466100811958313 
v -0.010792800225317478 0.09019935876131058 -0.2976256012916565 
v 0.13599559664726257 0.09019935876131058 -0.28086674213409424 
v -0.2042866051197052 -0.005038459785282612 -0.3411986231803894 
v -0.14090070128440857 -0.08890459686517715 -0.28086674213409424 
v -0.217630997300148 -0.0036170000676065683 -0.14344418048858643 
v -0.15424509346485138 -0.08748313784599304 -0.14344418048858643 
v -0.2076227068901062 -0.0036170000676065683 0.06101379171013832 
v -0.14423680305480957 -0.08890459686517715 0.004033700097352266 
v -0.14423680305480957 -0.08890459686517715 0.004033700097352266 
v -0.08085089921951294 0.0063332198187708855 -0.06300169974565506 
v 0.13599559664726257 -0.0832187607884407 -0.01272515021264553 
v 0.07928189635276794 0.010597599670290947 -0.06300169974565506 
v 0.08261799812316895 0.0063332198187708855 -0.2138313502073288 
v 0.13599559664726257 0.09019935876131058 -0.28086674213409424 
v -0.0007844999781809747 0.0063332198187708855 -0.23059019446372986 
v -0.010792800225317478 0.09019935876131058 -0.2976256012916565 
v -0.07751479744911194 0.0063332198187708855 -0.2138313502073288 
v -0.14757290482521057 0.09019935876131058 -0.28086674213409424 
v -0.2076227068901062 -0.0036170000676065683 0.06101379171013832 
v -0.14423680305480957 0.09019935876131058 0.004033700097352266 
v -0.217630997300148 -0.0036170000676065683 -0.14344418048858643 
v -0.15758119523525238 0.09162081778049469 -0.14344418048858643 
v -0.14757290482521057 0.09019935876131058 -0.28086674213409424 
v 0.13599559664726257 -0.0832187607884407 -0.01272515021264553 
v 0.1927092969417572 -0.0036170000676065683 0.04425494000315666 
v -0.14423680305480957 -0.08890459686517715 0.004033700097352266 
v -0.2076227068901062 -0.0036170000676065683 0.06101379171013832 
v 0.13265949487686157 -0.08748313784599304 -0.2775149941444397 
v 0.1927092969417572 -0.0036170000676065683 -0.3512539267539978 
v 0.14934000372886658 -0.08606167882680893 -0.13338887691497803 
v 0.2060537040233612 -0.005038459785282612 -0.14344418048858643 
v 0.13599559664726257 -0.0832187607884407 -0.01272515021264553 
v 0.1927092969417572 -0.0036170000676065683 0.04425494000315666 
v 0.07928189635276794 0.010597599670290947 -0.06300169974565506 
v 0.13933169841766357 0.08877789974212646 -0.009373379871249199 
v 0.09596239775419235 0.007754679769277573 -0.12668533623218536 
v 0.15267610549926758 0.08877789974212646 -0.13338887691497803 
v 0.08261799812316895 0.0063332198187708855 -0.2138313502073288 
v 0.13599559664726257 0.09019935876131058 -0.28086674213409424 
v -0.14423680305480957 0.09019935876131058 0.004033700097352266 
v -0.08085089921951294 0.0063332198187708855 -0.06300169974565506 
v -0.15758119523525238 0.09162081778049469 -0.14344418048858643 
v -0.08752310276031494 0.0063332198187708855 -0.1300370991230011 
v -0.14757290482521057 0.09019935876131058 -0.28086674213409424 
v -0.07751479744911194 0.0063332198187708855 -0.2138313502073288 
v 0.1927092969417572 -0.0036170000676065683 -0.3512539267539978 
v 0.13265949487686157 -0.08748313784599304 -0.2775149941444397 
v -0.010792800225317478 -0.005038459785282612 -0.36466100811958313 
v -0.007456699851900339 -0.08890459686517715 -0.2976256012916565 
v -0.2042866051197052 -0.005038459785282612 -0.3411986231803894 
v -0.14090070128440857 -0.08890459686517715 -0.28086674213409424 
v 0.13265949487686157 -0.08748313784599304 -0.2775149941444397 
v 0.08261799812316895 0.0063332198187708855 -0.2138313502073288 
v -0.007456699851900339 -0.08890459686517715 -0.2976256012916565 
v -0.0007844999781809747 0.0063332198187708855 -0.23059019446372986 
v -0.14090070128440857 -0.08890459686517715 -0.28086674213409424 
v -0.07751479744911194 0.0063332198187708855 -0.2138313502073288 
v -0.2042866051197052 -0.005038459785282612 -0.3411986231803894 
v 0.1927092969417572 -0.0036170000676065683 -0.3512539267539978 
vn 0.8069154024124146 -0.5862583518028259 -0.07203252613544464 
vn 0.8069154024124146 -0.5862583518028259 -0.07203252613544464 
vn 0.8099018931388855 -0.5865612626075745 0.002184694167226553 
vn 0.8099018931388855 -0.5865612626075745 0.002184694167226553 
vn 0.8056380748748779 -0.5862637758255005 0.08510008454322815 
vn 0.8056380748748779 -0.5862637758255005 0.08510008454322815 
vn -0.8546158671379089 -0.5072166919708252 0.1111890971660614 
vn -0.8546158671379089 -0.5072166919708252 0.1111890971660614 
vn -0.8557628989219666 -0.5173267126083374 0.006554040592163801 
vn -0.8557628989219666 -0.5173267126083374 0.006554040592163801 
vn -0.8424139618873596 -0.526299774646759 -0.11553031951189041 
vn -0.8424139618873596 -0.526299774646759 -0.11553031951189041 
vn -0.03399264067411423 0.5980738997459412 -0.8007197380065918 
vn -0.016970261931419373 0.9158007502555847 0.401274174451828 
vn -0.03399264067411423 0.5980738997459412 -0.8007197380065918 
vn 0.18385392427444458 0.9750746488571167 -0.1242060661315918 
vn 0.8452133536338806 0.5301270484924316 -0.06767380982637405 
vn 0.3826605975627899 0.9238244295120239 -0.010923261754214764 
vn 0.8478681445121765 0.5302026271820068 -0.002184694167226553 
vn 0.17820608615875244 0.9333834052085876 -0.31150925159454346 
vn 0.18385392427444458 0.9750746488571167 -0.1242060661315918 
vn 0.245419442653656 0.5654233694076538 0.7874425053596497 
vn -0.016970261931419373 0.9158007502555847 0.401274174451828 
vn 0.039481598883867264 0.5028606057167053 0.8634653687477112 
vn -0.10157614946365356 0.5760669708251953 -0.8110666871070862 
vn -0.020759498700499535 0.9429829120635986 -0.33219319581985474 
vn -0.017006121575832367 0.5952919125556946 -0.8033295273780823 
vn -0.3189956247806549 0.9377726316452026 -0.1372016966342926 
vn -0.0018870257772505283 0.9502412676811218 -0.31150925159454346 
vn -0.7880223989486694 -0.6135942935943604 -0.05022686347365379 
vn -0.7880223989486694 -0.6135942935943604 -0.05022686347365379 
vn -0.791801393032074 -0.6107434630393982 -0.006554040592163801 
vn -0.791801393032074 -0.6107434630393982 -0.006554040592163801 
vn -0.7958589196205139 -0.6043424606323242 0.03713129088282585 
vn -0.7958589196205139 -0.6043424606323242 0.03713129088282585 
vn -0.02267533540725708 -0.5337949991226196 -0.8453097939491272 
vn -0.02267533540725708 -0.5337949991226196 -0.8453097939491272 
vn -0.02267533540725708 -0.5337949991226196 -0.8453097939491272 
vn -0.02267533540725708 -0.5337949991226196 -0.8453097939491272 
vn -0.11801201850175858 0.6427650451660156 0.7569189071655273 
vn -0.0018870257772505283 0.9502412676811218 -0.31150925159454346 
vn 0.003768703667446971 0.6501843929290771 0.7597671151161194 
vn -0.3189956247806549 0.9377726316452026 -0.1372016966342926 
vn 0.12918686866760254 0.6506735682487488 0.7482877969741821 
vn -0.020759498700499535 0.9429829120635986 -0.33219319581985474 
vn -0.8277309536933899 0.5584633946418762 0.05459024757146835 
vn -0.40349051356315613 0.9149186015129089 0.010923261754214764 
vn -0.8314676284790039 0.5555689334869385 -0.002184694167226553 
vn -0.08857613056898117 0.9390431046485901 0.33219319581985474 
vn -0.33326780796051025 0.9426271915435791 -0.01966099627315998 
vn 0.04702799394726753 -0.5651428699493408 0.8236515522003174 
vn 0.04702799394726753 -0.5651428699493408 0.8236515522003174 
vn 0.04702799394726753 -0.5651428699493408 0.8236515522003174 
vn 0.04702799394726753 -0.5651428699493408 0.8236515522003174 
vn 0.802699863910675 -0.5925312042236328 -0.06767380982637405 
vn 0.802699863910675 -0.5925312042236328 -0.06767380982637405 
vn 0.8054491877555847 -0.5926607847213745 0.002184694167226553 
vn 0.8054491877555847 -0.5926607847213745 0.002184694167226553 
vn 0.8056380748748779 -0.5862637758255005 0.08510008454322815 
vn 0.8056380748748779 -0.5862637758255005 0.08510008454322815 
vn -0.784601092338562 0.6036313772201538 -0.1415284425020218 
vn 0.18385392427444458 0.9750746488571167 -0.1242060661315918 
vn -0.8098555207252502 0.5865276455879211 -0.010923261754214764 
vn 0.17820608615875244 0.9333834052085876 -0.31150925159454346 
vn -0.817356526851654 0.5677096843719482 0.0981530249118805 
vn 0.3826605975627899 0.9238244295120239 -0.010923261754214764 
vn -0.40349051356315613 0.9149186015129089 0.010923261754214764 
vn 0.7699535489082336 0.6340211629867554 -0.07203252613544464 
vn -0.08857613056898117 0.9390431046485901 0.33219319581985474 
vn 0.7681517601013184 0.6401746273040771 -0.010923261754214764 
vn -0.33326780796051025 0.9426271915435791 -0.01966099627315998 
vn 0.761657178401947 0.6456765532493591 0.05459024757146835 
vn 0.07168739289045334 -0.6627717018127441 -0.7453821301460266 
vn 0.07168739289045334 -0.6627717018127441 -0.7453821301460266 
vn -0.0037773021031171083 -0.6468583345413208 -0.762600839138031 
vn -0.0037773021031171083 -0.6468583345413208 -0.762600839138031 
vn -0.09034606069326401 -0.6235446333885193 -0.7765498161315918 
vn -0.09034606069326401 -0.6235446333885193 -0.7765498161315918 
vn -0.13644838333129883 -0.5832921266555786 0.8007197380065918 
vn -0.13644838333129883 -0.5832921266555786 0.8007197380065918 
vn -0.013174472376704216 -0.5953890681266785 0.8033295273780823 
vn -0.013174472376704216 -0.5953890681266785 0.8033295273780823 
vn 0.12534822523593903 -0.5999876856803894 0.790128231048584 
vn 0.12534822523593903 -0.5999876856803894 0.790128231048584 
vn -0.8401845693588257 0.5395458936691284 -0.05459024757146835 
vn 0.06974121928215027 0.5984823107719421 -0.7980946898460388 
vt 0.04255582019686699 0.28126683831214905 
vt 0.053220879286527634 0.2640646994113922 
vt 0.04255582019686699 0.29967087507247925 
vt 0.053220879286527634 0.29967087507247925 
vt 0.04255582019686699 0.31815001368522644 
vt 0.053220879286527634 0.3353521525859833 
vt 0.01967938058078289 0.31815001368522644 
vt 0.008991580456495285 0.3353521525859833 
vt 0.01967938058078289 0.29967087507247925 
vt 0.008991580456495285 0.29967087507247925 
vt 0.01967938058078289 0.28126683831214905 
vt 0.008991580456495285 0.2640646994113922 
vt 0.04971892014145851 0.2570035755634308 
vt 0.04971892014145851 0.25925710797309875 
vt 0.01083352044224739 0.2570035755634308 
vt 0.01083352044224739 0.25925710797309875 
vt 0.055540360510349274 0.2784874439239502 
vt 0.04485255852341652 0.26128533482551575 
vt 0.055540360510349274 0.24288128316402435 
vt 0.04485255852341652 0.24288128316402435 
vt 0.04485255852341652 0.22440212965011597 
vt 0.055540360510349274 0.20720000565052032 
vt 0.02197612076997757 0.22440212965011597 
vt 0.011311059817671776 0.20720000565052032 
vt 0.011311059817671776 0.2784874439239502 
vt 0.02197612076997757 0.26128533482551575 
vt 0.033414341509342194 0.2784874439239502 
vt 0.033414341509342194 0.26128533482551575 
vt 0.04485255852341652 0.26128533482551575 
vt 0.042510341852903366 0.31401851773262024 
vt 0.016836879774928093 0.31401851773262024 
vt 0.042510341852903366 0.2780367434024811 
vt 0.016836879774928093 0.2780367434024811 
vt 0.042510341852903366 0.2420549839735031 
vt 0.016836879774928093 0.2420549839735031 
vt 0.053220879286527634 0.2640646994113922 
vt 0.04255582019686699 0.28126683831214905 
vt 0.008991580456495285 0.2640646994113922 
vt 0.01967938058078289 0.28126683831214905 
vt 0.011515719816088676 0.3546576201915741 
vt 0.011515719816088676 0.3504509925842285 
vt 0.030958419665694237 0.3546576201915741 
vt 0.030958419665694237 0.3504509925842285 
vt 0.050401121377944946 0.3546576201915741 
vt 0.050401121377944946 0.3504509925842285 
vt 0.011311059817671776 0.20720000565052032 
vt 0.02197612076997757 0.22440212965011597 
vt 0.011311059817671776 0.24288128316402435 
vt 0.02197612076997757 0.24288128316402435 
vt 0.02197612076997757 0.26128533482551575 
vt 0.011174620129168034 0.36096757650375366 
vt 0.011174620129168034 0.35848864912986755 
vt 0.05185648053884506 0.36096757650375366 
vt 0.05185648053884506 0.35848864912986755 
vt 0.042078278958797455 0.3148448169231415 
vt 0.01640482060611248 0.3148448169231415 
vt 0.042078278958797455 0.2788630425930023 
vt 0.01640482060611248 0.2788630425930023 
vt 0.042078278958797455 0.24288128316402435 
vt 0.01640482060611248 0.24288128316402435 
vt 0.015677139163017273 0.26181113719940186 
vt 0.0413505993783474 0.26181113719940186 
vt 0.015677139163017273 0.273379385471344 
vt 0.0413505993783474 0.273379385471344 
vt 0.015677139163017273 0.28494763374328613 
vt 0.0413505993783474 0.28494763374328613 
vt 0.014972199685871601 0.26181113719940186 
vt 0.04064565896987915 0.26181113719940186 
vt 0.014972199685871601 0.273379385471344 
vt 0.04064565896987915 0.273379385471344 
vt 0.014972199685871601 0.28494763374328613 
vt 0.04064565896987915 0.28494763374328613 
vt 0.012993820011615753 0.2451348453760147 
vt 0.012993820011615753 0.2431066483259201 
vt 0.030549099668860435 0.2451348453760147 
vt 0.030549099668860435 0.2431066483259201 
vt 0.04810437932610512 0.2451348453760147 
vt 0.04810437932610512 0.2431066483259201 
vt 0.008991580456495285 0.3353521525859833 
vt 0.01967938058078289 0.31815001368522644 
vt 0.031117599457502365 0.3353521525859833 
vt 0.031117599457502365 0.31815001368522644 
vt 0.053220879286527634 0.3353521525859833 
vt 0.04255582019686699 0.31815001368522644 
vt 0.011311059817671776 0.2784874439239502 
vt 0.055540360510349274 0.2784874439239502 
s on 
f 1/1/1 2/2/2 3/3/3 
f 2/2/2 4/4/4 3/3/3 
f 3/3/3 4/4/4 5/5/5 
f 4/4/4 6/6/6 5/5/5 
f 5/5/5 6/6/6 6/6/6 
f 6/6/6 7/7/7 6/6/6 
f 6/6/6 7/7/7 7/7/7 
f 7/7/7 8/8/8 7/7/7 
f 7/7/7 8/8/8 9/9/9 
f 8/8/8 10/10/10 9/9/9 
f 9/9/9 10/10/10 11/11/11 
f 10/10/10 12/12/12 11/11/11 
f 11/11/11 12/12/12 12/12/12 
f 12/12/12 13/13/13 12/12/12 
f 12/12/12 13/13/13 13/13/13 
f 13/13/13 14/14/14 13/13/13 
f 13/13/13 14/14/14 15/15/15 
f 14/14/14 16/16/16 15/15/15 
f 15/15/15 16/16/16 16/16/16 
f 16/16/16 17/17/17 16/16/16 
f 16/16/16 17/17/17 17/17/17 
f 17/17/17 18/18/18 17/17/17 
f 17/17/17 18/18/18 19/19/19 
f 18/18/18 20/20/20 19/19/19 
f 19/19/19 20/20/20 21/21/21 
f 20/20/20 21/21/21 21/21/21 
f 21/21/21 21/21/21 19/19/19 
f 21/21/21 19/19/19 19/19/19 
f 19/19/19 19/19/19 19/19/19 
f 19/19/19 21/21/21 19/19/19 
f 19/19/19 21/21/21 22/22/22 
f 21/21/21 23/23/23 22/22/22 
f 22/22/22 23/23/23 24/24/24 
f 23/23/23 24/24/24 24/24/24 
f 24/24/24 24/24/24 25/25/25 
f 24/24/24 25/25/25 25/25/25 
f 25/25/25 25/25/25 25/25/25 
f 25/25/25 26/26/26 25/25/25 
f 25/25/25 26/26/26 27/27/27 
f 26/26/26 28/28/28 27/27/27 
f 27/27/27 28/28/28 29/29/29 
f 28/28/28 29/29/29 29/29/29 
f 29/29/29 29/29/29 30/30/30 
f 29/29/29 30/30/30 30/30/30 
f 30/30/30 30/30/30 30/30/30 
f 30/30/30 31/31/31 30/30/30 
f 30/30/30 31/31/31 32/32/32 
f 31/31/31 33/33/33 32/32/32 
f 32/32/32 33/33/33 34/34/34 
f 33/33/33 35/35/35 34/34/34 
f 34/34/34 35/35/35 35/35/35 
f 35/35/35 36/36/36 35/35/35 
f 35/35/35 36/36/36 36/36/36 
f 36/36/36 37/37/37 36/36/36 
f 36/36/36 37/37/37 38/38/38 
f 37/37/37 39/39/39 38/38/38 
f 38/38/38 39/39/39 39/39/39 
f 39/39/39 40/40/40 39/39/39 
f 39/39/39 40/40/40 40/40/40 
f 40/40/40 41/41/41 40/40/40 
f 40/40/40 41/41/41 42/42/42 
f 41/41/41 43/43/43 42/42/42 
f 42/42/42 43/43/43 44/44/44 
f 43/43/43 45/45/45 44/44/44 
f 44/44/44 45/45/45 45/45/45 
f 45/45/45 46/46/46 45/45/45 
f 45/45/45 46/46/46 46/46/46 
f 46/46/46 47/47/47 46/46/46 
f 46/46/46 47/47/47 48/48/48 
f 47/47/47 49/49/49 48/48/48 
f 48/48/48 49/49/49 50/50/50 
f 49/49/49 50/50/50 50/50/50 
f 50/50/50 50/50/50 51/51/51 
f 50/50/50 51/51/51 51/51/51 
f 51/51/51 51/51/51 51/51/51 
f 51/51/51 52/52/52 51/51/51 
f 51/51/51 52/52/52 53/53/53 
f 52/52/52 54/54/54 53/53/53 
f 53/53/53 54/54/54 54/54/54 
f 54/54/54 55/55/55 54/54/54 
f 54/54/54 55/55/55 55/55/55 
f 55/55/55 56/56/56 55/55/55 
f 55/55/55 56/56/56 57/57/57 
f 56/56/56 58/58/58 57/57/57 
f 57/57/57 58/58/58 59/59/59 
f 58/58/58 60/60/60 59/59/59 
f 59/59/59 60/60/60 60/60/60 
f 60/60/60 61/61/61 60/60/60 
f 60/60/60 61/61/61 61/61/61 
f 61/61/61 62/62/62 61/61/61 
f 61/61/61 62/62/62 63/63/63 
f 62/62/62 64/64/64 63/63/63 
f 63/63/63 64/64/64 65/65/65 
f 64/64/64 66/66/66 65/65/65 
f 65/65/65 66/66/66 66/66/66 
f 66/66/66 67/67/67 66/66/66 
f 66/66/66 67/67/67 67/67/67 
f 67/67/67 68/68/68 67/67/67 
f 67/67/67 68/68/68 69/69/69 
f 68/68/68 70/70/70 69/69/69 
f 69/69/69 70/70/70 71/71/71 
f 70/70/70 72/72/72 71/71/71 
f 71/71/71 72/72/72 72/72/72 
f 72/72/72 73/73/73 72/72/72 
f 72/72/72 73/73/73 73/73/73 
f 73/73/73 74/74/74 73/73/73 
f 73/73/73 74/74/74 75/75/75 
f 74/74/74 76/76/76 75/75/75 
f 75/75/75 76/76/76 77/77/77 
f 76/76/76 78/78/78 77/77/77 
f 77/77/77 78/78/78 78/78/78 
f 78/78/78 79/79/79 78/78/78 
f 78/78/78 79/79/79 79/79/79 
f 79/79/79 80/80/80 79/79/79 
f 79/79/79 80/80/80 81/81/81 
f 80/80/80 82/82/82 81/81/81 
f 81/81/81 82/82/82 83/83/83 
f 82/82/82 84/84/84 83/83/83 
f 48/48/48 50/50/50 85/85/85 
f 27/27/27 29/29/29 86/86/86 

