mtllib model_55.mtl
o model_55
v 0.06252367049455643 0.17144259810447693 0.05855970084667206 
v -0.03554296866059303 0.1364697962999344 0.007218000013381243 
v -0.028538210317492485 -0.1782854050397873 0.043459199368953705 
v -0.09858580678701401 -0.10833980143070221 -0.004862399771809578 
v -0.03028940036892891 -0.18994300067424774 -0.12566639482975006 
v -0.10033699870109558 -0.11999739706516266 -0.11660610139369965 
v -0.09858580678701401 -0.1054254025220871 -0.24949049949645996 
v 0.060772478580474854 0.16852819919586182 -0.30385228991508484 
v -0.03554296866059303 0.1422985941171646 -0.24949049949645996 
v 0.06252367049455643 0.18018579483032227 -0.12566639482975006 
v -0.03379178047180176 0.14812740683555603 -0.12566639482975006 
v -0.03554296866059303 0.1364697962999344 0.007218000013381243 
v 0.023997489362955093 0.06069539859890938 -0.04110360145568848 
v 0.023997489362955093 0.06943859905004501 -0.11358600109815598 
v 0.12206412851810455 0.09858260303735733 0.007218000013381243 
v 0.12206412851810455 0.10441140085458755 -0.12566639482975006 
v 0.02224629931151867 0.06069539859890938 -0.18908849358558655 
v 0.12031293660402298 0.09566819667816162 -0.24949049949645996 
v -0.03554296866059303 0.1422985941171646 -0.24949049949645996 
v -0.0653131976723671 0.01989380083978176 -0.2645910084247589 
v 0.02224629931151867 0.06069539859890938 -0.18908849358558655 
v 0.0064855897799134254 -0.006335800047963858 -0.2041890025138855 
v -0.09858580678701401 -0.1054254025220871 -0.24949049949645996 
v -0.012777499854564667 -0.082110196352005 -0.18908849358558655 
v 0.02224629931151867 0.06069539859890938 -0.18908849358558655 
v 0.0064855897799134254 -0.006335800047963858 -0.2041890025138855 
v 0.12031293660402298 0.09566819667816162 -0.24949049949645996 
v 0.08879151940345764 -0.020907800644636154 -0.2645910084247589 
v -0.012777499854564667 -0.082110196352005 -0.18908849358558655 
v 0.057270098477602005 -0.14622700214385986 -0.2464704066514969 
v 0.12206412851810455 0.09858260303735733 0.007218000013381243 
v 0.05201653018593788 -0.14622700214385986 -0.007882500067353249 
v 0.023997489362955093 0.06069539859890938 -0.04110360145568848 
v -0.016279879957437515 -0.07628139853477478 -0.05318399891257286 
v -0.09858580678701401 -0.10833980143070221 -0.004862399771809578 
v -0.03554296866059303 0.1364697962999344 0.007218000013381243 
v -0.016279879957437515 -0.07628139853477478 -0.05318399891257286 
v 0.023997489362955093 0.06069539859890938 -0.04110360145568848 
v -0.03554296866059303 0.1364697962999344 0.007218000013381243 
v -0.03379178047180176 0.14812740683555603 -0.12566639482975006 
v 0.023997489362955093 0.06069539859890938 -0.04110360145568848 
v 0.023997489362955093 0.06943859905004501 -0.11358600109815598 
v -0.03554296866059303 0.1422985941171646 -0.24949049949645996 
v 0.02224629931151867 0.06069539859890938 -0.18908849358558655 
v -0.012777499854564667 -0.082110196352005 -0.18908849358558655 
v -0.016279879957437515 -0.09085340052843094 -0.1105659008026123 
v 0.057270098477602005 -0.14622700214385986 -0.2464704066514969 
v 0.05201653018593788 -0.1578845977783203 -0.11660610139369965 
v -0.016279879957437515 -0.07628139853477478 -0.05318399891257286 
v 0.05201653018593788 -0.14622700214385986 -0.007882500067353249 
v -0.09858580678701401 -0.1054254025220871 -0.24949049949645996 
v -0.10033699870109558 -0.11999739706516266 -0.11660610139369965 
v -0.012777499854564667 -0.082110196352005 -0.18908849358558655 
v -0.016279879957437515 -0.09085340052843094 -0.1105659008026123 
v -0.09858580678701401 -0.10833980143070221 -0.004862399771809578 
v -0.016279879957437515 -0.07628139853477478 -0.05318399891257286 
v -0.028538210317492485 -0.1782854050397873 0.043459199368953705 
v -0.03028940036892891 -0.18994300067424774 -0.12566639482975006 
v 0.05201653018593788 -0.14622700214385986 -0.007882500067353249 
v 0.05201653018593788 -0.1578845977783203 -0.11660610139369965 
v -0.03028940036892891 -0.1782854050397873 -0.31291261315345764 
v 0.057270098477602005 -0.14622700214385986 -0.2464704066514969 
v -0.03028940036892891 -0.1782854050397873 -0.31291261315345764 
v 0.016992729157209396 -0.0005070000188425183 -0.3249930143356323 
v 0.057270098477602005 -0.14622700214385986 -0.2464704066514969 
v 0.08879151940345764 -0.020907800644636154 -0.2645910084247589 
v 0.060772478580474854 0.16852819919586182 -0.30385228991508484 
v 0.12031293660402298 0.09566819667816162 -0.24949049949645996 
v 0.05201653018593788 -0.14622700214385986 -0.007882500067353249 
v 0.12206412851810455 0.09858260303735733 0.007218000013381243 
v -0.028538210317492485 -0.1782854050397873 0.043459199368953705 
v 0.06252367049455643 0.17144259810447693 0.05855970084667206 
v 0.12206412851810455 0.09858260303735733 0.007218000013381243 
v 0.12206412851810455 0.10441140085458755 -0.12566639482975006 
v 0.06252367049455643 0.17144259810447693 0.05855970084667206 
v 0.06252367049455643 0.18018579483032227 -0.12566639482975006 
v 0.12031293660402298 0.09566819667816162 -0.24949049949645996 
v 0.060772478580474854 0.16852819919586182 -0.30385228991508484 
v 0.060772478580474854 0.16852819919586182 -0.30385228991508484 
v 0.016992729157209396 -0.0005070000188425183 -0.3249930143356323 
v -0.03554296866059303 0.1422985941171646 -0.24949049949645996 
v -0.0653131976723671 0.01989380083978176 -0.2645910084247589 
v -0.09858580678701401 -0.1054254025220871 -0.24949049949645996 
v -0.03028940036892891 -0.1782854050397873 -0.31291261315345764 
v 0.06252367049455643 0.17144259810447693 0.05855970084667206 
v -0.03028940036892891 -0.1782854050397873 -0.31291261315345764 
vn -0.4854467511177063 0.0862351730465889 0.8700028657913208 
vn -0.8731281757354736 0.23134958744049072 0.42909738421440125 
vn -0.612684428691864 -0.09379834681749344 0.7847417593002319 
vn -0.988211452960968 0.06792467832565308 -0.1372016966342926 
vn -0.7177039980888367 -0.6963448524475098 -0.002184694167226553 
vn -0.8923206329345703 0.4512699842453003 -0.010923261754214764 
vn -0.9897022247314453 -0.14299128949642181 -0.006554040592163801 
vn -0.3135780096054077 0.9479919672012329 -0.05459024757146835 
vn -0.8271536231040955 0.5617678165435791 -0.0152922747656703 
vn -0.32620200514793396 0.9452975392341614 0.002184694167226553 
vn -0.9998835325241089 0.015103200450539589 0.002184694167226553 
vn -0.8186216354370117 0.5742293000221252 0.010923261754214764 
vn 0.3649425804615021 -0.9278908967971802 -0.0763898640871048 
vn 0.3686853349208832 -0.9295517206192017 0.002184694167226553 
vn 0.3649425804615021 -0.9278908967971802 -0.0763898640871048 
vn 0.3686853349208832 -0.9295517206192017 0.002184694167226553 
vn 0.363346129655838 -0.9277594089508057 0.08510008454322815 
vn 0.363346129655838 -0.9277594089508057 0.08510008454322815 
vn -0.9079206585884094 0.2608657777309418 -0.3280687630176544 
vn -0.9460845589637756 0.246341273188591 0.2103329300880432 
vn -0.6590217351913452 0.037684228271245956 0.7511792182922363 
vn -0.6291640400886536 0.16403208673000336 0.7597671151161194 
vn -0.9210953116416931 0.23899120092391968 -0.30735430121421814 
vn -0.5912960171699524 0.27041250467300415 0.7597671151161194 
vn 0.5505958199501038 -0.26933547854423523 0.790128231048584 
vn 0.5819776058197021 -0.14195063710212708 0.8007197380065918 
vn 0.5505958199501038 -0.26933547854423523 0.790128231048584 
vn 0.5819776058197021 -0.14195063710212708 0.8007197380065918 
vn 0.5988491773605347 -0.015084072947502136 0.8007197380065918 
vn 0.5988491773605347 -0.015084072947502136 0.8007197380065918 
vn 0.47679591178894043 -0.06785810738801956 -0.8763908743858337 
vn 0.47679591178894043 -0.06785810738801956 -0.8763908743858337 
vn 0.47679591178894043 -0.06785810738801956 -0.8763908743858337 
vn 0.47679591178894043 -0.06785810738801956 -0.8763908743858337 
vn -0.988211452960968 0.06792467832565308 -0.1372016966342926 
vn -0.8731281757354736 0.23134958744049072 0.42909738421440125 
vn -0.5166522860527039 0.19609595835208893 -0.8334367275238037 
vn -0.5166522860527039 0.19609595835208893 -0.8334367275238037 
vn -0.8186216354370117 0.5742293000221252 0.010923261754214764 
vn -0.9998835325241089 0.015103200450539589 0.002184694167226553 
vn -0.807162344455719 -0.5864377617835999 -0.06767380982637405 
vn -0.8142929077148438 -0.5804172158241272 -0.006554040592163801 
vn -0.8271536231040955 0.5617678165435791 -0.0152922747656703 
vn -0.8189880847930908 -0.5707741379737854 0.058952588587999344 
vn 0.7057214975357056 0.7003864049911499 0.10684575140476227 
vn 0.7176902890205383 0.6963315606117249 0.006554040592163801 
vn 0.7057214975357056 0.7003864049911499 0.10684575140476227 
vn 0.7176902890205383 0.6963315606117249 0.006554040592163801 
vn 0.7191470861434937 0.684440553188324 -0.11986933648586273 
vn 0.7191470861434937 0.684440553188324 -0.11986933648586273 
vn -0.9897022247314453 -0.14299128949642181 -0.006554040592163801 
vn -0.8923206329345703 0.4512699842453003 -0.010923261754214764 
vn -0.34745508432388306 0.9325454235076904 0.0981530249118805 
vn -0.3686783015727997 0.9295339584350586 -0.006554040592163801 
vn -0.988211452960968 0.06792467832565308 -0.1372016966342926 
vn -0.389267235994339 0.9101871848106384 -0.1415284425020218 
vn 0.36481693387031555 -0.9275714159011841 0.08074574917554855 
vn 0.3686853349208832 -0.9295517206192017 -0.002184694167226553 
vn 0.36481693387031555 -0.9275714159011841 0.08074574917554855 
vn 0.3686853349208832 -0.9295517206192017 -0.002184694167226553 
vn 0.37207725644111633 -0.9254025220870972 -0.07203252613544464 
vn 0.37207725644111633 -0.9254025220870972 -0.07203252613544464 
vn 0.6198527812957764 -0.2363215535879135 -0.7482877969741821 
vn 0.6240583658218384 -0.15710978209972382 -0.7654199600219727 
vn 0.6198527812957764 -0.2363215535879135 -0.7482877969741821 
vn 0.6240583658218384 -0.15710978209972382 -0.7654199600219727 
vn 0.6263905167579651 -0.06786202639341354 -0.7765498161315918 
vn 0.6263905167579651 -0.06786202639341354 -0.7765498161315918 
vn 0.5398967266082764 -0.1849275827407837 0.8211658596992493 
vn 0.5398967266082764 -0.1849275827407837 0.8211658596992493 
vn 0.5398967266082764 -0.1849275827407837 0.8211658596992493 
vn 0.5398967266082764 -0.1849275827407837 0.8211658596992493 
vn 0.7867608666419983 0.6163877248764038 0.03276457265019417 
vn 0.7871364951133728 0.6166820526123047 -0.010923261754214764 
vn 0.7867608666419983 0.6163877248764038 0.03276457265019417 
vn 0.7871364951133728 0.6166820526123047 -0.010923261754214764 
vn 0.7901552319526672 0.6104707717895508 -0.05459024757146835 
vn 0.7901552319526672 0.6104707717895508 -0.05459024757146835 
vn -0.5402195453643799 0.24217642843723297 -0.8059239983558655 
vn -0.568806529045105 0.16415134072303772 -0.8059239983558655 
vn -0.9079206585884094 0.2608657777309418 -0.3280687630176544 
vn -0.9460845589637756 0.246341273188591 0.2103329300880432 
vn -0.9210953116416931 0.23899120092391968 -0.30735430121421814 
vn -0.6142809391021729 0.10532904416322708 -0.7820260524749756 
vn -0.3542994260787964 0.9342108368873596 0.04149730131030083 
vn -0.7394213676452637 -0.6713667511940002 -0.05022686347365379 
vt 0.011311059817671776 0.20720000565052032 
vt 0.02197612076997757 0.22440212965011597 
vt 0.055540360510349274 0.20720000565052032 
vt 0.04485255852341652 0.22440212965011597 
vt 0.055540360510349274 0.24288128316402435 
vt 0.04485255852341652 0.24288128316402435 
vt 0.04485255852341652 0.26128533482551575 
vt 0.011311059817671776 0.2784874439239502 
vt 0.02197612076997757 0.26128533482551575 
vt 0.011311059817671776 0.24288128316402435 
vt 0.02197612076997757 0.24288128316402435 
vt 0.02197612076997757 0.22440212965011597 
vt 0.04255582019686699 0.28126683831214905 
vt 0.04255582019686699 0.29967087507247925 
vt 0.053220879286527634 0.2640646994113922 
vt 0.053220879286527634 0.29967087507247925 
vt 0.04255582019686699 0.31815001368522644 
vt 0.053220879286527634 0.3353521525859833 
vt 0.050401121377944946 0.3504509925842285 
vt 0.030958419665694237 0.3504509925842285 
vt 0.050401121377944946 0.3546576201915741 
vt 0.030958419665694237 0.3546576201915741 
vt 0.011515719816088676 0.3504509925842285 
vt 0.011515719816088676 0.3546576201915741 
vt 0.04255582019686699 0.31815001368522644 
vt 0.031117599457502365 0.31815001368522644 
vt 0.053220879286527634 0.3353521525859833 
vt 0.031117599457502365 0.3353521525859833 
vt 0.01967938058078289 0.31815001368522644 
vt 0.008991580456495285 0.3353521525859833 
vt 0.053220879286527634 0.2640646994113922 
vt 0.008991580456495285 0.2640646994113922 
vt 0.04255582019686699 0.28126683831214905 
vt 0.01967938058078289 0.28126683831214905 
vt 0.01083352044224739 0.25925710797309875 
vt 0.04971892014145851 0.25925710797309875 
vt 0.01083352044224739 0.2570035755634308 
vt 0.04971892014145851 0.2570035755634308 
vt 0.014972199685871601 0.26181113719940186 
vt 0.014972199685871601 0.273379385471344 
vt 0.04064565896987915 0.26181113719940186 
vt 0.04064565896987915 0.273379385471344 
vt 0.014972199685871601 0.28494763374328613 
vt 0.04064565896987915 0.28494763374328613 
vt 0.01967938058078289 0.31815001368522644 
vt 0.01967938058078289 0.29967087507247925 
vt 0.008991580456495285 0.3353521525859833 
vt 0.008991580456495285 0.29967087507247925 
vt 0.01967938058078289 0.28126683831214905 
vt 0.008991580456495285 0.2640646994113922 
vt 0.0413505993783474 0.28494763374328613 
vt 0.0413505993783474 0.273379385471344 
vt 0.015677139163017273 0.28494763374328613 
vt 0.015677139163017273 0.273379385471344 
vt 0.0413505993783474 0.26181113719940186 
vt 0.015677139163017273 0.26181113719940186 
vt 0.01640482060611248 0.24288128316402435 
vt 0.01640482060611248 0.2788630425930023 
vt 0.042078278958797455 0.24288128316402435 
vt 0.042078278958797455 0.2788630425930023 
vt 0.01640482060611248 0.3148448169231415 
vt 0.042078278958797455 0.3148448169231415 
vt 0.012993820011615753 0.2451348453760147 
vt 0.030549099668860435 0.2451348453760147 
vt 0.012993820011615753 0.2431066483259201 
vt 0.030549099668860435 0.2431066483259201 
vt 0.04810437932610512 0.2451348453760147 
vt 0.04810437932610512 0.2431066483259201 
vt 0.011174620129168034 0.36096757650375366 
vt 0.05185648053884506 0.36096757650375366 
vt 0.011174620129168034 0.35848864912986755 
vt 0.05185648053884506 0.35848864912986755 
vt 0.016836879774928093 0.2420549839735031 
vt 0.016836879774928093 0.2780367434024811 
vt 0.042510341852903366 0.2420549839735031 
vt 0.042510341852903366 0.2780367434024811 
vt 0.016836879774928093 0.31401851773262024 
vt 0.042510341852903366 0.31401851773262024 
vt 0.011311059817671776 0.2784874439239502 
vt 0.033414341509342194 0.2784874439239502 
vt 0.02197612076997757 0.26128533482551575 
vt 0.033414341509342194 0.26128533482551575 
vt 0.04485255852341652 0.26128533482551575 
vt 0.055540360510349274 0.2784874439239502 
vt 0.011311059817671776 0.20720000565052032 
vt 0.055540360510349274 0.2784874439239502 
s on 
f 1/1/1 2/2/2 3/3/3 
f 2/2/2 4/4/4 3/3/3 
f 3/3/3 4/4/4 5/5/5 
f 4/4/4 6/6/6 5/5/5 
f 5/5/5 6/6/6 7/7/7 
f 6/6/6 7/7/7 7/7/7 
f 7/7/7 7/7/7 8/8/8 
f 7/7/7 8/8/8 8/8/8 
f 8/8/8 8/8/8 8/8/8 
f 8/8/8 9/9/9 8/8/8 
f 8/8/8 9/9/9 10/10/10 
f 9/9/9 11/11/11 10/10/10 
f 10/10/10 11/11/11 12/12/12 
f 11/11/11 12/12/12 12/12/12 
f 12/12/12 12/12/12 13/13/13 
f 12/12/12 13/13/13 13/13/13 
f 13/13/13 13/13/13 13/13/13 
f 13/13/13 14/14/14 13/13/13 
f 13/13/13 14/14/14 15/15/15 
f 14/14/14 16/16/16 15/15/15 
f 15/15/15 16/16/16 16/16/16 
f 16/16/16 14/14/14 16/16/16 
f 16/16/16 14/14/14 14/14/14 
f 14/14/14 17/17/17 14/14/14 
f 14/14/14 17/17/17 16/16/16 
f 17/17/17 18/18/18 16/16/16 
f 16/16/16 18/18/18 18/18/18 
f 18/18/18 19/19/19 18/18/18 
f 18/18/18 19/19/19 19/19/19 
f 19/19/19 20/20/20 19/19/19 
f 19/19/19 20/20/20 21/21/21 
f 20/20/20 22/22/22 21/21/21 
f 21/21/21 22/22/22 22/22/22 
f 22/22/22 20/20/20 22/22/22 
f 22/22/22 20/20/20 20/20/20 
f 20/20/20 23/23/23 20/20/20 
f 20/20/20 23/23/23 22/22/22 
f 23/23/23 24/24/24 22/22/22 
f 22/22/22 24/24/24 24/24/24 
f 24/24/24 25/25/25 24/24/24 
f 24/24/24 25/25/25 25/25/25 
f 25/25/25 26/26/26 25/25/25 
f 25/25/25 26/26/26 27/27/27 
f 26/26/26 28/28/28 27/27/27 
f 27/27/27 28/28/28 28/28/28 
f 28/28/28 26/26/26 28/28/28 
f 28/28/28 26/26/26 26/26/26 
f 26/26/26 29/29/29 26/26/26 
f 26/26/26 29/29/29 28/28/28 
f 29/29/29 30/30/30 28/28/28 
f 28/28/28 30/30/30 30/30/30 
f 30/30/30 31/31/31 30/30/30 
f 30/30/30 31/31/31 31/31/31 
f 31/31/31 32/32/32 31/31/31 
f 31/31/31 32/32/32 33/33/33 
f 32/32/32 34/34/34 33/33/33 
f 33/33/33 34/34/34 34/34/34 
f 34/34/34 35/35/35 34/34/34 
f 34/34/34 35/35/35 35/35/35 
f 35/35/35 36/36/36 35/35/35 
f 35/35/35 36/36/36 37/37/37 
f 36/36/36 38/38/38 37/37/37 
f 37/37/37 38/38/38 38/38/38 
f 38/38/38 39/39/39 38/38/38 
f 38/38/38 39/39/39 39/39/39 
f 39/39/39 40/40/40 39/39/39 
f 39/39/39 40/40/40 41/41/41 
f 40/40/40 42/42/42 41/41/41 
f 41/41/41 42/42/42 42/42/42 
f 42/42/42 40/40/40 42/42/42 
f 42/42/42 40/40/40 40/40/40 
f 40/40/40 43/43/43 40/40/40 
f 40/40/40 43/43/43 42/42/42 
f 43/43/43 44/44/44 42/42/42 
f 42/42/42 44/44/44 44/44/44 
f 44/44/44 45/45/45 44/44/44 
f 44/44/44 45/45/45 45/45/45 
f 45/45/45 46/46/46 45/45/45 
f 45/45/45 46/46/46 47/47/47 
f 46/46/46 48/48/48 47/47/47 
f 47/47/47 48/48/48 48/48/48 
f 48/48/48 46/46/46 48/48/48 
f 48/48/48 46/46/46 46/46/46 
f 46/46/46 49/49/49 46/46/46 
f 46/46/46 49/49/49 48/48/48 
f 49/49/49 50/50/50 48/48/48 
f 48/48/48 50/50/50 50/50/50 
f 50/50/50 51/51/51 50/50/50 
f 50/50/50 51/51/51 51/51/51 
f 51/51/51 52/52/52 51/51/51 
f 51/51/51 52/52/52 53/53/53 
f 52/52/52 54/54/54 53/53/53 
f 53/53/53 54/54/54 54/54/54 
f 54/54/54 52/52/52 54/54/54 
f 54/54/54 52/52/52 52/52/52 
f 52/52/52 55/55/55 52/52/52 
f 52/52/52 55/55/55 54/54/54 
f 55/55/55 56/56/56 54/54/54 
f 54/54/54 56/56/56 56/56/56 
f 56/56/56 57/57/57 56/56/56 
f 56/56/56 57/57/57 57/57/57 
f 57/57/57 58/58/58 57/57/57 
f 57/57/57 58/58/58 59/59/59 
f 58/58/58 60/60/60 59/59/59 
f 59/59/59 60/60/60 60/60/60 
f 60/60/60 58/58/58 60/60/60 
f 60/60/60 58/58/58 58/58/58 
f 58/58/58 61/61/61 58/58/58 
f 58/58/58 61/61/61 60/60/60 
f 61/61/61 62/62/62 60/60/60 
f 60/60/60 62/62/62 62/62/62 
f 62/62/62 63/63/63 62/62/62 
f 62/62/62 63/63/63 63/63/63 
f 63/63/63 64/64/64 63/63/63 
f 63/63/63 64/64/64 65/65/65 
f 64/64/64 66/66/66 65/65/65 
f 65/65/65 66/66/66 66/66/66 
f 66/66/66 64/64/64 66/66/66 
f 66/66/66 64/64/64 64/64/64 
f 64/64/64 67/67/67 64/64/64 
f 64/64/64 67/67/67 66/66/66 
f 67/67/67 68/68/68 66/66/66 
f 66/66/66 68/68/68 68/68/68 
f 68/68/68 69/69/69 68/68/68 
f 68/68/68 69/69/69 69/69/69 
f 69/69/69 70/70/70 69/69/69 
f 69/69/69 70/70/70 71/71/71 
f 70/70/70 72/72/72 71/71/71 
f 71/71/71 72/72/72 72/72/72 
f 72/72/72 73/73/73 72/72/72 
f 72/72/72 73/73/73 73/73/73 
f 73/73/73 74/74/74 73/73/73 
f 73/73/73 74/74/74 75/75/75 
f 74/74/74 76/76/76 75/75/75 
f 75/75/75 76/76/76 76/76/76 
f 76/76/76 74/74/74 76/76/76 
f 76/76/76 74/74/74 74/74/74 
f 74/74/74 77/77/77 74/74/74 
f 74/74/74 77/77/77 76/76/76 
f 77/77/77 78/78/78 76/76/76 
f 76/76/76 78/78/78 78/78/78 
f 78/78/78 79/79/79 78/78/78 
f 78/78/78 79/79/79 79/79/79 
f 79/79/79 80/80/80 79/79/79 
f 79/79/79 80/80/80 81/81/81 
f 80/80/80 82/82/82 81/81/81 
f 81/81/81 82/82/82 82/82/82 
f 82/82/82 80/80/80 82/82/82 
f 82/82/82 80/80/80 83/83/83 
f 80/80/80 84/84/84 83/83/83 
f 10/10/10 12/12/12 85/85/85 
f 5/5/5 7/7/7 86/86/86 

