mtllib model_117.mtl
o model_117
v -0.08081690222024918 -0.05820690095424652 -0.0036066100001335144 
v -0.1442027986049652 0.008822900243103504 0.09159112721681595 
v -0.08748909831047058 -0.12523670494556427 -0.006491390056908131 
v -0.1542111039161682 -0.13864265382289886 0.0887063518166542 
v -0.07748080044984818 -0.20902395248413086 -0.006491390056908131 
v -0.1408666968345642 -0.27940523624420166 0.08726395666599274 
v 0.0826520025730133 -0.20902395248413086 -0.006491390056908131 
v 0.13269349932670593 -0.27270224690437317 0.08726395666599274 
v 0.09599640220403671 -0.12188521027565002 -0.006491390056908131 
v 0.14937399327754974 -0.12858818471431732 0.08726395666599274 
v 0.0793159008026123 -0.05820690095424652 -0.009376170113682747 
v 0.13602960109710693 -0.007934549823403358 0.08582156896591187 
v -0.08081690222024918 -0.05820690095424652 -0.0036066100001335144 
v -0.1442027986049652 0.008822900243103504 -0.08726523071527481 
v 0.0793159008026123 -0.05820690095424652 -0.009376170113682747 
v 0.13936570286750793 -0.004583059810101986 -0.08726523071527481 
v 0.19274330139160156 -0.3464350402355194 0.002162950113415718 
v 0.13602960109710693 -0.2760537564754486 -0.09015001356601715 
v 0.20608769357204437 -0.13864265382289886 0.0064901201985776424 
v 0.15271009504795074 -0.12858818471431732 -0.08726523071527481 
v 0.13936570286750793 -0.004583059810101986 -0.08726523071527481 
v 0.19274330139160156 0.0490407794713974 0.00793251022696495 
v -0.1442027986049652 0.008822900243103504 -0.08726523071527481 
v -0.20758870244026184 0.06579823046922684 0.00793251022696495 
v -0.20425260066986084 -0.33638057112693787 0.002162950113415718 
v -0.1475389003753662 -0.27270224690437317 -0.09159240126609802 
v -0.010758800432085991 -0.359840989112854 0.002162950113415718 
v -0.010758800432085991 -0.29281118512153625 -0.09159240126609802 
v 0.13602960109710693 -0.2760537564754486 -0.09015001356601715 
v -0.20425260066986084 -0.33638057112693787 0.002162950113415718 
v -0.1408666968345642 -0.27940523624420166 0.08726395666599274 
v -0.21759699285030365 -0.13864265382289886 0.0036053399089723825 
v -0.1542111039161682 -0.13864265382289886 0.0887063518166542 
v -0.20758870244026184 0.06579823046922684 0.00793251022696495 
v -0.1442027986049652 0.008822900243103504 0.09159112721681595 
v -0.1442027986049652 0.008822900243103504 0.09159112721681595 
v -0.08081690222024918 -0.05820690095424652 -0.0036066100001335144 
v 0.13602960109710693 -0.007934549823403358 0.08582156896591187 
v 0.0793159008026123 -0.05820690095424652 -0.009376170113682747 
v 0.0826520025730133 -0.20902395248413086 -0.006491390056908131 
v 0.13602960109710693 -0.2760537564754486 -0.09015001356601715 
v -0.0007505000103265047 -0.2257813960313797 -0.006491390056908131 
v -0.010758800432085991 -0.29281118512153625 -0.09159240126609802 
v -0.07748080044984818 -0.20902395248413086 -0.006491390056908131 
v -0.1475389003753662 -0.27270224690437317 -0.09159240126609802 
v -0.20758870244026184 0.06579823046922684 0.00793251022696495 
v -0.1442027986049652 0.008822900243103504 -0.08726523071527481 
v -0.21759699285030365 -0.13864265382289886 0.0036053399089723825 
v -0.1575472056865692 -0.1352911740541458 -0.09015001356601715 
v -0.1475389003753662 -0.27270224690437317 -0.09159240126609802 
v 0.13602960109710693 -0.007934549823403358 0.08582156896591187 
v 0.19274330139160156 0.0490407794713974 0.00793251022696495 
v -0.1442027986049652 0.008822900243103504 0.09159112721681595 
v -0.20758870244026184 0.06579823046922684 0.00793251022696495 
v 0.13269349932670593 -0.27270224690437317 0.08726395666599274 
v 0.19274330139160156 -0.3464350402355194 0.002162950113415718 
v 0.14937399327754974 -0.12858818471431732 0.08726395666599274 
v 0.20608769357204437 -0.13864265382289886 0.0064901201985776424 
v 0.13602960109710693 -0.007934549823403358 0.08582156896591187 
v 0.19274330139160156 0.0490407794713974 0.00793251022696495 
v 0.0793159008026123 -0.05820690095424652 -0.009376170113682747 
v 0.13936570286750793 -0.004583059810101986 -0.08726523071527481 
v 0.09599640220403671 -0.12188521027565002 -0.006491390056908131 
v 0.15271009504795074 -0.12858818471431732 -0.08726523071527481 
v 0.0826520025730133 -0.20902395248413086 -0.006491390056908131 
v 0.13602960109710693 -0.2760537564754486 -0.09015001356601715 
v -0.1442027986049652 0.008822900243103504 -0.08726523071527481 
v -0.08081690222024918 -0.05820690095424652 -0.0036066100001335144 
v -0.1575472056865692 -0.1352911740541458 -0.09015001356601715 
v -0.08748909831047058 -0.12523670494556427 -0.006491390056908131 
v -0.1475389003753662 -0.27270224690437317 -0.09159240126609802 
v -0.07748080044984818 -0.20902395248413086 -0.006491390056908131 
v 0.19274330139160156 -0.3464350402355194 0.002162950113415718 
v 0.13269349932670593 -0.27270224690437317 0.08726395666599274 
v -0.010758800432085991 -0.359840989112854 0.002162950113415718 
v -0.007422700058668852 -0.29281118512153625 0.08726395666599274 
v -0.20425260066986084 -0.33638057112693787 0.002162950113415718 
v -0.1408666968345642 -0.27940523624420166 0.08726395666599274 
v 0.13269349932670593 -0.27270224690437317 0.08726395666599274 
v 0.0826520025730133 -0.20902395248413086 -0.006491390056908131 
v -0.007422700058668852 -0.29281118512153625 0.08726395666599274 
v -0.0007505000103265047 -0.2257813960313797 -0.006491390056908131 
v -0.1408666968345642 -0.27940523624420166 0.08726395666599274 
v -0.07748080044984818 -0.20902395248413086 -0.006491390056908131 
v -0.20425260066986084 -0.33638057112693787 0.002162950113415718 
v 0.19274330139160156 -0.3464350402355194 0.002162950113415718 
vn 0.8081130385398865 -0.08278820663690567 0.5831804275512695 
vn 0.8081130385398865 -0.08278820663690567 0.5831804275512695 
vn 0.8097516894340515 -0.007537728641182184 0.5867242813110352 
vn 0.8097516894340515 -0.007537728641182184 0.5867242813110352 
vn 0.8062810301780701 0.07526956498622894 0.5867242813110352 
vn 0.8062810301780701 0.07526956498622894 0.5867242813110352 
vn -0.8536577820777893 0.1054074764251709 0.5100564956665039 
vn -0.8536577820777893 0.1054074764251709 0.5100564956665039 
vn -0.8533729314804077 0.0037706999573856592 0.5212872624397278 
vn -0.8533729314804077 0.0037706999573856592 0.5212872624397278 
vn -0.8420128226280212 -0.12400725483894348 0.5250110030174255 
vn -0.8420128226280212 -0.12400725483894348 0.5250110030174255 
vn -0.03023303486406803 -0.793552815914154 -0.607749879360199 
vn -0.011331874877214432 0.4110993444919586 -0.9115201234817505 
vn -0.03023303486406803 -0.793552815914154 -0.607749879360199 
vn 0.18380241096019745 -0.11485249549150467 -0.976230263710022 
vn 0.8443183302879333 -0.060386836528778076 -0.5324283838272095 
vn 0.3831879794597626 0 -0.9236704111099243 
vn 0.8487597107887268 0.007553902920335531 -0.528724730014801 
vn 0.179795503616333 -0.29629379510879517 -0.9380210638046265 
vn 0.18380241096019745 -0.11485249549150467 -0.976230263710022 
vn 0.24927952885627747 0.7965469360351562 -0.5507928133010864 
vn -0.011331874877214432 0.4110993444919586 -0.9115201234817505 
vn 0.03961943835020065 0.8701764345169067 -0.4911448359489441 
vn -0.09989594668149948 -0.8010103106498718 -0.590256929397583 
vn -0.022666633129119873 -0.3169209659099579 -0.9481810927391052 
vn -0.016988398507237434 -0.7965952754020691 -0.6042742133140564 
vn -0.3200661838054657 -0.12185096740722656 -0.9395264387130737 
vn -0.001888386206701398 -0.29693543910980225 -0.9548956751823425 
vn -0.788867712020874 -0.06407222896814346 0.6112139225006104 
vn -0.788867712020874 -0.06407222896814346 0.6112139225006104 
vn -0.7939854264259338 -0.015073586255311966 0.607749879360199 
vn -0.7939854264259338 -0.015073586255311966 0.607749879360199 
vn -0.7962056994438171 0.03015119582414627 0.6042742133140564 
vn -0.7962056994438171 0.03015119582414627 0.6042742133140564 
vn -0.016967086121439934 -0.8532125949859619 0.5212872624397278 
vn -0.016967086121439934 -0.8532125949859619 0.5212872624397278 
vn -0.016967086121439934 -0.8532125949859619 0.5212872624397278 
vn -0.016967086121439934 -0.8532125949859619 0.5212872624397278 
vn -0.11846588551998138 0.7660657167434692 -0.6317508816719055 
vn -0.001888386206701398 -0.29693543910980225 -0.9548956751823425 
vn 0.00377592328004539 0.7668147683143616 -0.641857385635376 
vn -0.3200661838054657 -0.12185096740722656 -0.9395264387130737 
vn 0.12785208225250244 0.7589273452758789 -0.6385006904602051 
vn -0.022666633129119873 -0.3169209659099579 -0.9481810927391052 
vn -0.827596127986908 0.06039603054523468 -0.5580654144287109 
vn -0.402405709028244 0.026454022154211998 -0.9150791168212891 
vn -0.83219313621521 0.007556311320513487 -0.5544344186782837 
vn -0.09348449110984802 0.3464527726173401 -0.933397650718689 
vn -0.3300449550151825 -0.00756969815120101 -0.9439348578453064 
vn 0.04333794116973877 0.8137298226356506 0.5796254277229309 
vn 0.04333794116973877 0.8137298226356506 0.5796254277229309 
vn 0.04333794116973877 0.8137298226356506 0.5796254277229309 
vn 0.04333794116973877 0.8137298226356506 0.5796254277229309 
vn 0.8010931015014648 -0.07534662634134293 0.5937783122062683 
vn 0.8010931015014648 -0.07534662634134293 0.5937783122062683 
vn 0.8045932650566101 -0.007545607164502144 0.5937783122062683 
vn 0.8045932650566101 -0.007545607164502144 0.5937783122062683 
vn 0.8062810301780701 0.07526956498622894 0.5867242813110352 
vn 0.8062810301780701 0.07526956498622894 0.5867242813110352 
vn -0.7858439087867737 -0.131537064909935 -0.6042742133140564 
vn 0.18380241096019745 -0.11485249549150467 -0.976230263710022 
vn -0.8072065711021423 -0.0037793335504829884 -0.590256929397583 
vn 0.179795503616333 -0.29629379510879517 -0.9380210638046265 
vn -0.815619170665741 0.1054733544588089 -0.5688942670822144 
vn 0.3831879794597626 0 -0.9236704111099243 
vn -0.402405709028244 0.026454022154211998 -0.9150791168212891 
vn 0.7700374722480774 -0.06041369587182999 -0.6351318359375 
vn -0.09348449110984802 0.3464527726173401 -0.933397650718689 
vn 0.7668240666389465 0 -0.641857385635376 
vn -0.3300449550151825 -0.00756969815120101 -0.9439348578453064 
vn 0.7581504583358765 0.06790965795516968 -0.6485338807106018 
vn 0.07526860386133194 -0.7546002268791199 0.651853621006012 
vn 0.07526860386133194 -0.7546002268791199 0.651853621006012 
vn -0.007535836659371853 -0.772367000579834 0.6351318359375 
vn -0.007535836659371853 -0.772367000579834 0.6351318359375 
vn -0.08845000714063644 -0.783812403678894 0.6146662831306458 
vn -0.08845000714063644 -0.783812403678894 0.6146662831306458 
vn -0.13889655470848083 0.792549729347229 0.5937783122062683 
vn -0.13889655470848083 0.792549729347229 0.5937783122062683 
vn -0.011305486783385277 0.794048011302948 0.607749879360199 
vn -0.011305486783385277 0.794048011302948 0.607749879360199 
vn 0.12586168944835663 0.7813938856124878 0.6112139225006104 
vn 0.12586168944835663 0.7813938856124878 0.6112139225006104 
vn -0.8405694961547852 -0.04531342536211014 -0.5398051738739014 
vn 0.0679575502872467 -0.7912154197692871 -0.607749879360199 
vt 0.04255582019686699 0.28126683831214905 
vt 0.053220879286527634 0.2640646994113922 
vt 0.04255582019686699 0.29967087507247925 
vt 0.053220879286527634 0.29967087507247925 
vt 0.04255582019686699 0.31815001368522644 
vt 0.053220879286527634 0.3353521525859833 
vt 0.01967938058078289 0.31815001368522644 
vt 0.008991580456495285 0.3353521525859833 
vt 0.01967938058078289 0.29967087507247925 
vt 0.008991580456495285 0.29967087507247925 
vt 0.01967938058078289 0.28126683831214905 
vt 0.008991580456495285 0.2640646994113922 
vt 0.04971892014145851 0.2570035755634308 
vt 0.04971892014145851 0.25925710797309875 
vt 0.01083352044224739 0.2570035755634308 
vt 0.01083352044224739 0.25925710797309875 
vt 0.055540360510349274 0.2784874439239502 
vt 0.04485255852341652 0.26128533482551575 
vt 0.055540360510349274 0.24288128316402435 
vt 0.04485255852341652 0.24288128316402435 
vt 0.04485255852341652 0.22440212965011597 
vt 0.055540360510349274 0.20720000565052032 
vt 0.02197612076997757 0.22440212965011597 
vt 0.011311059817671776 0.20720000565052032 
vt 0.011311059817671776 0.2784874439239502 
vt 0.02197612076997757 0.26128533482551575 
vt 0.033414341509342194 0.2784874439239502 
vt 0.033414341509342194 0.26128533482551575 
vt 0.04485255852341652 0.26128533482551575 
vt 0.042510341852903366 0.31401851773262024 
vt 0.016836879774928093 0.31401851773262024 
vt 0.042510341852903366 0.2780367434024811 
vt 0.016836879774928093 0.2780367434024811 
vt 0.042510341852903366 0.2420549839735031 
vt 0.016836879774928093 0.2420549839735031 
vt 0.053220879286527634 0.2640646994113922 
vt 0.04255582019686699 0.28126683831214905 
vt 0.008991580456495285 0.2640646994113922 
vt 0.01967938058078289 0.28126683831214905 
vt 0.011515719816088676 0.3546576201915741 
vt 0.011515719816088676 0.3504509925842285 
vt 0.030958419665694237 0.3546576201915741 
vt 0.030958419665694237 0.3504509925842285 
vt 0.050401121377944946 0.3546576201915741 
vt 0.050401121377944946 0.3504509925842285 
vt 0.011311059817671776 0.20720000565052032 
vt 0.02197612076997757 0.22440212965011597 
vt 0.011311059817671776 0.24288128316402435 
vt 0.02197612076997757 0.24288128316402435 
vt 0.02197612076997757 0.26128533482551575 
vt 0.011174620129168034 0.36096757650375366 
vt 0.011174620129168034 0.35848864912986755 
vt 0.05185648053884506 0.36096757650375366 
vt 0.05185648053884506 0.35848864912986755 
vt 0.042078278958797455 0.3148448169231415 
vt 0.01640482060611248 0.3148448169231415 
vt 0.042078278958797455 0.2788630425930023 
vt 0.01640482060611248 0.2788630425930023 
vt 0.042078278958797455 0.24288128316402435 
vt 0.01640482060611248 0.24288128316402435 
vt 0.015677139163017273 0.26181113719940186 
vt 0.0413505993783474 0.26181113719940186 
vt 0.015677139163017273 0.273379385471344 
vt 0.0413505993783474 0.273379385471344 
vt 0.015677139163017273 0.28494763374328613 
vt 0.0413505993783474 0.28494763374328613 
vt 0.014972199685871601 0.26181113719940186 
vt 0.04064565896987915 0.26181113719940186 
vt 0.014972199685871601 0.273379385471344 
vt 0.04064565896987915 0.273379385471344 
vt 0.014972199685871601 0.28494763374328613 
vt 0.04064565896987915 0.28494763374328613 
vt 0.012993820011615753 0.2451348453760147 
vt 0.012993820011615753 0.2431066483259201 
vt 0.030549099668860435 0.2451348453760147 
vt 0.030549099668860435 0.2431066483259201 
vt 0.04810437932610512 0.2451348453760147 
vt 0.04810437932610512 0.2431066483259201 
vt 0.008991580456495285 0.3353521525859833 
vt 0.01967938058078289 0.31815001368522644 
vt 0.031117599457502365 0.3353521525859833 
vt 0.031117599457502365 0.31815001368522644 
vt 0.053220879286527634 0.3353521525859833 
vt 0.04255582019686699 0.31815001368522644 
vt 0.011311059817671776 0.2784874439239502 
vt 0.055540360510349274 0.2784874439239502 
s on 
f 1/1/1 2/2/2 3/3/3 
f 2/2/2 4/4/4 3/3/3 
f 3/3/3 4/4/4 5/5/5 
f 4/4/4 6/6/6 5/5/5 
f 5/5/5 6/6/6 6/6/6 
f 6/6/6 7/7/7 6/6/6 
f 6/6/6 7/7/7 7/7/7 
f 7/7/7 8/8/8 7/7/7 
f 7/7/7 8/8/8 9/9/9 
f 8/8/8 10/10/10 9/9/9 
f 9/9/9 10/10/10 11/11/11 
f 10/10/10 12/12/12 11/11/11 
f 11/11/11 12/12/12 12/12/12 
f 12/12/12 13/13/13 12/12/12 
f 12/12/12 13/13/13 13/13/13 
f 13/13/13 14/14/14 13/13/13 
f 13/13/13 14/14/14 15/15/15 
f 14/14/14 16/16/16 15/15/15 
f 15/15/15 16/16/16 16/16/16 
f 16/16/16 17/17/17 16/16/16 
f 16/16/16 17/17/17 17/17/17 
f 17/17/17 18/18/18 17/17/17 
f 17/17/17 18/18/18 19/19/19 
f 18/18/18 20/20/20 19/19/19 
f 19/19/19 20/20/20 21/21/21 
f 20/20/20 21/21/21 21/21/21 
f 21/21/21 21/21/21 19/19/19 
f 21/21/21 19/19/19 19/19/19 
f 19/19/19 19/19/19 19/19/19 
f 19/19/19 21/21/21 19/19/19 
f 19/19/19 21/21/21 22/22/22 
f 21/21/21 23/23/23 22/22/22 
f 22/22/22 23/23/23 24/24/24 
f 23/23/23 24/24/24 24/24/24 
f 24/24/24 24/24/24 25/25/25 
f 24/24/24 25/25/25 25/25/25 
f 25/25/25 25/25/25 25/25/25 
f 25/25/25 26/26/26 25/25/25 
f 25/25/25 26/26/26 27/27/27 
f 26/26/26 28/28/28 27/27/27 
f 27/27/27 28/28/28 29/29/29 
f 28/28/28 29/29/29 29/29/29 
f 29/29/29 29/29/29 30/30/30 
f 29/29/29 30/30/30 30/30/30 
f 30/30/30 30/30/30 30/30/30 
f 30/30/30 31/31/31 30/30/30 
f 30/30/30 31/31/31 32/32/32 
f 31/31/31 33/33/33 32/32/32 
f 32/32/32 33/33/33 34/34/34 
f 33/33/33 35/35/35 34/34/34 
f 34/34/34 35/35/35 35/35/35 
f 35/35/35 36/36/36 35/35/35 
f 35/35/35 36/36/36 36/36/36 
f 36/36/36 37/37/37 36/36/36 
f 36/36/36 37/37/37 38/38/38 
f 37/37/37 39/39/39 38/38/38 
f 38/38/38 39/39/39 39/39/39 
f 39/39/39 40/40/40 39/39/39 
f 39/39/39 40/40/40 40/40/40 
f 40/40/40 41/41/41 40/40/40 
f 40/40/40 41/41/41 42/42/42 
f 41/41/41 43/43/43 42/42/42 
f 42/42/42 43/43/43 44/44/44 
f 43/43/43 45/45/45 44/44/44 
f 44/44/44 45/45/45 45/45/45 
f 45/45/45 46/46/46 45/45/45 
f 45/45/45 46/46/46 46/46/46 
f 46/46/46 47/47/47 46/46/46 
f 46/46/46 47/47/47 48/48/48 
f 47/47/47 49/49/49 48/48/48 
f 48/48/48 49/49/49 50/50/50 
f 49/49/49 50/50/50 50/50/50 
f 50/50/50 50/50/50 51/51/51 
f 50/50/50 51/51/51 51/51/51 
f 51/51/51 51/51/51 51/51/51 
f 51/51/51 52/52/52 51/51/51 
f 51/51/51 52/52/52 53/53/53 
f 52/52/52 54/54/54 53/53/53 
f 53/53/53 54/54/54 54/54/54 
f 54/54/54 55/55/55 54/54/54 
f 54/54/54 55/55/55 55/55/55 
f 55/55/55 56/56/56 55/55/55 
f 55/55/55 56/56/56 57/57/57 
f 56/56/56 58/58/58 57/57/57 
f 57/57/57 58/58/58 59/59/59 
f 58/58/58 60/60/60 59/59/59 
f 59/59/59 60/60/60 60/60/60 
f 60/60/60 61/61/61 60/60/60 
f 60/60/60 61/61/61 61/61/61 
f 61/61/61 62/62/62 61/61/61 
f 61/61/61 62/62/62 63/63/63 
f 62/62/62 64/64/64 63/63/63 
f 63/63/63 64/64/64 65/65/65 
f 64/64/64 66/66/66 65/65/65 
f 65/65/65 66/66/66 66/66/66 
f 66/66/66 67/67/67 66/66/66 
f 66/66/66 67/67/67 67/67/67 
f 67/67/67 68/68/68 67/67/67 
f 67/67/67 68/68/68 69/69/69 
f 68/68/68 70/70/70 69/69/69 
f 69/69/69 70/70/70 71/71/71 
f 70/70/70 72/72/72 71/71/71 
f 71/71/71 72/72/72 72/72/72 
f 72/72/72 73/73/73 72/72/72 
f 72/72/72 73/73/73 73/73/73 
f 73/73/73 74/74/74 73/73/73 
f 73/73/73 74/74/74 75/75/75 
f 74/74/74 76/76/76 75/75/75 
f 75/75/75 76/76/76 77/77/77 
f 76/76/76 78/78/78 77/77/77 
f 77/77/77 78/78/78 78/78/78 
f 78/78/78 79/79/79 78/78/78 
f 78/78/78 79/79/79 79/79/79 
f 79/79/79 80/80/80 79/79/79 
f 79/79/79 80/80/80 81/81/81 
f 80/80/80 82/82/82 81/81/81 
f 81/81/81 82/82/82 83/83/83 
f 82/82/82 84/84/84 83/83/83 
f 48/48/48 50/50/50 85/85/85 
f 27/27/27 29/29/29 86/86/86 

