mtllib model_23.mtl
o model_23
v 0.18157996237277985 -0.016027919948101044 0.05958786979317665 
v 0.12446519732475281 0.06848117709159851 0.0081490995362401 
v -0.17914484441280365 -0.016027919948101044 0.04143301025032997 
v -0.13104820251464844 0.0671810433268547 -0.006979949772357941 
v -0.19116899371147156 -0.01992833986878395 -0.12498653680086136 
v -0.14006632566452026 0.0645807608962059 -0.11893492192029953 
v -0.12804216146469116 0.0645807608962059 -0.2520705461502075 
v 0.18157996237277985 -0.021228479221463203 -0.30350932478904724 
v 0.13047727942466736 0.0645807608962059 -0.2490447461605072 
v 0.19059808552265167 -0.017328059300780296 -0.12498653680086136 
v 0.1364893615245819 0.0671810433268547 -0.12498653680086136 
v 0.12446519732475281 0.06848117709159851 0.0081490995362401 
v 0.06434439867734909 -0.00822708010673523 -0.040263861417770386 
v 0.07336252182722092 -0.00822708010673523 -0.1128832995891571 
v 0.12446519732475281 -0.09273617714643478 0.0081490995362401 
v 0.13348332047462463 -0.09403631836175919 -0.12498653680086136 
v 0.06434439867734909 -0.01082735974341631 -0.18852855265140533 
v 0.12145915627479553 -0.09663660079240799 -0.2490447461605072 
v 0.13047727942466736 0.0645807608962059 -0.2490447461605072 
v 0.0042236000299453735 0.0645807608962059 -0.2671996057033539 
v 0.06434439867734909 -0.01082735974341631 -0.18852855265140533 
v -0.0047945198602974415 -0.01082735974341631 -0.2036575973033905 
v -0.12804216146469116 0.0645807608962059 -0.2520705461502075 
v -0.07994551956653595 -0.009527220390737057 -0.18852855265140533 
v 0.06434439867734909 -0.01082735974341631 -0.18852855265140533 
v -0.0047945198602974415 -0.01082735974341631 -0.2036575973033905 
v 0.12145915627479553 -0.09663660079240799 -0.2490447461605072 
v 0.0042236000299453735 -0.09663660079240799 -0.26114797592163086 
v -0.07994551956653595 -0.009527220390737057 -0.18852855265140533 
v -0.1250361204147339 -0.09533645957708359 -0.24601894617080688 
v 0.12446519732475281 -0.09273617714643478 0.0081490995362401 
v -0.12804216146469116 -0.08753561973571777 -0.006979949772357941 
v 0.06434439867734909 -0.00822708010673523 -0.040263861417770386 
v -0.07693947851657867 -0.004326660186052322 -0.05539290979504585 
v -0.13104820251464844 0.0671810433268547 -0.006979949772357941 
v 0.12446519732475281 0.06848117709159851 0.0081490995362401 
v -0.07693947851657867 -0.004326660186052322 -0.05539290979504585 
v 0.06434439867734909 -0.00822708010673523 -0.040263861417770386 
v 0.12446519732475281 0.06848117709159851 0.0081490995362401 
v 0.1364893615245819 0.0671810433268547 -0.12498653680086136 
v 0.06434439867734909 -0.00822708010673523 -0.040263861417770386 
v 0.07336252182722092 -0.00822708010673523 -0.1128832995891571 
v 0.13047727942466736 0.0645807608962059 -0.2490447461605072 
v 0.06434439867734909 -0.01082735974341631 -0.18852855265140533 
v -0.07994551956653595 -0.009527220390737057 -0.18852855265140533 
v -0.09196967631578445 -0.00822708010673523 -0.10985749214887619 
v -0.1250361204147339 -0.09533645957708359 -0.24601894617080688 
v -0.14006632566452026 -0.09273617714643478 -0.11590910702943802 
v -0.07693947851657867 -0.004326660186052322 -0.05539290979504585 
v -0.12804216146469116 -0.08753561973571777 -0.006979949772357941 
v -0.12804216146469116 0.0645807608962059 -0.2520705461502075 
v -0.14006632566452026 0.0645807608962059 -0.11893492192029953 
v -0.07994551956653595 -0.009527220390737057 -0.18852855265140533 
v -0.09196967631578445 -0.00822708010673523 -0.10985749214887619 
v -0.13104820251464844 0.0671810433268547 -0.006979949772357941 
v -0.07693947851657867 -0.004326660186052322 -0.05539290979504585 
v -0.17914484441280365 -0.016027919948101044 0.04143301025032997 
v -0.19116899371147156 -0.01992833986878395 -0.12498653680086136 
v -0.12804216146469116 -0.08753561973571777 -0.006979949772357941 
v -0.14006632566452026 -0.09273617714643478 -0.11590910702943802 
v -0.17613880336284637 -0.021228479221463203 -0.3125867545604706 
v -0.1250361204147339 -0.09533645957708359 -0.24601894617080688 
v -0.17613880336284637 -0.021228479221463203 -0.3125867545604706 
v 0.0042236000299453735 -0.021228479221463203 -0.3246900141239166 
v -0.1250361204147339 -0.09533645957708359 -0.24601894617080688 
v 0.0042236000299453735 -0.09663660079240799 -0.26114797592163086 
v 0.18157996237277985 -0.021228479221463203 -0.30350932478904724 
v 0.12145915627479553 -0.09663660079240799 -0.2490447461605072 
v -0.12804216146469116 -0.08753561973571777 -0.006979949772357941 
v 0.12446519732475281 -0.09273617714643478 0.0081490995362401 
v -0.17914484441280365 -0.016027919948101044 0.04143301025032997 
v 0.18157996237277985 -0.016027919948101044 0.05958786979317665 
v 0.12446519732475281 -0.09273617714643478 0.0081490995362401 
v 0.13348332047462463 -0.09403631836175919 -0.12498653680086136 
v 0.18157996237277985 -0.016027919948101044 0.05958786979317665 
v 0.19059808552265167 -0.017328059300780296 -0.12498653680086136 
v 0.12145915627479553 -0.09663660079240799 -0.2490447461605072 
v 0.18157996237277985 -0.021228479221463203 -0.30350932478904724 
v 0.18157996237277985 -0.021228479221463203 -0.30350932478904724 
v 0.0042236000299453735 -0.021228479221463203 -0.3246900141239166 
v 0.13047727942466736 0.0645807608962059 -0.2490447461605072 
v 0.0042236000299453735 0.0645807608962059 -0.2671996057033539 
v -0.12804216146469116 0.0645807608962059 -0.2520705461502075 
v -0.17613880336284637 -0.021228479221463203 -0.3125867545604706 
v 0.18157996237277985 -0.016027919948101044 0.05958786979317665 
v -0.17613880336284637 -0.021228479221463203 -0.3125867545604706 
vn -0.045123957097530365 0.506168782711029 0.8612531423568726 
vn 0.0037741255946457386 0.910611629486084 0.41324591636657715 
vn -0.24935491383075714 0.5822988748550415 0.7737894654273987 
vn -0.18394456803798676 0.9707196354866028 -0.15449213981628418 
vn -0.8517991900444031 0.5237545371055603 -0.010923261754214764 
vn 0.2097964584827423 0.977332592010498 -0.028397228568792343 
vn -0.3825729191303253 0.9236127734184265 -0.024029340595006943 
vn 0.8420090675354004 0.5362324714660645 -0.058952588587999344 
vn 0.33319780230522156 0.9424291849136353 -0.028397228568792343 
vn 0.835639476776123 0.5492739677429199 -0.002184694167226553 
vn -0.2319493293762207 0.9726076722145081 -0.0152922747656703 
vn 0.354604035615921 0.935014009475708 -0.002184694167226553 
vn -0.807162344455719 -0.5864377617835999 -0.06767380982637405 
vn -0.8098864555358887 -0.5865500569343567 0.006554040592163801 
vn -0.807162344455719 -0.5864377617835999 -0.06767380982637405 
vn -0.8098864555358887 -0.5865500569343567 0.006554040592163801 
vn -0.8075448274612427 -0.5829833149909973 0.08945280313491821 
vn -0.8075448274612427 -0.5829833149909973 0.08945280313491821 
vn 0.024542832747101784 0.9384551644325256 -0.34452807903289795 
vn 0.0018864087760448456 0.9811546206474304 0.19321508705615997 
vn -0.13293735682964325 0.6598680019378662 0.7395281791687012 
vn -0.0037704522255808115 0.660087525844574 0.7511792182922363 
vn 0.007554769981652498 0.9474545121192932 -0.3198012113571167 
vn 0.11436887830495834 0.6534409523010254 0.7482877969741821 
vn -0.1309230625629425 -0.5881360769271851 0.7980946898460388 
vn 0.007531293202191591 -0.5849052667617798 0.8110666871070862 
vn -0.1309230625629425 -0.5881360769271851 0.7980946898460388 
vn 0.007531293202191591 -0.5849052667617798 0.8110666871070862 
vn 0.13435670733451843 -0.5693146586418152 0.8110666871070862 
vn 0.13435670733451843 -0.5693146586418152 0.8110666871070862 
vn 0.05468980595469475 -0.49382421374320984 -0.8678402304649353 
vn 0.05468980595469475 -0.49382421374320984 -0.8678402304649353 
vn 0.05468980595469475 -0.49382421374320984 -0.8678402304649353 
vn 0.05468980595469475 -0.49382421374320984 -0.8678402304649353 
vn -0.18394456803798676 0.9707196354866028 -0.15449213981628418 
vn 0.0037741255946457386 0.910611629486084 0.41324591636657715 
vn 0.06599921733140945 0.5339009761810303 -0.8429672718048096 
vn 0.06599921733140945 0.5339009761810303 -0.8429672718048096 
vn 0.354604035615921 0.935014009475708 -0.002184694167226553 
vn -0.2319493293762207 0.9726076722145081 -0.0152922747656703 
vn -0.7662237882614136 0.6369137167930603 -0.08510008454322815 
vn -0.7631204724311829 0.6458093523979187 -0.024029340595006943 
vn 0.33319780230522156 0.9424291849136353 -0.028397228568792343 
vn -0.7595444917678833 0.6488364338874817 0.04586252197623253 
vn 0.8514834642410278 -0.5104970932006836 0.11986933648586273 
vn 0.8516853451728821 -0.523684561252594 0.01966099627315998 
vn 0.8514834642410278 -0.5104970932006836 0.11986933648586273 
vn 0.8516853451728821 -0.523684561252594 0.01966099627315998 
vn 0.8412306904792786 -0.5300140976905823 -0.10684575140476227 
vn 0.8412306904792786 -0.5300140976905823 -0.10684575140476227 
vn -0.3825729191303253 0.9236127734184265 -0.024029340595006943 
vn 0.2097964584827423 0.977332592010498 -0.028397228568792343 
vn 0.8181166052818298 0.5673499703407288 0.09380380809307098 
vn 0.809809148311615 0.5864940881729126 -0.0152922747656703 
vn -0.18394456803798676 0.9707196354866028 -0.15449213981628418 
vn 0.7882099151611328 0.5978730320930481 -0.1458524912595749 
vn -0.8075448274612427 -0.5829833149909973 0.08945280313491821 
vn -0.8054338097572327 -0.5926494598388672 0.006554040592163801 
vn -0.8075448274612427 -0.5829833149909973 0.08945280313491821 
vn -0.8054338097572327 -0.5926494598388672 0.006554040592163801 
vn -0.8011392951011658 -0.5951195359230042 -0.0633138045668602 
vn -0.8011392951011658 -0.5951195359230042 -0.0633138045668602 
vn -0.06785660982131958 -0.6696966290473938 -0.7395281791687012 
vn 0.011336958967149258 -0.656711995601654 -0.7540562748908997 
vn -0.06785660982131958 -0.6696966290473938 -0.7395281791687012 
vn 0.011336958967149258 -0.656711995601654 -0.7540562748908997 
vn 0.09042678773403168 -0.6337618827819824 -0.7682244777679443 
vn 0.09042678773403168 -0.6337618827819824 -0.7682244777679443 
vn -0.0470244400203228 -0.5578986406326294 0.8285757899284363 
vn -0.0470244400203228 -0.5578986406326294 0.8285757899284363 
vn -0.0470244400203228 -0.5578986406326294 0.8285757899284363 
vn -0.0470244400203228 -0.5578986406326294 0.8285757899284363 
vn 0.7950977683067322 -0.6047447323799133 0.04586252197623253 
vn 0.7918164730072021 -0.6107551455497742 0.002184694167226553 
vn 0.7950977683067322 -0.6047447323799133 0.04586252197623253 
vn 0.7918164730072021 -0.6107551455497742 0.002184694167226553 
vn 0.786505401134491 -0.6161876320838928 -0.04149730131030083 
vn 0.786505401134491 -0.6161876320838928 -0.04149730131030083 
vn 0.10344163328409195 0.5721282958984375 -0.8136147856712341 
vn 0.020794622600078583 0.5810322761535645 -0.8136147856712341 
vn 0.024542832747101784 0.9384551644325256 -0.34452807903289795 
vn 0.0018864087760448456 0.9811546206474304 0.19321508705615997 
vn 0.007554769981652498 0.9474545121192932 -0.3198012113571167 
vn -0.047160614281892776 0.6076560020446777 -0.7927988767623901 
vn 0.818230926990509 0.573955237865448 0.03276457265019417 
vn -0.8356497287750244 0.5456014275550842 -0.0633138045668602 
vt 0.011311059817671776 0.20720000565052032 
vt 0.02197612076997757 0.22440212965011597 
vt 0.055540360510349274 0.20720000565052032 
vt 0.04485255852341652 0.22440212965011597 
vt 0.055540360510349274 0.24288128316402435 
vt 0.04485255852341652 0.24288128316402435 
vt 0.04485255852341652 0.26128533482551575 
vt 0.011311059817671776 0.2784874439239502 
vt 0.02197612076997757 0.26128533482551575 
vt 0.011311059817671776 0.24288128316402435 
vt 0.02197612076997757 0.24288128316402435 
vt 0.02197612076997757 0.22440212965011597 
vt 0.04255582019686699 0.28126683831214905 
vt 0.04255582019686699 0.29967087507247925 
vt 0.053220879286527634 0.2640646994113922 
vt 0.053220879286527634 0.29967087507247925 
vt 0.04255582019686699 0.31815001368522644 
vt 0.053220879286527634 0.3353521525859833 
vt 0.050401121377944946 0.3504509925842285 
vt 0.030958419665694237 0.3504509925842285 
vt 0.050401121377944946 0.3546576201915741 
vt 0.030958419665694237 0.3546576201915741 
vt 0.011515719816088676 0.3504509925842285 
vt 0.011515719816088676 0.3546576201915741 
vt 0.04255582019686699 0.31815001368522644 
vt 0.031117599457502365 0.31815001368522644 
vt 0.053220879286527634 0.3353521525859833 
vt 0.031117599457502365 0.3353521525859833 
vt 0.01967938058078289 0.31815001368522644 
vt 0.008991580456495285 0.3353521525859833 
vt 0.053220879286527634 0.2640646994113922 
vt 0.008991580456495285 0.2640646994113922 
vt 0.04255582019686699 0.28126683831214905 
vt 0.01967938058078289 0.28126683831214905 
vt 0.01083352044224739 0.25925710797309875 
vt 0.04971892014145851 0.25925710797309875 
vt 0.01083352044224739 0.2570035755634308 
vt 0.04971892014145851 0.2570035755634308 
vt 0.014972199685871601 0.26181113719940186 
vt 0.014972199685871601 0.273379385471344 
vt 0.04064565896987915 0.26181113719940186 
vt 0.04064565896987915 0.273379385471344 
vt 0.014972199685871601 0.28494763374328613 
vt 0.04064565896987915 0.28494763374328613 
vt 0.01967938058078289 0.31815001368522644 
vt 0.01967938058078289 0.29967087507247925 
vt 0.008991580456495285 0.3353521525859833 
vt 0.008991580456495285 0.29967087507247925 
vt 0.01967938058078289 0.28126683831214905 
vt 0.008991580456495285 0.2640646994113922 
vt 0.0413505993783474 0.28494763374328613 
vt 0.0413505993783474 0.273379385471344 
vt 0.015677139163017273 0.28494763374328613 
vt 0.015677139163017273 0.273379385471344 
vt 0.0413505993783474 0.26181113719940186 
vt 0.015677139163017273 0.26181113719940186 
vt 0.01640482060611248 0.24288128316402435 
vt 0.01640482060611248 0.2788630425930023 
vt 0.042078278958797455 0.24288128316402435 
vt 0.042078278958797455 0.2788630425930023 
vt 0.01640482060611248 0.3148448169231415 
vt 0.042078278958797455 0.3148448169231415 
vt 0.012993820011615753 0.2451348453760147 
vt 0.030549099668860435 0.2451348453760147 
vt 0.012993820011615753 0.2431066483259201 
vt 0.030549099668860435 0.2431066483259201 
vt 0.04810437932610512 0.2451348453760147 
vt 0.04810437932610512 0.2431066483259201 
vt 0.011174620129168034 0.36096757650375366 
vt 0.05185648053884506 0.36096757650375366 
vt 0.011174620129168034 0.35848864912986755 
vt 0.05185648053884506 0.35848864912986755 
vt 0.016836879774928093 0.2420549839735031 
vt 0.016836879774928093 0.2780367434024811 
vt 0.042510341852903366 0.2420549839735031 
vt 0.042510341852903366 0.2780367434024811 
vt 0.016836879774928093 0.31401851773262024 
vt 0.042510341852903366 0.31401851773262024 
vt 0.011311059817671776 0.2784874439239502 
vt 0.033414341509342194 0.2784874439239502 
vt 0.02197612076997757 0.26128533482551575 
vt 0.033414341509342194 0.26128533482551575 
vt 0.04485255852341652 0.26128533482551575 
vt 0.055540360510349274 0.2784874439239502 
vt 0.011311059817671776 0.20720000565052032 
vt 0.055540360510349274 0.2784874439239502 
s on 
f 1/1/1 2/2/2 3/3/3 
f 2/2/2 4/4/4 3/3/3 
f 3/3/3 4/4/4 5/5/5 
f 4/4/4 6/6/6 5/5/5 
f 5/5/5 6/6/6 7/7/7 
f 6/6/6 7/7/7 7/7/7 
f 7/7/7 7/7/7 8/8/8 
f 7/7/7 8/8/8 8/8/8 
f 8/8/8 8/8/8 8/8/8 
f 8/8/8 9/9/9 8/8/8 
f 8/8/8 9/9/9 10/10/10 
f 9/9/9 11/11/11 10/10/10 
f 10/10/10 11/11/11 12/12/12 
f 11/11/11 12/12/12 12/12/12 
f 12/12/12 12/12/12 13/13/13 
f 12/12/12 13/13/13 13/13/13 
f 13/13/13 13/13/13 13/13/13 
f 13/13/13 14/14/14 13/13/13 
f 13/13/13 14/14/14 15/15/15 
f 14/14/14 16/16/16 15/15/15 
f 15/15/15 16/16/16 16/16/16 
f 16/16/16 14/14/14 16/16/16 
f 16/16/16 14/14/14 14/14/14 
f 14/14/14 17/17/17 14/14/14 
f 14/14/14 17/17/17 16/16/16 
f 17/17/17 18/18/18 16/16/16 
f 16/16/16 18/18/18 18/18/18 
f 18/18/18 19/19/19 18/18/18 
f 18/18/18 19/19/19 19/19/19 
f 19/19/19 20/20/20 19/19/19 
f 19/19/19 20/20/20 21/21/21 
f 20/20/20 22/22/22 21/21/21 
f 21/21/21 22/22/22 22/22/22 
f 22/22/22 20/20/20 22/22/22 
f 22/22/22 20/20/20 20/20/20 
f 20/20/20 23/23/23 20/20/20 
f 20/20/20 23/23/23 22/22/22 
f 23/23/23 24/24/24 22/22/22 
f 22/22/22 24/24/24 24/24/24 
f 24/24/24 25/25/25 24/24/24 
f 24/24/24 25/25/25 25/25/25 
f 25/25/25 26/26/26 25/25/25 
f 25/25/25 26/26/26 27/27/27 
f 26/26/26 28/28/28 27/27/27 
f 27/27/27 28/28/28 28/28/28 
f 28/28/28 26/26/26 28/28/28 
f 28/28/28 26/26/26 26/26/26 
f 26/26/26 29/29/29 26/26/26 
f 26/26/26 29/29/29 28/28/28 
f 29/29/29 30/30/30 28/28/28 
f 28/28/28 30/30/30 30/30/30 
f 30/30/30 31/31/31 30/30/30 
f 30/30/30 31/31/31 31/31/31 
f 31/31/31 32/32/32 31/31/31 
f 31/31/31 32/32/32 33/33/33 
f 32/32/32 34/34/34 33/33/33 
f 33/33/33 34/34/34 34/34/34 
f 34/34/34 35/35/35 34/34/34 
f 34/34/34 35/35/35 35/35/35 
f 35/35/35 36/36/36 35/35/35 
f 35/35/35 36/36/36 37/37/37 
f 36/36/36 38/38/38 37/37/37 
f 37/37/37 38/38/38 38/38/38 
f 38/38/38 39/39/39 38/38/38 
f 38/38/38 39/39/39 39/39/39 
f 39/39/39 40/40/40 39/39/39 
f 39/39/39 40/40/40 41/41/41 
f 40/40/40 42/42/42 41/41/41 
f 41/41/41 42/42/42 42/42/42 
f 42/42/42 40/40/40 42/42/42 
f 42/42/42 40/40/40 40/40/40 
f 40/40/40 43/43/43 40/40/40 
f 40/40/40 43/43/43 42/42/42 
f 43/43/43 44/44/44 42/42/42 
f 42/42/42 44/44/44 44/44/44 
f 44/44/44 45/45/45 44/44/44 
f 44/44/44 45/45/45 45/45/45 
f 45/45/45 46/46/46 45/45/45 
f 45/45/45 46/46/46 47/47/47 
f 46/46/46 48/48/48 47/47/47 
f 47/47/47 48/48/48 48/48/48 
f 48/48/48 46/46/46 48/48/48 
f 48/48/48 46/46/46 46/46/46 
f 46/46/46 49/49/49 46/46/46 
f 46/46/46 49/49/49 48/48/48 
f 49/49/49 50/50/50 48/48/48 
f 48/48/48 50/50/50 50/50/50 
f 50/50/50 51/51/51 50/50/50 
f 50/50/50 51/51/51 51/51/51 
f 51/51/51 52/52/52 51/51/51 
f 51/51/51 52/52/52 53/53/53 
f 52/52/52 54/54/54 53/53/53 
f 53/53/53 54/54/54 54/54/54 
f 54/54/54 52/52/52 54/54/54 
f 54/54/54 52/52/52 52/52/52 
f 52/52/52 55/55/55 52/52/52 
f 52/52/52 55/55/55 54/54/54 
f 55/55/55 56/56/56 54/54/54 
f 54/54/54 56/56/56 56/56/56 
f 56/56/56 57/57/57 56/56/56 
f 56/56/56 57/57/57 57/57/57 
f 57/57/57 58/58/58 57/57/57 
f 57/57/57 58/58/58 59/59/59 
f 58/58/58 60/60/60 59/59/59 
f 59/59/59 60/60/60 60/60/60 
f 60/60/60 58/58/58 60/60/60 
f 60/60/60 58/58/58 58/58/58 
f 58/58/58 61/61/61 58/58/58 
f 58/58/58 61/61/61 60/60/60 
f 61/61/61 62/62/62 60/60/60 
f 60/60/60 62/62/62 62/62/62 
f 62/62/62 63/63/63 62/62/62 
f 62/62/62 63/63/63 63/63/63 
f 63/63/63 64/64/64 63/63/63 
f 63/63/63 64/64/64 65/65/65 
f 64/64/64 66/66/66 65/65/65 
f 65/65/65 66/66/66 66/66/66 
f 66/66/66 64/64/64 66/66/66 
f 66/66/66 64/64/64 64/64/64 
f 64/64/64 67/67/67 64/64/64 
f 64/64/64 67/67/67 66/66/66 
f 67/67/67 68/68/68 66/66/66 
f 66/66/66 68/68/68 68/68/68 
f 68/68/68 69/69/69 68/68/68 
f 68/68/68 69/69/69 69/69/69 
f 69/69/69 70/70/70 69/69/69 
f 69/69/69 70/70/70 71/71/71 
f 70/70/70 72/72/72 71/71/71 
f 71/71/71 72/72/72 72/72/72 
f 72/72/72 73/73/73 72/72/72 
f 72/72/72 73/73/73 73/73/73 
f 73/73/73 74/74/74 73/73/73 
f 73/73/73 74/74/74 75/75/75 
f 74/74/74 76/76/76 75/75/75 
f 75/75/75 76/76/76 76/76/76 
f 76/76/76 74/74/74 76/76/76 
f 76/76/76 74/74/74 74/74/74 
f 74/74/74 77/77/77 74/74/74 
f 74/74/74 77/77/77 76/76/76 
f 77/77/77 78/78/78 76/76/76 
f 76/76/76 78/78/78 78/78/78 
f 78/78/78 79/79/79 78/78/78 
f 78/78/78 79/79/79 79/79/79 
f 79/79/79 80/80/80 79/79/79 
f 79/79/79 80/80/80 81/81/81 
f 80/80/80 82/82/82 81/81/81 
f 81/81/81 82/82/82 82/82/82 
f 82/82/82 80/80/80 82/82/82 
f 82/82/82 80/80/80 83/83/83 
f 80/80/80 84/84/84 83/83/83 
f 10/10/10 12/12/12 85/85/85 
f 5/5/5 7/7/7 86/86/86 

