mtllib model_31.mtl
o model_31
v 0.1824912428855896 -0.01527697965502739 0.05664534866809845 
v 0.12538465857505798 0.06848237663507462 0.005610499996691942 
v -0.1781819462776184 -0.01527697965502739 0.044637151062488556 
v -0.13009218871593475 0.06717363744974136 -0.0033956500701606274 
v -0.19321000576019287 -0.020511940121650696 -0.12347765266895294 
v -0.14211462438106537 0.06455615907907486 -0.1174735501408577 
v -0.13009218871593475 0.06324741989374161 -0.24956375360488892 
v 0.1764800250530243 -0.02312942035496235 -0.30660268664360046 
v 0.12538465857505798 0.06324741989374161 -0.25256580114364624 
v 0.1885024756193161 -0.017894459888339043 -0.1294817477464676 
v 0.13440148532390594 0.06717363744974136 -0.12647970020771027 
v 0.12538465857505798 0.06848237663507462 0.005610499996691942 
v 0.06226684898138046 -0.008733280003070831 -0.04242229834198952 
v 0.07128368318080902 -0.008733280003070831 -0.11447150260210037 
v 0.12538465857505798 -0.09249264001846313 0.008612549863755703 
v 0.1313958764076233 -0.09511011838912964 -0.12647970020771027 
v 0.06226684898138046 -0.011350760236382484 -0.18952274322509766 
v 0.11937344074249268 -0.09772759675979614 -0.24956375360488892 
v 0.12538465857505798 0.06324741989374161 -0.25256580114364624 
v 0.0021546499338001013 0.06324741989374161 -0.26757603883743286 
v 0.06226684898138046 -0.011350760236382484 -0.18952274322509766 
v -0.006862179841846228 -0.011350760236382484 -0.20453299582004547 
v -0.13009218871593475 0.06324741989374161 -0.24956375360488892 
v -0.08500804007053375 -0.011350760236382484 -0.18652069568634033 
v 0.06226684898138046 -0.011350760236382484 -0.18952274322509766 
v -0.006862179841846228 -0.011350760236382484 -0.20453299582004547 
v 0.11937344074249268 -0.09772759675979614 -0.24956375360488892 
v -0.0008509599720127881 -0.09772759675979614 -0.2615719437599182 
v -0.08500804007053375 -0.011350760236382484 -0.18652069568634033 
v -0.13009218871593475 -0.09641885757446289 -0.24355964362621307 
v 0.12538465857505798 -0.09249264001846313 0.008612549863755703 
v -0.13009218871593475 -0.08725768327713013 -0.0033956500701606274 
v 0.06226684898138046 -0.008733280003070831 -0.04242229834198952 
v -0.07899682223796844 -0.0034983200021088123 -0.05443049967288971 
v -0.13009218871593475 0.06717363744974136 -0.0033956500701606274 
v 0.12538465857505798 0.06848237663507462 0.005610499996691942 
v -0.07899682223796844 -0.0034983200021088123 -0.05443049967288971 
v 0.06226684898138046 -0.008733280003070831 -0.04242229834198952 
v 0.12538465857505798 0.06848237663507462 0.005610499996691942 
v 0.13440148532390594 0.06717363744974136 -0.12647970020771027 
v 0.06226684898138046 -0.008733280003070831 -0.04242229834198952 
v 0.07128368318080902 -0.008733280003070831 -0.11447150260210037 
v 0.12538465857505798 0.06324741989374161 -0.25256580114364624 
v 0.06226684898138046 -0.011350760236382484 -0.18952274322509766 
v -0.08500804007053375 -0.011350760236382484 -0.18652069568634033 
v -0.09402486681938171 -0.008733280003070831 -0.10846740007400513 
v -0.13009218871593475 -0.09641885757446289 -0.24355964362621307 
v -0.14211462438106537 -0.09249264001846313 -0.11146944761276245 
v -0.07899682223796844 -0.0034983200021088123 -0.05443049967288971 
v -0.13009218871593475 -0.08725768327713013 -0.0033956500701606274 
v -0.13009218871593475 0.06324741989374161 -0.24956375360488892 
v -0.14211462438106537 0.06455615907907486 -0.1174735501408577 
v -0.08500804007053375 -0.011350760236382484 -0.18652069568634033 
v -0.09402486681938171 -0.008733280003070831 -0.10846740007400513 
v -0.13009218871593475 0.06717363744974136 -0.0033956500701606274 
v -0.07899682223796844 -0.0034983200021088123 -0.05443049967288971 
v -0.1781819462776184 -0.01527697965502739 0.044637151062488556 
v -0.19321000576019287 -0.020511940121650696 -0.12347765266895294 
v -0.13009218871593475 -0.08725768327713013 -0.0033956500701606274 
v -0.14211462438106537 -0.09249264001846313 -0.11146944761276245 
v -0.18419316411018372 -0.021820679306983948 -0.3096047639846802 
v -0.13009218871593475 -0.09641885757446289 -0.24355964362621307 
v -0.18419316411018372 -0.021820679306983948 -0.3096047639846802 
v -0.0008509599720127881 -0.02312942035496235 -0.3246150016784668 
v -0.13009218871593475 -0.09641885757446289 -0.24355964362621307 
v -0.0008509599720127881 -0.09772759675979614 -0.2615719437599182 
v 0.1764800250530243 -0.02312942035496235 -0.30660268664360046 
v 0.11937344074249268 -0.09772759675979614 -0.24956375360488892 
v -0.13009218871593475 -0.08725768327713013 -0.0033956500701606274 
v 0.12538465857505798 -0.09249264001846313 0.008612549863755703 
v -0.1781819462776184 -0.01527697965502739 0.044637151062488556 
v 0.1824912428855896 -0.01527697965502739 0.05664534866809845 
v 0.12538465857505798 -0.09249264001846313 0.008612549863755703 
v 0.1313958764076233 -0.09511011838912964 -0.12647970020771027 
v 0.1824912428855896 -0.01527697965502739 0.05664534866809845 
v 0.1885024756193161 -0.017894459888339043 -0.1294817477464676 
v 0.11937344074249268 -0.09772759675979614 -0.24956375360488892 
v 0.1764800250530243 -0.02312942035496235 -0.30660268664360046 
v 0.1764800250530243 -0.02312942035496235 -0.30660268664360046 
v -0.0008509599720127881 -0.02312942035496235 -0.3246150016784668 
v 0.12538465857505798 0.06324741989374161 -0.25256580114364624 
v 0.0021546499338001013 0.06324741989374161 -0.26757603883743286 
v -0.13009218871593475 0.06324741989374161 -0.24956375360488892 
v -0.18419316411018372 -0.021820679306983948 -0.3096047639846802 
v 0.1824912428855896 -0.01527697965502739 0.05664534866809845 
v -0.18419316411018372 -0.021820679306983948 -0.3096047639846802 
vn -0.024472827091813087 0.5113491415977478 0.8590245246887207 
vn 0.015085842460393906 0.9122917056083679 0.40926313400268555 
vn -0.23542693257331848 0.5880680084228516 0.7737894654273987 
vn -0.18394456803798676 0.9707196354866028 -0.15449213981628418 
vn -0.8518480062484741 0.5237845182418823 -0.002184694167226553 
vn 0.20973636209964752 0.9770526885986328 -0.03713129088282585 
vn -0.38260945677757263 0.9237009286880493 -0.01966099627315998 
vn 0.8406453132629395 0.5361716151237488 -0.0763898640871048 
vn 0.33310237526893616 0.9421592354774475 -0.03713129088282585 
vn 0.8354799747467041 0.54916912317276 -0.01966099627315998 
vn -0.2319493293762207 0.9726076722145081 -0.0152922747656703 
vn 0.3545634150505066 0.9349068999290466 -0.0152922747656703 
vn -0.8104648590087891 -0.5832380056381226 -0.05459024757146835 
vn -0.8096699714660645 -0.5863932967185974 0.024029340595006943 
vn -0.8104648590087891 -0.5832380056381226 -0.05459024757146835 
vn -0.8096699714660645 -0.5863932967185974 0.024029340595006943 
vn -0.8079188466072083 -0.5795266032218933 0.10684575140476227 
vn -0.8079188466072083 -0.5795266032218933 0.10684575140476227 
vn 0.022647753357887268 0.9369879961013794 -0.34862664341926575 
vn 0.0018880139105021954 0.9819895029067993 0.18892620503902435 
vn -0.11812423914670944 0.6626799702644348 0.7395281791687012 
vn 0.009421254508197308 0.6633073091506958 0.7482877969741821 
vn -0.001888304017484188 0.9460763931274414 -0.3239381015300751 
vn 0.12374575436115265 0.658359169960022 0.7424622178077698 
vn -0.11040858179330826 -0.5852107405662537 0.8033295273780823 
vn 0.01694483682513237 -0.5811573266983032 0.8136147856712341 
vn -0.11040858179330826 -0.5852107405662537 0.8033295273780823 
vn 0.01694483682513237 -0.5811573266983032 0.8136147856712341 
vn 0.148970827460289 -0.5656664967536926 0.8110666871070862 
vn 0.148970827460289 -0.5656664967536926 0.8110666871070862 
vn 0.03777121752500534 -0.499203622341156 -0.865661084651947 
vn 0.03777121752500534 -0.499203622341156 -0.865661084651947 
vn 0.03777121752500534 -0.499203622341156 -0.865661084651947 
vn 0.03777121752500534 -0.499203622341156 -0.865661084651947 
vn -0.18394456803798676 0.9707196354866028 -0.15449213981628418 
vn 0.015085842460393906 0.9122917056083679 0.40926313400268555 
vn 0.05283849686384201 0.5316572189331055 -0.8453097939491272 
vn 0.05283849686384201 0.5316572189331055 -0.8453097939491272 
vn 0.3545634150505066 0.9349068999290466 -0.0152922747656703 
vn -0.2319493293762207 0.9726076722145081 -0.0152922747656703 
vn -0.7699535489082336 0.6340211629867554 -0.07203252613544464 
vn -0.7632953524589539 0.645957350730896 -0.010923261754214764 
vn 0.33310237526893616 0.9421592354774475 -0.03713129088282585 
vn -0.7592107653617859 0.6485514044761658 0.05459024757146835 
vn 0.8534241318702698 -0.510148286819458 0.10684575140476227 
vn 0.8518317341804504 -0.5237745046615601 0.006554040592163801 
vn 0.8534241318702698 -0.510148286819458 0.10684575140476227 
vn 0.8518317341804504 -0.5237745046615601 0.006554040592163801 
vn 0.8396130800247192 -0.5297936201095581 -0.11986933648586273 
vn 0.8396130800247192 -0.5297936201095581 -0.11986933648586273 
vn -0.38260945677757263 0.9237009286880493 -0.01966099627315998 
vn 0.20973636209964752 0.9770526885986328 -0.03713129088282585 
vn 0.8197537064552307 0.5675988793373108 0.0763898640871048 
vn 0.809577226638794 0.5863261222839355 -0.028397228568792343 
vn -0.18394456803798676 0.9707196354866028 -0.15449213981628418 
vn 0.785115122795105 0.5974830985069275 -0.16312000155448914 
vn -0.8038675785064697 -0.5859100818634033 0.10250037163496017 
vn -0.805295467376709 -0.5925476551055908 0.01966099627315998 
vn -0.8038675785064697 -0.5859100818634033 0.10250037163496017 
vn -0.805295467376709 -0.5925476551055908 0.01966099627315998 
vn -0.8017366528511047 -0.5955632925033569 -0.05022686347365379 
vn -0.8017366528511047 -0.5955632925033569 -0.05022686347365379 
vn -0.08104649931192398 -0.6747121810913086 -0.7336177229881287 
vn -0.005665941629558802 -0.66007399559021 -0.7511792182922363 
vn -0.08104649931192398 -0.6747121810913086 -0.7336177229881287 
vn -0.005665941629558802 -0.66007399559021 -0.7511792182922363 
vn 0.08103073388338089 -0.6384091973304749 -0.7654199600219727 
vn 0.08103073388338089 -0.6384091973304749 -0.7654199600219727 
vn -0.03575129061937332 -0.5514572262763977 0.8334367275238037 
vn -0.03575129061937332 -0.5514572262763977 0.8334367275238037 
vn -0.03575129061937332 -0.5514572262763977 0.8334367275238037 
vn -0.03575129061937332 -0.5514572262763977 0.8334367275238037 
vn 0.7958589196205139 -0.6043424606323242 0.03713129088282585 
vn 0.791801393032074 -0.6107434630393982 -0.006554040592163801 
vn 0.7958589196205139 -0.6043424606323242 0.03713129088282585 
vn 0.791801393032074 -0.6107434630393982 -0.006554040592163801 
vn 0.7856971025466919 -0.6165689826011658 -0.05022686347365379 
vn 0.7856971025466919 -0.6165689826011658 -0.05022686347365379 
vn 0.08478931337594986 0.5679782629013062 -0.8186644315719604 
vn 0.0018911174265667796 0.5742690563201904 -0.8186644315719604 
vn 0.022647753357887268 0.9369879961013794 -0.34862664341926575 
vn 0.0018880139105021954 0.9819895029067993 0.18892620503902435 
vn -0.001888304017484188 0.9460763931274414 -0.3239381015300751 
vn -0.06033945828676224 0.6030020713806152 -0.7954543828964233 
vn 0.8185747265815735 0.574196457862854 0.0152922747656703 
vn -0.8360810875892639 0.545883059501648 -0.05459024757146835 
vt 0.011311059817671776 0.20720000565052032 
vt 0.02197612076997757 0.22440212965011597 
vt 0.055540360510349274 0.20720000565052032 
vt 0.04485255852341652 0.22440212965011597 
vt 0.055540360510349274 0.24288128316402435 
vt 0.04485255852341652 0.24288128316402435 
vt 0.04485255852341652 0.26128533482551575 
vt 0.011311059817671776 0.2784874439239502 
vt 0.02197612076997757 0.26128533482551575 
vt 0.011311059817671776 0.24288128316402435 
vt 0.02197612076997757 0.24288128316402435 
vt 0.02197612076997757 0.22440212965011597 
vt 0.04255582019686699 0.28126683831214905 
vt 0.04255582019686699 0.29967087507247925 
vt 0.053220879286527634 0.2640646994113922 
vt 0.053220879286527634 0.29967087507247925 
vt 0.04255582019686699 0.31815001368522644 
vt 0.053220879286527634 0.3353521525859833 
vt 0.050401121377944946 0.3504509925842285 
vt 0.030958419665694237 0.3504509925842285 
vt 0.050401121377944946 0.3546576201915741 
vt 0.030958419665694237 0.3546576201915741 
vt 0.011515719816088676 0.3504509925842285 
vt 0.011515719816088676 0.3546576201915741 
vt 0.04255582019686699 0.31815001368522644 
vt 0.031117599457502365 0.31815001368522644 
vt 0.053220879286527634 0.3353521525859833 
vt 0.031117599457502365 0.3353521525859833 
vt 0.01967938058078289 0.31815001368522644 
vt 0.008991580456495285 0.3353521525859833 
vt 0.053220879286527634 0.2640646994113922 
vt 0.008991580456495285 0.2640646994113922 
vt 0.04255582019686699 0.28126683831214905 
vt 0.01967938058078289 0.28126683831214905 
vt 0.01083352044224739 0.25925710797309875 
vt 0.04971892014145851 0.25925710797309875 
vt 0.01083352044224739 0.2570035755634308 
vt 0.04971892014145851 0.2570035755634308 
vt 0.014972199685871601 0.26181113719940186 
vt 0.014972199685871601 0.273379385471344 
vt 0.04064565896987915 0.26181113719940186 
vt 0.04064565896987915 0.273379385471344 
vt 0.014972199685871601 0.28494763374328613 
vt 0.04064565896987915 0.28494763374328613 
vt 0.01967938058078289 0.31815001368522644 
vt 0.01967938058078289 0.29967087507247925 
vt 0.008991580456495285 0.3353521525859833 
vt 0.008991580456495285 0.29967087507247925 
vt 0.01967938058078289 0.28126683831214905 
vt 0.008991580456495285 0.2640646994113922 
vt 0.0413505993783474 0.28494763374328613 
vt 0.0413505993783474 0.273379385471344 
vt 0.015677139163017273 0.28494763374328613 
vt 0.015677139163017273 0.273379385471344 
vt 0.0413505993783474 0.26181113719940186 
vt 0.015677139163017273 0.26181113719940186 
vt 0.01640482060611248 0.24288128316402435 
vt 0.01640482060611248 0.2788630425930023 
vt 0.042078278958797455 0.24288128316402435 
vt 0.042078278958797455 0.2788630425930023 
vt 0.01640482060611248 0.3148448169231415 
vt 0.042078278958797455 0.3148448169231415 
vt 0.012993820011615753 0.2451348453760147 
vt 0.030549099668860435 0.2451348453760147 
vt 0.012993820011615753 0.2431066483259201 
vt 0.030549099668860435 0.2431066483259201 
vt 0.04810437932610512 0.2451348453760147 
vt 0.04810437932610512 0.2431066483259201 
vt 0.011174620129168034 0.36096757650375366 
vt 0.05185648053884506 0.36096757650375366 
vt 0.011174620129168034 0.35848864912986755 
vt 0.05185648053884506 0.35848864912986755 
vt 0.016836879774928093 0.2420549839735031 
vt 0.016836879774928093 0.2780367434024811 
vt 0.042510341852903366 0.2420549839735031 
vt 0.042510341852903366 0.2780367434024811 
vt 0.016836879774928093 0.31401851773262024 
vt 0.042510341852903366 0.31401851773262024 
vt 0.011311059817671776 0.2784874439239502 
vt 0.033414341509342194 0.2784874439239502 
vt 0.02197612076997757 0.26128533482551575 
vt 0.033414341509342194 0.26128533482551575 
vt 0.04485255852341652 0.26128533482551575 
vt 0.055540360510349274 0.2784874439239502 
vt 0.011311059817671776 0.20720000565052032 
vt 0.055540360510349274 0.2784874439239502 
s on 
f 1/1/1 2/2/2 3/3/3 
f 2/2/2 4/4/4 3/3/3 
f 3/3/3 4/4/4 5/5/5 
f 4/4/4 6/6/6 5/5/5 
f 5/5/5 6/6/6 7/7/7 
f 6/6/6 7/7/7 7/7/7 
f 7/7/7 7/7/7 8/8/8 
f 7/7/7 8/8/8 8/8/8 
f 8/8/8 8/8/8 8/8/8 
f 8/8/8 9/9/9 8/8/8 
f 8/8/8 9/9/9 10/10/10 
f 9/9/9 11/11/11 10/10/10 
f 10/10/10 11/11/11 12/12/12 
f 11/11/11 12/12/12 12/12/12 
f 12/12/12 12/12/12 13/13/13 
f 12/12/12 13/13/13 13/13/13 
f 13/13/13 13/13/13 13/13/13 
f 13/13/13 14/14/14 13/13/13 
f 13/13/13 14/14/14 15/15/15 
f 14/14/14 16/16/16 15/15/15 
f 15/15/15 16/16/16 16/16/16 
f 16/16/16 14/14/14 16/16/16 
f 16/16/16 14/14/14 14/14/14 
f 14/14/14 17/17/17 14/14/14 
f 14/14/14 17/17/17 16/16/16 
f 17/17/17 18/18/18 16/16/16 
f 16/16/16 18/18/18 18/18/18 
f 18/18/18 19/19/19 18/18/18 
f 18/18/18 19/19/19 19/19/19 
f 19/19/19 20/20/20 19/19/19 
f 19/19/19 20/20/20 21/21/21 
f 20/20/20 22/22/22 21/21/21 
f 21/21/21 22/22/22 22/22/22 
f 22/22/22 20/20/20 22/22/22 
f 22/22/22 20/20/20 20/20/20 
f 20/20/20 23/23/23 20/20/20 
f 20/20/20 23/23/23 22/22/22 
f 23/23/23 24/24/24 22/22/22 
f 22/22/22 24/24/24 24/24/24 
f 24/24/24 25/25/25 24/24/24 
f 24/24/24 25/25/25 25/25/25 
f 25/25/25 26/26/26 25/25/25 
f 25/25/25 26/26/26 27/27/27 
f 26/26/26 28/28/28 27/27/27 
f 27/27/27 28/28/28 28/28/28 
f 28/28/28 26/26/26 28/28/28 
f 28/28/28 26/26/26 26/26/26 
f 26/26/26 29/29/29 26/26/26 
f 26/26/26 29/29/29 28/28/28 
f 29/29/29 30/30/30 28/28/28 
f 28/28/28 30/30/30 30/30/30 
f 30/30/30 31/31/31 30/30/30 
f 30/30/30 31/31/31 31/31/31 
f 31/31/31 32/32/32 31/31/31 
f 31/31/31 32/32/32 33/33/33 
f 32/32/32 34/34/34 33/33/33 
f 33/33/33 34/34/34 34/34/34 
f 34/34/34 35/35/35 34/34/34 
f 34/34/34 35/35/35 35/35/35 
f 35/35/35 36/36/36 35/35/35 
f 35/35/35 36/36/36 37/37/37 
f 36/36/36 38/38/38 37/37/37 
f 37/37/37 38/38/38 38/38/38 
f 38/38/38 39/39/39 38/38/38 
f 38/38/38 39/39/39 39/39/39 
f 39/39/39 40/40/40 39/39/39 
f 39/39/39 40/40/40 41/41/41 
f 40/40/40 42/42/42 41/41/41 
f 41/41/41 42/42/42 42/42/42 
f 42/42/42 40/40/40 42/42/42 
f 42/42/42 40/40/40 40/40/40 
f 40/40/40 43/43/43 40/40/40 
f 40/40/40 43/43/43 42/42/42 
f 43/43/43 44/44/44 42/42/42 
f 42/42/42 44/44/44 44/44/44 
f 44/44/44 45/45/45 44/44/44 
f 44/44/44 45/45/45 45/45/45 
f 45/45/45 46/46/46 45/45/45 
f 45/45/45 46/46/46 47/47/47 
f 46/46/46 48/48/48 47/47/47 
f 47/47/47 48/48/48 48/48/48 
f 48/48/48 46/46/46 48/48/48 
f 48/48/48 46/46/46 46/46/46 
f 46/46/46 49/49/49 46/46/46 
f 46/46/46 49/49/49 48/48/48 
f 49/49/49 50/50/50 48/48/48 
f 48/48/48 50/50/50 50/50/50 
f 50/50/50 51/51/51 50/50/50 
f 50/50/50 51/51/51 51/51/51 
f 51/51/51 52/52/52 51/51/51 
f 51/51/51 52/52/52 53/53/53 
f 52/52/52 54/54/54 53/53/53 
f 53/53/53 54/54/54 54/54/54 
f 54/54/54 52/52/52 54/54/54 
f 54/54/54 52/52/52 52/52/52 
f 52/52/52 55/55/55 52/52/52 
f 52/52/52 55/55/55 54/54/54 
f 55/55/55 56/56/56 54/54/54 
f 54/54/54 56/56/56 56/56/56 
f 56/56/56 57/57/57 56/56/56 
f 56/56/56 57/57/57 57/57/57 
f 57/57/57 58/58/58 57/57/57 
f 57/57/57 58/58/58 59/59/59 
f 58/58/58 60/60/60 59/59/59 
f 59/59/59 60/60/60 60/60/60 
f 60/60/60 58/58/58 60/60/60 
f 60/60/60 58/58/58 58/58/58 
f 58/58/58 61/61/61 58/58/58 
f 58/58/58 61/61/61 60/60/60 
f 61/61/61 62/62/62 60/60/60 
f 60/60/60 62/62/62 62/62/62 
f 62/62/62 63/63/63 62/62/62 
f 62/62/62 63/63/63 63/63/63 
f 63/63/63 64/64/64 63/63/63 
f 63/63/63 64/64/64 65/65/65 
f 64/64/64 66/66/66 65/65/65 
f 65/65/65 66/66/66 66/66/66 
f 66/66/66 64/64/64 66/66/66 
f 66/66/66 64/64/64 64/64/64 
f 64/64/64 67/67/67 64/64/64 
f 64/64/64 67/67/67 66/66/66 
f 67/67/67 68/68/68 66/66/66 
f 66/66/66 68/68/68 68/68/68 
f 68/68/68 69/69/69 68/68/68 
f 68/68/68 69/69/69 69/69/69 
f 69/69/69 70/70/70 69/69/69 
f 69/69/69 70/70/70 71/71/71 
f 70/70/70 72/72/72 71/71/71 
f 71/71/71 72/72/72 72/72/72 
f 72/72/72 73/73/73 72/72/72 
f 72/72/72 73/73/73 73/73/73 
f 73/73/73 74/74/74 73/73/73 
f 73/73/73 74/74/74 75/75/75 
f 74/74/74 76/76/76 75/75/75 
f 75/75/75 76/76/76 76/76/76 
f 76/76/76 74/74/74 76/76/76 
f 76/76/76 74/74/74 74/74/74 
f 74/74/74 77/77/77 74/74/74 
f 74/74/74 77/77/77 76/76/76 
f 77/77/77 78/78/78 76/76/76 
f 76/76/76 78/78/78 78/78/78 
f 78/78/78 79/79/79 78/78/78 
f 78/78/78 79/79/79 79/79/79 
f 79/79/79 80/80/80 79/79/79 
f 79/79/79 80/80/80 81/81/81 
f 80/80/80 82/82/82 81/81/81 
f 81/81/81 82/82/82 82/82/82 
f 82/82/82 80/80/80 82/82/82 
f 82/82/82 80/80/80 83/83/83 
f 80/80/80 84/84/84 83/83/83 
f 10/10/10 12/12/12 85/85/85 
f 5/5/5 7/7/7 86/86/86 

