mtllib model_29.mtl
o model_29
v -0.2617853283882141 0.04144442081451416 0.05417659878730774 
v 0.07444147020578384 0.04022945836186409 0.040102601051330566 
v -0.20854942500591278 0.12041682004928589 0.006324999965727329 
v 0.02961122989654541 0.11798690259456635 -0.004934200085699558 
v 0.0856490284204483 0.036584578454494476 -0.11752620339393616 
v 0.04081879183650017 0.1155569776892662 -0.11189659684896469 
v 0.026809340342879295 0.1155569776892662 -0.2357477992773056 
v 0.07444147020578384 0.035369619727134705 -0.2920438051223755 
v -0.25898343324661255 0.036584578454494476 -0.2835994064807892 
v -0.2701910138130188 0.04022945836186409 -0.11752620339393616 
v -0.21135130524635315 0.11677193641662598 -0.23293299973011017 
v -0.21975697576999664 0.11920186132192612 -0.11752620339393616 
v -0.20854942500591278 0.12041682004928589 0.006324999965727329 
v -0.2617853283882141 0.04144442081451416 0.05417659878730774 
v -0.1525116264820099 0.046304259449243546 -0.17663699388504028 
v -0.20574752986431122 -0.033883098512887955 -0.23293299973011017 
v -0.0880681499838829 0.046304259449243546 -0.19071100652217865 
v -0.09367193281650543 -0.033883098512887955 -0.2441921979188919 
v -0.01802089996635914 0.046304259449243546 -0.17663699388504028 
v 0.02400745078921318 -0.033883098512887955 -0.2273034006357193 
v -0.25898343324661255 0.036584578454494476 -0.2835994064807892 
v -0.21135130524635315 0.11677193641662598 -0.23293299973011017 
v -0.0964738205075264 0.035369619727134705 -0.3033030033111572 
v -0.0964738205075264 0.1155569776892662 -0.24982179701328278 
v 0.026809340342879295 0.1155569776892662 -0.2357477992773056 
v -0.01802089996635914 0.046304259449243546 -0.17663699388504028 
v 0.02400745078921318 -0.033883098512887955 -0.2273034006357193 
v -0.00681333988904953 0.04873418062925339 -0.10345219820737839 
v 0.038016900420188904 -0.03023822046816349 -0.10626699775457382 
v -0.020822789520025253 0.052379060536623 -0.049970999360084534 
v 0.026809340342879295 -0.026593340560793877 -0.00774900009855628 
v -0.01802089996635914 0.046304259449243546 -0.17663699388504028 
v 0.026809340342879295 0.1155569776892662 -0.2357477992773056 
v -0.0880681499838829 0.046304259449243546 -0.19071100652217865 
v -0.0964738205075264 0.1155569776892662 -0.24982179701328278 
v -0.1525116264820099 0.046304259449243546 -0.17663699388504028 
v -0.21135130524635315 0.11677193641662598 -0.23293299973011017 
v -0.020822789520025253 0.052379060536623 -0.049970999360084534 
v 0.026809340342879295 -0.026593340560793877 -0.00774900009855628 
v -0.1525116264820099 0.04873418062925339 -0.044341400265693665 
v -0.21135130524635315 -0.03023822046816349 0.006324999965727329 
v -0.1525116264820099 0.046304259449243546 -0.17663699388504028 
v -0.21135130524635315 0.11677193641662598 -0.23293299973011017 
v -0.16091729700565338 0.04873418062925339 -0.10626699775457382 
v -0.21975697576999664 0.11920186132192612 -0.11752620339393616 
v -0.1525116264820099 0.04873418062925339 -0.044341400265693665 
v -0.20854942500591278 0.12041682004928589 0.006324999965727329 
v -0.25898343324661255 0.036584578454494476 -0.2835994064807892 
v -0.20574752986431122 -0.033883098512887955 -0.23293299973011017 
v -0.2701910138130188 0.04022945836186409 -0.11752620339393616 
v -0.21695509552955627 -0.03145318105816841 -0.11752620339393616 
v -0.2617853283882141 0.04144442081451416 0.05417659878730774 
v -0.21135130524635315 -0.03023822046816349 0.006324999965727329 
v 0.07444147020578384 0.04022945836186409 0.040102601051330566 
v 0.026809340342879295 -0.026593340560793877 -0.00774900009855628 
v 0.0856490284204483 0.036584578454494476 -0.11752620339393616 
v 0.038016900420188904 -0.03023822046816349 -0.10626699775457382 
v 0.07444147020578384 0.035369619727134705 -0.2920438051223755 
v 0.02400745078921318 -0.033883098512887955 -0.2273034006357193 
v 0.026809340342879295 -0.026593340560793877 -0.00774900009855628 
v 0.07444147020578384 0.04022945836186409 0.040102601051330566 
v -0.21135130524635315 -0.03023822046816349 0.006324999965727329 
v -0.2617853283882141 0.04144442081451416 0.05417659878730774 
v -0.20574752986431122 -0.033883098512887955 -0.23293299973011017 
v -0.1525116264820099 0.046304259449243546 -0.17663699388504028 
v -0.21695509552955627 -0.03145318105816841 -0.11752620339393616 
v -0.16091729700565338 0.04873418062925339 -0.10626699775457382 
v -0.21135130524635315 -0.03023822046816349 0.006324999965727329 
v -0.1525116264820099 0.04873418062925339 -0.044341400265693665 
v 0.02961122989654541 0.11798690259456635 -0.004934200085699558 
v -0.020822789520025253 0.052379060536623 -0.049970999360084534 
v -0.20854942500591278 0.12041682004928589 0.006324999965727329 
v -0.1525116264820099 0.04873418062925339 -0.044341400265693665 
v -0.20574752986431122 -0.033883098512887955 -0.23293299973011017 
v -0.25898343324661255 0.036584578454494476 -0.2835994064807892 
v -0.09367193281650543 -0.033883098512887955 -0.2441921979188919 
v -0.0964738205075264 0.035369619727134705 -0.3033030033111572 
v 0.02400745078921318 -0.033883098512887955 -0.2273034006357193 
v 0.07444147020578384 0.035369619727134705 -0.2920438051223755 
v 0.026809340342879295 0.1155569776892662 -0.2357477992773056 
v -0.01802089996635914 0.046304259449243546 -0.17663699388504028 
v 0.04081879183650017 0.1155569776892662 -0.11189659684896469 
v -0.00681333988904953 0.04873418062925339 -0.10345219820737839 
v 0.02961122989654541 0.11798690259456635 -0.004934200085699558 
v -0.020822789520025253 0.052379060536623 -0.049970999360084534 
v 0.07444147020578384 0.035369619727134705 -0.2920438051223755 
vn 0.037618447095155716 0.5067818760871887 0.8612531423568726 
vn 0.24935491383075714 0.5822988748550415 0.7737894654273987 
vn -0.005660997703671455 0.9141783714294434 0.405272513628006 
vn 0.1857011765241623 0.9710627794265747 -0.15017375349998474 
vn 0.8557302355766296 0.517306923866272 -0.010923261754214764 
vn -0.2097964584827423 0.977332592010498 -0.028397228568792343 
vn 0.3895370066165924 0.9206972718238831 -0.024029340595006943 
vn 0.8377063870429993 0.5424383282661438 -0.0633138045668602 
vn -0.8397510647773743 0.5392675399780273 -0.0633138045668602 
vn -0.8314517736434937 0.5555583238601685 -0.006554040592163801 
vn -0.33315327763557434 0.9423032402992249 -0.03276457265019417 
vn 0.23928767442703247 0.9708282947540283 -0.0152922747656703 
vn -0.37568747997283936 0.9267232418060303 -0.006554040592163801 
vn -0.8139820098876953 0.5801956057548523 0.028397228568792343 
vn 0.12355170398950577 -0.5897286534309387 0.7980946898460388 
vn 0.12355170398950577 -0.5897286534309387 0.7980946898460388 
vn -0.015061338432133198 -0.5847598314285278 0.8110666871070862 
vn -0.015061338432133198 -0.5847598314285278 0.8110666871070862 
vn -0.14167550206184387 -0.5675376057624817 0.8110666871070862 
vn -0.14167550206184387 -0.5675376057624817 0.8110666871070862 
vn -0.09039467573165894 0.5707295536994934 -0.8161473870277405 
vn -0.020767685025930405 0.9385462999343872 -0.34452807903289795 
vn -0.015126186423003674 0.5776457190513611 -0.8161473870277405 
vn 0.0018864087760448456 0.9811546206474304 0.19321508705615997 
vn -0.001888304017484188 0.9460763931274414 -0.3239381015300751 
vn -0.8541898727416992 -0.506963849067688 0.11553031951189041 
vn -0.8541898727416992 -0.506963849067688 0.11553031951189041 
vn -0.8556811809539795 -0.5172773003578186 0.0152922747656703 
vn -0.8556811809539795 -0.5172773003578186 0.0152922747656703 
vn -0.8428340554237366 -0.5265622138977051 -0.1111890971660614 
vn -0.8428340554237366 -0.5265622138977051 -0.1111890971660614 
vn -0.11065485328435898 0.6540801525115967 0.7482877969741821 
vn -0.001888304017484188 0.9460763931274414 -0.3239381015300751 
vn 0.0037704522255808115 0.660087525844574 0.7511792182922363 
vn 0.0018864087760448456 0.9811546206474304 0.19321508705615997 
vn 0.12924005091190338 0.6606020927429199 0.7395281791687012 
vn -0.020767685025930405 0.9385462999343872 -0.34452807903289795 
vn -0.03774012252688408 -0.5180487632751465 -0.8545181155204773 
vn -0.03774012252688408 -0.5180487632751465 -0.8545181155204773 
vn -0.03774012252688408 -0.5180487632751465 -0.8545181155204773 
vn -0.03774012252688408 -0.5180487632751465 -0.8545181155204773 
vn 0.7619920372962952 0.6459603905677795 0.04586252197623253 
vn -0.33315327763557434 0.9423032402992249 -0.03276457265019417 
vn 0.7680490612983704 0.6400890946388245 -0.01966099627315998 
vn 0.23928767442703247 0.9708282947540283 -0.0152922747656703 
vn 0.7689114212989807 0.6342360377311707 -0.08074574917554855 
vn -0.37568747997283936 0.9267232418060303 -0.006554040592163801 
vn -0.7928058505058289 -0.6077463030815125 -0.04586252197623253 
vn -0.7928058505058289 -0.6077463030815125 -0.04586252197623253 
vn -0.7964062690734863 -0.604758083820343 0.002184694167226553 
vn -0.7964062690734863 -0.604758083820343 0.002184694167226553 
vn -0.7973783016204834 -0.6017345786094666 0.04586252197623253 
vn -0.7973783016204834 -0.6017345786094666 0.04586252197623253 
vn 0.8053297400474548 -0.5860394239425659 0.08945280313491821 
vn 0.8053297400474548 -0.5860394239425659 0.08945280313491821 
vn 0.8054338097572327 -0.5926494598388672 0.006554040592163801 
vn 0.8054338097572327 -0.5926494598388672 0.006554040592163801 
vn 0.7990975379943848 -0.598304033279419 -0.058952588587999344 
vn 0.7990975379943848 -0.598304033279419 -0.058952588587999344 
vn 0.045144639909267426 -0.554416298866272 0.8310141563415527 
vn 0.045144639909267426 -0.554416298866272 0.8310141563415527 
vn 0.045144639909267426 -0.554416298866272 0.8310141563415527 
vn 0.045144639909267426 -0.554416298866272 0.8310141563415527 
vn 0.8050060272216797 -0.5858038067817688 0.09380380809307098 
vn 0.8050060272216797 -0.5858038067817688 0.09380380809307098 
vn 0.8054030537605286 -0.5926268100738525 0.010923261754214764 
vn 0.8054030537605286 -0.5926268100738525 0.010923261754214764 
vn 0.802699863910675 -0.5925312042236328 -0.06767380982637405 
vn 0.802699863910675 -0.5925312042236328 -0.06767380982637405 
vn 0.1857011765241623 0.9710627794265747 -0.15017375349998474 
vn -0.04534226283431053 0.5616647005081177 -0.8261215686798096 
vn -0.005660997703671455 0.9141783714294434 0.405272513628006 
vn -0.04534226283431053 0.5616647005081177 -0.8261215686798096 
vn -0.09042678773403168 -0.6337618827819824 -0.7682244777679443 
vn -0.09042678773403168 -0.6337618827819824 -0.7682244777679443 
vn -0.0037791531067341566 -0.6567989587783813 -0.7540562748908997 
vn -0.0037791531067341566 -0.6567989587783813 -0.7540562748908997 
vn 0.07170049101114273 -0.672539234161377 -0.736579954624176 
vn 0.07170049101114273 -0.672539234161377 -0.736579954624176 
vn 0.3895370066165924 0.9206972718238831 -0.024029340595006943 
vn -0.8119401335716248 0.5768460631370544 0.08945280313491821 
vn -0.2097964584827423 0.977332592010498 -0.028397228568792343 
vn -0.805295467376709 0.5925476551055908 -0.01966099627315998 
vn 0.1857011765241623 0.9710627794265747 -0.15017375349998474 
vn -0.7808009386062622 0.6064632534980774 -0.15017375349998474 
vn 0.050924986600875854 0.6073521375656128 -0.7927988767623901 
vt 0.011311059817671776 0.20720000565052032 
vt 0.055540360510349274 0.20720000565052032 
vt 0.02197612076997757 0.22440212965011597 
vt 0.04485255852341652 0.22440212965011597 
vt 0.055540360510349274 0.24288128316402435 
vt 0.04485255852341652 0.24288128316402435 
vt 0.04485255852341652 0.26128533482551575 
vt 0.055540360510349274 0.2784874439239502 
vt 0.011311059817671776 0.2784874439239502 
vt 0.011311059817671776 0.24288128316402435 
vt 0.02197612076997757 0.26128533482551575 
vt 0.02197612076997757 0.24288128316402435 
vt 0.02197612076997757 0.22440212965011597 
vt 0.011311059817671776 0.20720000565052032 
vt 0.04255582019686699 0.31815001368522644 
vt 0.053220879286527634 0.3353521525859833 
vt 0.031117599457502365 0.31815001368522644 
vt 0.031117599457502365 0.3353521525859833 
vt 0.01967938058078289 0.31815001368522644 
vt 0.008991580456495285 0.3353521525859833 
vt 0.011311059817671776 0.2784874439239502 
vt 0.02197612076997757 0.26128533482551575 
vt 0.033414341509342194 0.2784874439239502 
vt 0.033414341509342194 0.26128533482551575 
vt 0.04485255852341652 0.26128533482551575 
vt 0.01967938058078289 0.31815001368522644 
vt 0.008991580456495285 0.3353521525859833 
vt 0.01967938058078289 0.29967087507247925 
vt 0.008991580456495285 0.29967087507247925 
vt 0.01967938058078289 0.28126683831214905 
vt 0.008991580456495285 0.2640646994113922 
vt 0.011515719816088676 0.3546576201915741 
vt 0.011515719816088676 0.3504509925842285 
vt 0.030958419665694237 0.3546576201915741 
vt 0.030958419665694237 0.3504509925842285 
vt 0.050401121377944946 0.3546576201915741 
vt 0.050401121377944946 0.3504509925842285 
vt 0.01967938058078289 0.28126683831214905 
vt 0.008991580456495285 0.2640646994113922 
vt 0.04255582019686699 0.28126683831214905 
vt 0.053220879286527634 0.2640646994113922 
vt 0.04064565896987915 0.28494763374328613 
vt 0.014972199685871601 0.28494763374328613 
vt 0.04064565896987915 0.273379385471344 
vt 0.014972199685871601 0.273379385471344 
vt 0.04064565896987915 0.26181113719940186 
vt 0.014972199685871601 0.26181113719940186 
vt 0.042510341852903366 0.31401851773262024 
vt 0.016836879774928093 0.31401851773262024 
vt 0.042510341852903366 0.2780367434024811 
vt 0.016836879774928093 0.2780367434024811 
vt 0.042510341852903366 0.2420549839735031 
vt 0.016836879774928093 0.2420549839735031 
vt 0.01640482060611248 0.24288128316402435 
vt 0.042078278958797455 0.24288128316402435 
vt 0.01640482060611248 0.2788630425930023 
vt 0.042078278958797455 0.2788630425930023 
vt 0.01640482060611248 0.3148448169231415 
vt 0.042078278958797455 0.3148448169231415 
vt 0.011174620129168034 0.36096757650375366 
vt 0.011174620129168034 0.35848864912986755 
vt 0.05185648053884506 0.36096757650375366 
vt 0.05185648053884506 0.35848864912986755 
vt 0.053220879286527634 0.3353521525859833 
vt 0.04255582019686699 0.31815001368522644 
vt 0.053220879286527634 0.29967087507247925 
vt 0.04255582019686699 0.29967087507247925 
vt 0.053220879286527634 0.2640646994113922 
vt 0.04255582019686699 0.28126683831214905 
vt 0.01083352044224739 0.25925710797309875 
vt 0.01083352044224739 0.2570035755634308 
vt 0.04971892014145851 0.25925710797309875 
vt 0.04971892014145851 0.2570035755634308 
vt 0.04810437932610512 0.2431066483259201 
vt 0.04810437932610512 0.2451348453760147 
vt 0.030549099668860435 0.2431066483259201 
vt 0.030549099668860435 0.2451348453760147 
vt 0.012993820011615753 0.2431066483259201 
vt 0.012993820011615753 0.2451348453760147 
vt 0.0413505993783474 0.28494763374328613 
vt 0.015677139163017273 0.28494763374328613 
vt 0.0413505993783474 0.273379385471344 
vt 0.015677139163017273 0.273379385471344 
vt 0.0413505993783474 0.26181113719940186 
vt 0.015677139163017273 0.26181113719940186 
vt 0.055540360510349274 0.2784874439239502 
s on 
f 1/1/1 2/2/2 3/3/3 
f 2/2/2 4/4/4 3/3/3 
f 3/3/3 4/4/4 4/4/4 
f 4/4/4 2/2/2 4/4/4 
f 4/4/4 2/2/2 2/2/2 
f 2/2/2 5/5/5 2/2/2 
f 2/2/2 5/5/5 4/4/4 
f 5/5/5 6/6/6 4/4/4 
f 4/4/4 6/6/6 6/6/6 
f 6/6/6 5/5/5 6/6/6 
f 6/6/6 5/5/5 7/7/7 
f 5/5/5 8/8/8 7/7/7 
f 7/7/7 8/8/8 8/8/8 
f 8/8/8 9/9/9 8/8/8 
f 8/8/8 9/9/9 9/9/9 
f 9/9/9 10/10/10 9/9/9 
f 9/9/9 10/10/10 11/11/11 
f 10/10/10 12/12/12 11/11/11 
f 11/11/11 12/12/12 12/12/12 
f 12/12/12 10/10/10 12/12/12 
f 12/12/12 10/10/10 13/13/13 
f 10/10/10 14/14/14 13/13/13 
f 13/13/13 14/14/14 14/14/14 
f 14/14/14 15/15/15 14/14/14 
f 14/14/14 15/15/15 15/15/15 
f 15/15/15 16/16/16 15/15/15 
f 15/15/15 16/16/16 17/17/17 
f 16/16/16 18/18/18 17/17/17 
f 17/17/17 18/18/18 19/19/19 
f 18/18/18 20/20/20 19/19/19 
f 19/19/19 20/20/20 20/20/20 
f 20/20/20 21/21/21 20/20/20 
f 20/20/20 21/21/21 21/21/21 
f 21/21/21 22/22/22 21/21/21 
f 21/21/21 22/22/22 23/23/23 
f 22/22/22 24/24/24 23/23/23 
f 23/23/23 24/24/24 25/25/25 
f 24/24/24 25/25/25 25/25/25 
f 25/25/25 25/25/25 26/26/26 
f 25/25/25 26/26/26 26/26/26 
f 26/26/26 26/26/26 26/26/26 
f 26/26/26 27/27/27 26/26/26 
f 26/26/26 27/27/27 28/28/28 
f 27/27/27 29/29/29 28/28/28 
f 28/28/28 29/29/29 30/30/30 
f 29/29/29 31/31/31 30/30/30 
f 30/30/30 31/31/31 31/31/31 
f 31/31/31 32/32/32 31/31/31 
f 31/31/31 32/32/32 32/32/32 
f 32/32/32 33/33/33 32/32/32 
f 32/32/32 33/33/33 34/34/34 
f 33/33/33 35/35/35 34/34/34 
f 34/34/34 35/35/35 36/36/36 
f 35/35/35 37/37/37 36/36/36 
f 36/36/36 37/37/37 37/37/37 
f 37/37/37 38/38/38 37/37/37 
f 37/37/37 38/38/38 38/38/38 
f 38/38/38 39/39/39 38/38/38 
f 38/38/38 39/39/39 40/40/40 
f 39/39/39 41/41/41 40/40/40 
f 40/40/40 41/41/41 41/41/41 
f 41/41/41 42/42/42 41/41/41 
f 41/41/41 42/42/42 42/42/42 
f 42/42/42 43/43/43 42/42/42 
f 42/42/42 43/43/43 44/44/44 
f 43/43/43 45/45/45 44/44/44 
f 44/44/44 45/45/45 46/46/46 
f 45/45/45 47/47/47 46/46/46 
f 46/46/46 47/47/47 47/47/47 
f 47/47/47 48/48/48 47/47/47 
f 47/47/47 48/48/48 48/48/48 
f 48/48/48 49/49/49 48/48/48 
f 48/48/48 49/49/49 50/50/50 
f 49/49/49 51/51/51 50/50/50 
f 50/50/50 51/51/51 52/52/52 
f 51/51/51 53/53/53 52/52/52 
f 52/52/52 53/53/53 53/53/53 
f 53/53/53 54/54/54 53/53/53 
f 53/53/53 54/54/54 54/54/54 
f 54/54/54 55/55/55 54/54/54 
f 54/54/54 55/55/55 56/56/56 
f 55/55/55 57/57/57 56/56/56 
f 56/56/56 57/57/57 58/58/58 
f 57/57/57 59/59/59 58/58/58 
f 58/58/58 59/59/59 59/59/59 
f 59/59/59 60/60/60 59/59/59 
f 59/59/59 60/60/60 60/60/60 
f 60/60/60 61/61/61 60/60/60 
f 60/60/60 61/61/61 62/62/62 
f 61/61/61 63/63/63 62/62/62 
f 62/62/62 63/63/63 63/63/63 
f 63/63/63 64/64/64 63/63/63 
f 63/63/63 64/64/64 64/64/64 
f 64/64/64 65/65/65 64/64/64 
f 64/64/64 65/65/65 66/66/66 
f 65/65/65 67/67/67 66/66/66 
f 66/66/66 67/67/67 68/68/68 
f 67/67/67 69/69/69 68/68/68 
f 68/68/68 69/69/69 69/69/69 
f 69/69/69 70/70/70 69/69/69 
f 69/69/69 70/70/70 70/70/70 
f 70/70/70 71/71/71 70/70/70 
f 70/70/70 71/71/71 72/72/72 
f 71/71/71 73/73/73 72/72/72 
f 72/72/72 73/73/73 73/73/73 
f 73/73/73 74/74/74 73/73/73 
f 73/73/73 74/74/74 74/74/74 
f 74/74/74 75/75/75 74/74/74 
f 74/74/74 75/75/75 76/76/76 
f 75/75/75 77/77/77 76/76/76 
f 76/76/76 77/77/77 78/78/78 
f 77/77/77 79/79/79 78/78/78 
f 78/78/78 79/79/79 79/79/79 
f 79/79/79 80/80/80 79/79/79 
f 79/79/79 80/80/80 80/80/80 
f 80/80/80 81/81/81 80/80/80 
f 80/80/80 81/81/81 82/82/82 
f 81/81/81 83/83/83 82/82/82 
f 82/82/82 83/83/83 84/84/84 
f 83/83/83 85/85/85 84/84/84 
f 23/23/23 25/25/25 86/86/86 

